G04 #@! TF.GenerationSoftware,KiCad,Pcbnew,(5.1.2)-2*
G04 #@! TF.CreationDate,2019-06-29T18:25:01+02:00*
G04 #@! TF.ProjectId,Milwaukee_USB_charger,4d696c77-6175-46b6-9565-5f5553425f63,rev?*
G04 #@! TF.SameCoordinates,Original*
G04 #@! TF.FileFunction,Soldermask,Bot*
G04 #@! TF.FilePolarity,Negative*
%FSLAX46Y46*%
G04 Gerber Fmt 4.6, Leading zero omitted, Abs format (unit mm)*
G04 Created by KiCad (PCBNEW (5.1.2)-2) date 2019-06-29 18:25:01*
%MOMM*%
%LPD*%
G04 APERTURE LIST*
%ADD10C,0.100000*%
G04 APERTURE END LIST*
D10*
G36*
X85372585Y-105808802D02*
G01*
X85522410Y-105838604D01*
X85804674Y-105955521D01*
X86058705Y-106125259D01*
X86274741Y-106341295D01*
X86444479Y-106595326D01*
X86561396Y-106877590D01*
X86621000Y-107177240D01*
X86621000Y-107482760D01*
X86561396Y-107782410D01*
X86444479Y-108064674D01*
X86274741Y-108318705D01*
X86058705Y-108534741D01*
X85804674Y-108704479D01*
X85522410Y-108821396D01*
X85372585Y-108851198D01*
X85222761Y-108881000D01*
X84917239Y-108881000D01*
X84767415Y-108851198D01*
X84617590Y-108821396D01*
X84335326Y-108704479D01*
X84081295Y-108534741D01*
X83865259Y-108318705D01*
X83695521Y-108064674D01*
X83578604Y-107782410D01*
X83519000Y-107482760D01*
X83519000Y-107177240D01*
X83578604Y-106877590D01*
X83695521Y-106595326D01*
X83865259Y-106341295D01*
X84081295Y-106125259D01*
X84335326Y-105955521D01*
X84617590Y-105838604D01*
X84767415Y-105808802D01*
X84917239Y-105779000D01*
X85222761Y-105779000D01*
X85372585Y-105808802D01*
X85372585Y-105808802D01*
G37*
G36*
X72232585Y-105808802D02*
G01*
X72382410Y-105838604D01*
X72664674Y-105955521D01*
X72918705Y-106125259D01*
X73134741Y-106341295D01*
X73304479Y-106595326D01*
X73421396Y-106877590D01*
X73481000Y-107177240D01*
X73481000Y-107482760D01*
X73421396Y-107782410D01*
X73304479Y-108064674D01*
X73134741Y-108318705D01*
X72918705Y-108534741D01*
X72664674Y-108704479D01*
X72382410Y-108821396D01*
X72232585Y-108851198D01*
X72082761Y-108881000D01*
X71777239Y-108881000D01*
X71627415Y-108851198D01*
X71477590Y-108821396D01*
X71195326Y-108704479D01*
X70941295Y-108534741D01*
X70725259Y-108318705D01*
X70555521Y-108064674D01*
X70438604Y-107782410D01*
X70379000Y-107482760D01*
X70379000Y-107177240D01*
X70438604Y-106877590D01*
X70555521Y-106595326D01*
X70725259Y-106341295D01*
X70941295Y-106125259D01*
X71195326Y-105955521D01*
X71477590Y-105838604D01*
X71627415Y-105808802D01*
X71777239Y-105779000D01*
X72082761Y-105779000D01*
X72232585Y-105808802D01*
X72232585Y-105808802D01*
G37*
G36*
X120302585Y-105678802D02*
G01*
X120452410Y-105708604D01*
X120734674Y-105825521D01*
X120988705Y-105995259D01*
X121204741Y-106211295D01*
X121374479Y-106465326D01*
X121491396Y-106747590D01*
X121551000Y-107047240D01*
X121551000Y-107352760D01*
X121491396Y-107652410D01*
X121374479Y-107934674D01*
X121204741Y-108188705D01*
X120988705Y-108404741D01*
X120734674Y-108574479D01*
X120452410Y-108691396D01*
X120386637Y-108704479D01*
X120152761Y-108751000D01*
X119847239Y-108751000D01*
X119613363Y-108704479D01*
X119547590Y-108691396D01*
X119265326Y-108574479D01*
X119011295Y-108404741D01*
X118795259Y-108188705D01*
X118625521Y-107934674D01*
X118508604Y-107652410D01*
X118449000Y-107352760D01*
X118449000Y-107047240D01*
X118508604Y-106747590D01*
X118625521Y-106465326D01*
X118795259Y-106211295D01*
X119011295Y-105995259D01*
X119265326Y-105825521D01*
X119547590Y-105708604D01*
X119697415Y-105678802D01*
X119847239Y-105649000D01*
X120152761Y-105649000D01*
X120302585Y-105678802D01*
X120302585Y-105678802D01*
G37*
G36*
X82233642Y-103849781D02*
G01*
X82379414Y-103910162D01*
X82379416Y-103910163D01*
X82510608Y-103997822D01*
X82622178Y-104109392D01*
X82709837Y-104240584D01*
X82709838Y-104240586D01*
X82770219Y-104386358D01*
X82801000Y-104541107D01*
X82801000Y-104698893D01*
X82770219Y-104853642D01*
X82709838Y-104999414D01*
X82709837Y-104999416D01*
X82622178Y-105130608D01*
X82510608Y-105242178D01*
X82379416Y-105329837D01*
X82379415Y-105329838D01*
X82379414Y-105329838D01*
X82233642Y-105390219D01*
X82078893Y-105421000D01*
X81921107Y-105421000D01*
X81766358Y-105390219D01*
X81620586Y-105329838D01*
X81620585Y-105329838D01*
X81620584Y-105329837D01*
X81489392Y-105242178D01*
X81377822Y-105130608D01*
X81290163Y-104999416D01*
X81290162Y-104999414D01*
X81229781Y-104853642D01*
X81199000Y-104698893D01*
X81199000Y-104541107D01*
X81229781Y-104386358D01*
X81290162Y-104240586D01*
X81290163Y-104240584D01*
X81377822Y-104109392D01*
X81489392Y-103997822D01*
X81620584Y-103910163D01*
X81620586Y-103910162D01*
X81766358Y-103849781D01*
X81921107Y-103819000D01*
X82078893Y-103819000D01*
X82233642Y-103849781D01*
X82233642Y-103849781D01*
G37*
G36*
X79733642Y-103849781D02*
G01*
X79879414Y-103910162D01*
X79879416Y-103910163D01*
X80010608Y-103997822D01*
X80122178Y-104109392D01*
X80209837Y-104240584D01*
X80209838Y-104240586D01*
X80270219Y-104386358D01*
X80301000Y-104541107D01*
X80301000Y-104698893D01*
X80270219Y-104853642D01*
X80209838Y-104999414D01*
X80209837Y-104999416D01*
X80122178Y-105130608D01*
X80010608Y-105242178D01*
X79879416Y-105329837D01*
X79879415Y-105329838D01*
X79879414Y-105329838D01*
X79733642Y-105390219D01*
X79578893Y-105421000D01*
X79421107Y-105421000D01*
X79266358Y-105390219D01*
X79120586Y-105329838D01*
X79120585Y-105329838D01*
X79120584Y-105329837D01*
X78989392Y-105242178D01*
X78877822Y-105130608D01*
X78790163Y-104999416D01*
X78790162Y-104999414D01*
X78729781Y-104853642D01*
X78699000Y-104698893D01*
X78699000Y-104541107D01*
X78729781Y-104386358D01*
X78790162Y-104240586D01*
X78790163Y-104240584D01*
X78877822Y-104109392D01*
X78989392Y-103997822D01*
X79120584Y-103910163D01*
X79120586Y-103910162D01*
X79266358Y-103849781D01*
X79421107Y-103819000D01*
X79578893Y-103819000D01*
X79733642Y-103849781D01*
X79733642Y-103849781D01*
G37*
G36*
X77733642Y-103849781D02*
G01*
X77879414Y-103910162D01*
X77879416Y-103910163D01*
X78010608Y-103997822D01*
X78122178Y-104109392D01*
X78209837Y-104240584D01*
X78209838Y-104240586D01*
X78270219Y-104386358D01*
X78301000Y-104541107D01*
X78301000Y-104698893D01*
X78270219Y-104853642D01*
X78209838Y-104999414D01*
X78209837Y-104999416D01*
X78122178Y-105130608D01*
X78010608Y-105242178D01*
X77879416Y-105329837D01*
X77879415Y-105329838D01*
X77879414Y-105329838D01*
X77733642Y-105390219D01*
X77578893Y-105421000D01*
X77421107Y-105421000D01*
X77266358Y-105390219D01*
X77120586Y-105329838D01*
X77120585Y-105329838D01*
X77120584Y-105329837D01*
X76989392Y-105242178D01*
X76877822Y-105130608D01*
X76790163Y-104999416D01*
X76790162Y-104999414D01*
X76729781Y-104853642D01*
X76699000Y-104698893D01*
X76699000Y-104541107D01*
X76729781Y-104386358D01*
X76790162Y-104240586D01*
X76790163Y-104240584D01*
X76877822Y-104109392D01*
X76989392Y-103997822D01*
X77120584Y-103910163D01*
X77120586Y-103910162D01*
X77266358Y-103849781D01*
X77421107Y-103819000D01*
X77578893Y-103819000D01*
X77733642Y-103849781D01*
X77733642Y-103849781D01*
G37*
G36*
X75233642Y-103849781D02*
G01*
X75379414Y-103910162D01*
X75379416Y-103910163D01*
X75510608Y-103997822D01*
X75622178Y-104109392D01*
X75709837Y-104240584D01*
X75709838Y-104240586D01*
X75770219Y-104386358D01*
X75801000Y-104541107D01*
X75801000Y-104698893D01*
X75770219Y-104853642D01*
X75709838Y-104999414D01*
X75709837Y-104999416D01*
X75622178Y-105130608D01*
X75510608Y-105242178D01*
X75379416Y-105329837D01*
X75379415Y-105329838D01*
X75379414Y-105329838D01*
X75233642Y-105390219D01*
X75078893Y-105421000D01*
X74921107Y-105421000D01*
X74766358Y-105390219D01*
X74620586Y-105329838D01*
X74620585Y-105329838D01*
X74620584Y-105329837D01*
X74489392Y-105242178D01*
X74377822Y-105130608D01*
X74290163Y-104999416D01*
X74290162Y-104999414D01*
X74229781Y-104853642D01*
X74199000Y-104698893D01*
X74199000Y-104541107D01*
X74229781Y-104386358D01*
X74290162Y-104240586D01*
X74290163Y-104240584D01*
X74377822Y-104109392D01*
X74489392Y-103997822D01*
X74620584Y-103910163D01*
X74620586Y-103910162D01*
X74766358Y-103849781D01*
X74921107Y-103819000D01*
X75078893Y-103819000D01*
X75233642Y-103849781D01*
X75233642Y-103849781D01*
G37*
G36*
X85331371Y-100120604D02*
G01*
X85522410Y-100158604D01*
X85804674Y-100275521D01*
X86058705Y-100445259D01*
X86274741Y-100661295D01*
X86444479Y-100915326D01*
X86561396Y-101197590D01*
X86621000Y-101497240D01*
X86621000Y-101802760D01*
X86561396Y-102102410D01*
X86444479Y-102384674D01*
X86274741Y-102638705D01*
X86058705Y-102854741D01*
X85804674Y-103024479D01*
X85522410Y-103141396D01*
X85413799Y-103163000D01*
X85222761Y-103201000D01*
X84917239Y-103201000D01*
X84726201Y-103163000D01*
X84617590Y-103141396D01*
X84335326Y-103024479D01*
X84081295Y-102854741D01*
X83865259Y-102638705D01*
X83695521Y-102384674D01*
X83578604Y-102102410D01*
X83519000Y-101802760D01*
X83519000Y-101497240D01*
X83578604Y-101197590D01*
X83695521Y-100915326D01*
X83865259Y-100661295D01*
X84081295Y-100445259D01*
X84335326Y-100275521D01*
X84617590Y-100158604D01*
X84808629Y-100120604D01*
X84917239Y-100099000D01*
X85222761Y-100099000D01*
X85331371Y-100120604D01*
X85331371Y-100120604D01*
G37*
G36*
X72191371Y-100120604D02*
G01*
X72382410Y-100158604D01*
X72664674Y-100275521D01*
X72918705Y-100445259D01*
X73134741Y-100661295D01*
X73304479Y-100915326D01*
X73421396Y-101197590D01*
X73481000Y-101497240D01*
X73481000Y-101802760D01*
X73421396Y-102102410D01*
X73304479Y-102384674D01*
X73134741Y-102638705D01*
X72918705Y-102854741D01*
X72664674Y-103024479D01*
X72382410Y-103141396D01*
X72273799Y-103163000D01*
X72082761Y-103201000D01*
X71777239Y-103201000D01*
X71586201Y-103163000D01*
X71477590Y-103141396D01*
X71195326Y-103024479D01*
X70941295Y-102854741D01*
X70725259Y-102638705D01*
X70555521Y-102384674D01*
X70438604Y-102102410D01*
X70379000Y-101802760D01*
X70379000Y-101497240D01*
X70438604Y-101197590D01*
X70555521Y-100915326D01*
X70725259Y-100661295D01*
X70941295Y-100445259D01*
X71195326Y-100275521D01*
X71477590Y-100158604D01*
X71668629Y-100120604D01*
X71777239Y-100099000D01*
X72082761Y-100099000D01*
X72191371Y-100120604D01*
X72191371Y-100120604D01*
G37*
G36*
X123604585Y-100090802D02*
G01*
X123754410Y-100120604D01*
X124036674Y-100237521D01*
X124290705Y-100407259D01*
X124506741Y-100623295D01*
X124676479Y-100877326D01*
X124793396Y-101159590D01*
X124793396Y-101159591D01*
X124853000Y-101459239D01*
X124853000Y-101764761D01*
X124852682Y-101766358D01*
X124793396Y-102064410D01*
X124676479Y-102346674D01*
X124506741Y-102600705D01*
X124290705Y-102816741D01*
X124036674Y-102986479D01*
X123754410Y-103103396D01*
X123604585Y-103133198D01*
X123454761Y-103163000D01*
X123149239Y-103163000D01*
X122999415Y-103133198D01*
X122849590Y-103103396D01*
X122567326Y-102986479D01*
X122313295Y-102816741D01*
X122097259Y-102600705D01*
X121927521Y-102346674D01*
X121810604Y-102064410D01*
X121751318Y-101766358D01*
X121751000Y-101764761D01*
X121751000Y-101459239D01*
X121810604Y-101159591D01*
X121810604Y-101159590D01*
X121927521Y-100877326D01*
X122097259Y-100623295D01*
X122313295Y-100407259D01*
X122567326Y-100237521D01*
X122849590Y-100120604D01*
X122999415Y-100090802D01*
X123149239Y-100061000D01*
X123454761Y-100061000D01*
X123604585Y-100090802D01*
X123604585Y-100090802D01*
G37*
G36*
X117000585Y-100090802D02*
G01*
X117150410Y-100120604D01*
X117432674Y-100237521D01*
X117686705Y-100407259D01*
X117902741Y-100623295D01*
X118072479Y-100877326D01*
X118189396Y-101159590D01*
X118189396Y-101159591D01*
X118249000Y-101459239D01*
X118249000Y-101764761D01*
X118248682Y-101766358D01*
X118189396Y-102064410D01*
X118072479Y-102346674D01*
X117902741Y-102600705D01*
X117686705Y-102816741D01*
X117432674Y-102986479D01*
X117150410Y-103103396D01*
X117000585Y-103133198D01*
X116850761Y-103163000D01*
X116545239Y-103163000D01*
X116395415Y-103133198D01*
X116245590Y-103103396D01*
X115963326Y-102986479D01*
X115709295Y-102816741D01*
X115493259Y-102600705D01*
X115323521Y-102346674D01*
X115206604Y-102064410D01*
X115147318Y-101766358D01*
X115147000Y-101764761D01*
X115147000Y-101459239D01*
X115206604Y-101159591D01*
X115206604Y-101159590D01*
X115323521Y-100877326D01*
X115493259Y-100623295D01*
X115709295Y-100407259D01*
X115963326Y-100237521D01*
X116245590Y-100120604D01*
X116395415Y-100090802D01*
X116545239Y-100061000D01*
X116850761Y-100061000D01*
X117000585Y-100090802D01*
X117000585Y-100090802D01*
G37*
G36*
X82233642Y-101229781D02*
G01*
X82379414Y-101290162D01*
X82379416Y-101290163D01*
X82510608Y-101377822D01*
X82622178Y-101489392D01*
X82709837Y-101620584D01*
X82709838Y-101620586D01*
X82770219Y-101766358D01*
X82801000Y-101921107D01*
X82801000Y-102078893D01*
X82770219Y-102233642D01*
X82723400Y-102346672D01*
X82709837Y-102379416D01*
X82622178Y-102510608D01*
X82510608Y-102622178D01*
X82379416Y-102709837D01*
X82379415Y-102709838D01*
X82379414Y-102709838D01*
X82233642Y-102770219D01*
X82078893Y-102801000D01*
X81921107Y-102801000D01*
X81766358Y-102770219D01*
X81620586Y-102709838D01*
X81620585Y-102709838D01*
X81620584Y-102709837D01*
X81489392Y-102622178D01*
X81377822Y-102510608D01*
X81290163Y-102379416D01*
X81276600Y-102346672D01*
X81229781Y-102233642D01*
X81199000Y-102078893D01*
X81199000Y-101921107D01*
X81229781Y-101766358D01*
X81290162Y-101620586D01*
X81290163Y-101620584D01*
X81377822Y-101489392D01*
X81489392Y-101377822D01*
X81620584Y-101290163D01*
X81620586Y-101290162D01*
X81766358Y-101229781D01*
X81921107Y-101199000D01*
X82078893Y-101199000D01*
X82233642Y-101229781D01*
X82233642Y-101229781D01*
G37*
G36*
X75801000Y-102801000D02*
G01*
X74199000Y-102801000D01*
X74199000Y-101199000D01*
X75801000Y-101199000D01*
X75801000Y-102801000D01*
X75801000Y-102801000D01*
G37*
G36*
X77733642Y-101229781D02*
G01*
X77879414Y-101290162D01*
X77879416Y-101290163D01*
X78010608Y-101377822D01*
X78122178Y-101489392D01*
X78209837Y-101620584D01*
X78209838Y-101620586D01*
X78270219Y-101766358D01*
X78301000Y-101921107D01*
X78301000Y-102078893D01*
X78270219Y-102233642D01*
X78223400Y-102346672D01*
X78209837Y-102379416D01*
X78122178Y-102510608D01*
X78010608Y-102622178D01*
X77879416Y-102709837D01*
X77879415Y-102709838D01*
X77879414Y-102709838D01*
X77733642Y-102770219D01*
X77578893Y-102801000D01*
X77421107Y-102801000D01*
X77266358Y-102770219D01*
X77120586Y-102709838D01*
X77120585Y-102709838D01*
X77120584Y-102709837D01*
X76989392Y-102622178D01*
X76877822Y-102510608D01*
X76790163Y-102379416D01*
X76776600Y-102346672D01*
X76729781Y-102233642D01*
X76699000Y-102078893D01*
X76699000Y-101921107D01*
X76729781Y-101766358D01*
X76790162Y-101620586D01*
X76790163Y-101620584D01*
X76877822Y-101489392D01*
X76989392Y-101377822D01*
X77120584Y-101290163D01*
X77120586Y-101290162D01*
X77266358Y-101229781D01*
X77421107Y-101199000D01*
X77578893Y-101199000D01*
X77733642Y-101229781D01*
X77733642Y-101229781D01*
G37*
G36*
X79733642Y-101229781D02*
G01*
X79879414Y-101290162D01*
X79879416Y-101290163D01*
X80010608Y-101377822D01*
X80122178Y-101489392D01*
X80209837Y-101620584D01*
X80209838Y-101620586D01*
X80270219Y-101766358D01*
X80301000Y-101921107D01*
X80301000Y-102078893D01*
X80270219Y-102233642D01*
X80223400Y-102346672D01*
X80209837Y-102379416D01*
X80122178Y-102510608D01*
X80010608Y-102622178D01*
X79879416Y-102709837D01*
X79879415Y-102709838D01*
X79879414Y-102709838D01*
X79733642Y-102770219D01*
X79578893Y-102801000D01*
X79421107Y-102801000D01*
X79266358Y-102770219D01*
X79120586Y-102709838D01*
X79120585Y-102709838D01*
X79120584Y-102709837D01*
X78989392Y-102622178D01*
X78877822Y-102510608D01*
X78790163Y-102379416D01*
X78776600Y-102346672D01*
X78729781Y-102233642D01*
X78699000Y-102078893D01*
X78699000Y-101921107D01*
X78729781Y-101766358D01*
X78790162Y-101620586D01*
X78790163Y-101620584D01*
X78877822Y-101489392D01*
X78989392Y-101377822D01*
X79120584Y-101290163D01*
X79120586Y-101290162D01*
X79266358Y-101229781D01*
X79421107Y-101199000D01*
X79578893Y-101199000D01*
X79733642Y-101229781D01*
X79733642Y-101229781D01*
G37*
G36*
X89304049Y-91431442D02*
G01*
X89596414Y-91520130D01*
X89596416Y-91520131D01*
X89865858Y-91664150D01*
X90102029Y-91857971D01*
X90295850Y-92094142D01*
X90439869Y-92363584D01*
X90439870Y-92363586D01*
X90528558Y-92655951D01*
X90528558Y-92655953D01*
X90551000Y-92883809D01*
X90551000Y-99192760D01*
X90491396Y-99492410D01*
X90374479Y-99774674D01*
X90204741Y-100028705D01*
X89988705Y-100244741D01*
X89734674Y-100414479D01*
X89452410Y-100531396D01*
X89302585Y-100561198D01*
X89152761Y-100591000D01*
X88847239Y-100591000D01*
X88697415Y-100561198D01*
X88547590Y-100531396D01*
X88265326Y-100414479D01*
X88011295Y-100244741D01*
X87795259Y-100028705D01*
X87625521Y-99774674D01*
X87508604Y-99492410D01*
X87449000Y-99192760D01*
X87449000Y-93784011D01*
X87449001Y-93784001D01*
X87449001Y-92883809D01*
X87471443Y-92655953D01*
X87471443Y-92655951D01*
X87560131Y-92363586D01*
X87560132Y-92363584D01*
X87704151Y-92094142D01*
X87897972Y-91857971D01*
X88134143Y-91664150D01*
X88403585Y-91520131D01*
X88403587Y-91520130D01*
X88695952Y-91431442D01*
X89000000Y-91401496D01*
X89304049Y-91431442D01*
X89304049Y-91431442D01*
G37*
G36*
X111304049Y-91431442D02*
G01*
X111596414Y-91520130D01*
X111596416Y-91520131D01*
X111865858Y-91664150D01*
X112102029Y-91857971D01*
X112295850Y-92094142D01*
X112439869Y-92363584D01*
X112439870Y-92363586D01*
X112528558Y-92655951D01*
X112528558Y-92655953D01*
X112551000Y-92883809D01*
X112551000Y-99192760D01*
X112491396Y-99492410D01*
X112374479Y-99774674D01*
X112204741Y-100028705D01*
X111988705Y-100244741D01*
X111734674Y-100414479D01*
X111452410Y-100531396D01*
X111302585Y-100561198D01*
X111152761Y-100591000D01*
X110847239Y-100591000D01*
X110697415Y-100561198D01*
X110547590Y-100531396D01*
X110265326Y-100414479D01*
X110011295Y-100244741D01*
X109795259Y-100028705D01*
X109625521Y-99774674D01*
X109508604Y-99492410D01*
X109449000Y-99192760D01*
X109449000Y-93784011D01*
X109449001Y-93784001D01*
X109449001Y-92883809D01*
X109471443Y-92655953D01*
X109471443Y-92655951D01*
X109560131Y-92363586D01*
X109560132Y-92363584D01*
X109704151Y-92094142D01*
X109897972Y-91857971D01*
X110134143Y-91664150D01*
X110403585Y-91520131D01*
X110403587Y-91520130D01*
X110695952Y-91431442D01*
X111000000Y-91401496D01*
X111304049Y-91431442D01*
X111304049Y-91431442D01*
G37*
G36*
X100275880Y-93759776D02*
G01*
X100656593Y-93835504D01*
X101066249Y-94005189D01*
X101434929Y-94251534D01*
X101748466Y-94565071D01*
X101994811Y-94933751D01*
X102164496Y-95343407D01*
X102251000Y-95778296D01*
X102251000Y-96221704D01*
X102164496Y-96656593D01*
X101994811Y-97066249D01*
X101748466Y-97434929D01*
X101434929Y-97748466D01*
X101066249Y-97994811D01*
X100656593Y-98164496D01*
X100275880Y-98240224D01*
X100221705Y-98251000D01*
X99778295Y-98251000D01*
X99724120Y-98240224D01*
X99343407Y-98164496D01*
X98933751Y-97994811D01*
X98565071Y-97748466D01*
X98251534Y-97434929D01*
X98005189Y-97066249D01*
X97835504Y-96656593D01*
X97749000Y-96221704D01*
X97749000Y-95778296D01*
X97835504Y-95343407D01*
X98005189Y-94933751D01*
X98251534Y-94565071D01*
X98565071Y-94251534D01*
X98933751Y-94005189D01*
X99343407Y-93835504D01*
X99724120Y-93759776D01*
X99778295Y-93749000D01*
X100221705Y-93749000D01*
X100275880Y-93759776D01*
X100275880Y-93759776D01*
G37*
G36*
X81491000Y-51791000D02*
G01*
X79509000Y-51791000D01*
X79509000Y-50009000D01*
X81491000Y-50009000D01*
X81491000Y-51791000D01*
X81491000Y-51791000D01*
G37*
G36*
X99026759Y-46857239D02*
G01*
X97044759Y-46857239D01*
X97044759Y-45075239D01*
X99026759Y-45075239D01*
X99026759Y-46857239D01*
X99026759Y-46857239D01*
G37*
G36*
X131275880Y-36759776D02*
G01*
X131656593Y-36835504D01*
X132066249Y-37005189D01*
X132434929Y-37251534D01*
X132748466Y-37565071D01*
X132994811Y-37933751D01*
X133164496Y-38343407D01*
X133251000Y-38778296D01*
X133251000Y-39221704D01*
X133164496Y-39656593D01*
X132994811Y-40066249D01*
X132748466Y-40434929D01*
X132434929Y-40748466D01*
X132066249Y-40994811D01*
X131656593Y-41164496D01*
X131275880Y-41240224D01*
X131221705Y-41251000D01*
X130778295Y-41251000D01*
X130724120Y-41240224D01*
X130343407Y-41164496D01*
X129933751Y-40994811D01*
X129565071Y-40748466D01*
X129251534Y-40434929D01*
X129005189Y-40066249D01*
X128835504Y-39656593D01*
X128749000Y-39221704D01*
X128749000Y-38778296D01*
X128835504Y-38343407D01*
X129005189Y-37933751D01*
X129251534Y-37565071D01*
X129565071Y-37251534D01*
X129933751Y-37005189D01*
X130343407Y-36835504D01*
X130724120Y-36759776D01*
X130778295Y-36749000D01*
X131221705Y-36749000D01*
X131275880Y-36759776D01*
X131275880Y-36759776D01*
G37*
G36*
X69275880Y-36759776D02*
G01*
X69656593Y-36835504D01*
X70066249Y-37005189D01*
X70434929Y-37251534D01*
X70748466Y-37565071D01*
X70994811Y-37933751D01*
X71164496Y-38343407D01*
X71251000Y-38778296D01*
X71251000Y-39221704D01*
X71164496Y-39656593D01*
X70994811Y-40066249D01*
X70748466Y-40434929D01*
X70434929Y-40748466D01*
X70066249Y-40994811D01*
X69656593Y-41164496D01*
X69275880Y-41240224D01*
X69221705Y-41251000D01*
X68778295Y-41251000D01*
X68724120Y-41240224D01*
X68343407Y-41164496D01*
X67933751Y-40994811D01*
X67565071Y-40748466D01*
X67251534Y-40434929D01*
X67005189Y-40066249D01*
X66835504Y-39656593D01*
X66749000Y-39221704D01*
X66749000Y-38778296D01*
X66835504Y-38343407D01*
X67005189Y-37933751D01*
X67251534Y-37565071D01*
X67565071Y-37251534D01*
X67933751Y-37005189D01*
X68343407Y-36835504D01*
X68724120Y-36759776D01*
X68778295Y-36749000D01*
X69221705Y-36749000D01*
X69275880Y-36759776D01*
X69275880Y-36759776D01*
G37*
M02*
