G04 #@! TF.GenerationSoftware,KiCad,Pcbnew,(5.0.1)-3*
G04 #@! TF.CreationDate,2019-05-15T20:24:53+02:00*
G04 #@! TF.ProjectId,Milwaukee_USB_charger,4D696C7761756B65655F5553425F6368,rev?*
G04 #@! TF.SameCoordinates,Original*
G04 #@! TF.FileFunction,Legend,Top*
G04 #@! TF.FilePolarity,Positive*
%FSLAX46Y46*%
G04 Gerber Fmt 4.6, Leading zero omitted, Abs format (unit mm)*
G04 Created by KiCad (PCBNEW (5.0.1)-3) date 15-May-19 20:24:53*
%MOMM*%
%LPD*%
G01*
G04 APERTURE LIST*
%ADD10C,0.150000*%
%ADD11C,0.500000*%
%ADD12C,0.120000*%
%ADD13C,0.100000*%
%ADD14C,0.125000*%
G04 APERTURE END LIST*
D10*
G04 #@! TO.C,C10*
X93610759Y-60321239D02*
X98910759Y-60321239D01*
X93610759Y-60321239D02*
X93610759Y-64471239D01*
X94760759Y-65621239D02*
X97760759Y-65621239D01*
X98910759Y-64471239D02*
X97760759Y-65621239D01*
X93610759Y-64471239D02*
X94760759Y-65621239D01*
X98910759Y-60321239D02*
X98910759Y-64471239D01*
D11*
X99060759Y-64971239D02*
X99060759Y-66571239D01*
X98260759Y-65771239D02*
X99860759Y-65771239D01*
D10*
G04 #@! TO.C,C11*
X103780000Y-57620000D02*
X98480000Y-57620000D01*
X103780000Y-57620000D02*
X103780000Y-53470000D01*
X102630000Y-52320000D02*
X99630000Y-52320000D01*
X98480000Y-53470000D02*
X99630000Y-52320000D01*
X103780000Y-53470000D02*
X102630000Y-52320000D01*
X98480000Y-57620000D02*
X98480000Y-53470000D01*
D11*
X98330000Y-52970000D02*
X98330000Y-51370000D01*
X99130000Y-52170000D02*
X97530000Y-52170000D01*
D10*
G04 #@! TO.C,C6*
X97580000Y-57650000D02*
X92280000Y-57650000D01*
X97580000Y-57650000D02*
X97580000Y-53500000D01*
X96430000Y-52350000D02*
X93430000Y-52350000D01*
X92280000Y-53500000D02*
X93430000Y-52350000D01*
X97580000Y-53500000D02*
X96430000Y-52350000D01*
X92280000Y-57650000D02*
X92280000Y-53500000D01*
D11*
X92130000Y-53000000D02*
X92130000Y-51400000D01*
X92930000Y-52200000D02*
X91330000Y-52200000D01*
D10*
G04 #@! TO.C,C5*
X71210759Y-75121239D02*
X76510759Y-75121239D01*
X71210759Y-75121239D02*
X71210759Y-79271239D01*
X72360759Y-80421239D02*
X75360759Y-80421239D01*
X76510759Y-79271239D02*
X75360759Y-80421239D01*
X71210759Y-79271239D02*
X72360759Y-80421239D01*
X76510759Y-75121239D02*
X76510759Y-79271239D01*
D11*
X76660759Y-79771239D02*
X76660759Y-81371239D01*
X75860759Y-80571239D02*
X77460759Y-80571239D01*
D10*
G04 #@! TO.C,L2*
X121480000Y-86670000D02*
X93580000Y-86670000D01*
X121480000Y-86670000D02*
X121480000Y-66870000D01*
X121480000Y-66870000D02*
X93580000Y-66870000D01*
X93580000Y-66870000D02*
X93580000Y-86670000D01*
G04 #@! TO.C,U1*
X82125000Y-49275000D02*
X82000000Y-49275000D01*
X82125000Y-52525000D02*
X81910000Y-52525000D01*
X78875000Y-52525000D02*
X79090000Y-52525000D01*
X78875000Y-49275000D02*
X79090000Y-49275000D01*
X82125000Y-49275000D02*
X82125000Y-52525000D01*
X78875000Y-49275000D02*
X78875000Y-52525000D01*
X82000000Y-49275000D02*
X82000000Y-48350000D01*
G04 #@! TO.C,U2*
X99660759Y-44341239D02*
X99535759Y-44341239D01*
X99660759Y-47591239D02*
X99445759Y-47591239D01*
X96410759Y-47591239D02*
X96625759Y-47591239D01*
X96410759Y-44341239D02*
X96625759Y-44341239D01*
X99660759Y-44341239D02*
X99660759Y-47591239D01*
X96410759Y-44341239D02*
X96410759Y-47591239D01*
X99535759Y-44341239D02*
X99535759Y-43416239D01*
D12*
G04 #@! TO.C,C1*
X83790000Y-52261252D02*
X83790000Y-51738748D01*
X85210000Y-52261252D02*
X85210000Y-51738748D01*
G04 #@! TO.C,C2*
X81632026Y-54090000D02*
X81289492Y-54090000D01*
X81632026Y-55110000D02*
X81289492Y-55110000D01*
G04 #@! TO.C,C3*
X82410000Y-46471267D02*
X82410000Y-46128733D01*
X81390000Y-46471267D02*
X81390000Y-46128733D01*
G04 #@! TO.C,C4*
X78728733Y-43590000D02*
X79071267Y-43590000D01*
X78728733Y-44610000D02*
X79071267Y-44610000D01*
G04 #@! TO.C,C7*
X99807026Y-49156239D02*
X99464492Y-49156239D01*
X99807026Y-50176239D02*
X99464492Y-50176239D01*
G04 #@! TO.C,C8*
X99945759Y-41194972D02*
X99945759Y-41537506D01*
X98925759Y-41194972D02*
X98925759Y-41537506D01*
G04 #@! TO.C,C9*
X96264492Y-38456239D02*
X96607026Y-38456239D01*
X96264492Y-39476239D02*
X96607026Y-39476239D01*
G04 #@! TO.C,D1*
X77380000Y-58370000D02*
X77380000Y-59470000D01*
X77650000Y-58370000D02*
X77380000Y-58370000D01*
X77650000Y-56870000D02*
X77650000Y-58370000D01*
X71020000Y-58370000D02*
X71020000Y-61200000D01*
X70750000Y-58370000D02*
X71020000Y-58370000D01*
X70750000Y-56870000D02*
X70750000Y-58370000D01*
G04 #@! TO.C,D2*
X125650000Y-59200000D02*
X125650000Y-57700000D01*
X125650000Y-57700000D02*
X125380000Y-57700000D01*
X125380000Y-57700000D02*
X125380000Y-54870000D01*
X118750000Y-59200000D02*
X118750000Y-57700000D01*
X118750000Y-57700000D02*
X119020000Y-57700000D01*
X119020000Y-57700000D02*
X119020000Y-56600000D01*
D13*
G04 #@! TO.C,F1*
X73335000Y-93085000D02*
X83065000Y-93085000D01*
X83065000Y-93085000D02*
X83065000Y-98115000D01*
X73335000Y-98115000D02*
X83065000Y-98115000D01*
X73335000Y-93085000D02*
X73335000Y-98115000D01*
G04 #@! TO.C,F2*
X114015000Y-97435000D02*
X119045000Y-97435000D01*
X119045000Y-97435000D02*
X119045000Y-87705000D01*
X114015000Y-87705000D02*
X119045000Y-87705000D01*
X114015000Y-97435000D02*
X114015000Y-87705000D01*
D12*
G04 #@! TO.C,J3*
X75400000Y-100400000D02*
X74600000Y-100400000D01*
X73310000Y-100550000D02*
X83690000Y-100550000D01*
X72190000Y-117050000D02*
X72190000Y-109080000D01*
X71190000Y-117050000D02*
X72190000Y-117050000D01*
X71190000Y-117670000D02*
X71190000Y-117050000D01*
X85810000Y-117670000D02*
X71190000Y-117670000D01*
X85810000Y-117050000D02*
X85810000Y-117670000D01*
X84810000Y-117050000D02*
X85810000Y-117050000D01*
X84810000Y-109080000D02*
X84810000Y-117050000D01*
X72190000Y-105580000D02*
X72190000Y-103400000D01*
X84810000Y-105580000D02*
X84810000Y-103400000D01*
D10*
G04 #@! TO.C,J4*
X114488200Y-115582000D02*
X114488200Y-99082000D01*
X114488200Y-99082000D02*
X125511800Y-99082000D01*
X125511800Y-115582000D02*
X125511800Y-99082000D01*
X114488200Y-115582000D02*
X125511800Y-115582000D01*
X116031250Y-121043000D02*
X116031250Y-115643000D01*
X116031250Y-121043000D02*
X123968750Y-121043000D01*
X123968750Y-121043000D02*
X123968750Y-115643000D01*
D12*
G04 #@! TO.C,L1*
X79420000Y-81380000D02*
X78920000Y-81380000D01*
X78920000Y-81380000D02*
X78920000Y-75020000D01*
X78920000Y-75020000D02*
X79480000Y-75020000D01*
X84980000Y-75020000D02*
X85480000Y-75020000D01*
X85480000Y-75020000D02*
X85480000Y-81380000D01*
X85480000Y-81380000D02*
X84920000Y-81380000D01*
G04 #@! TO.C,Q1*
X81610759Y-63910000D02*
X82710759Y-63910000D01*
X81610759Y-62100000D02*
X81610759Y-63910000D01*
X80110759Y-62100000D02*
X81610759Y-62100000D01*
X81610759Y-70690000D02*
X86735759Y-70690000D01*
X81610759Y-72500000D02*
X81610759Y-70690000D01*
X80110759Y-72500000D02*
X81610759Y-72500000D01*
G04 #@! TO.C,Q2*
X111550000Y-40800000D02*
X110050000Y-40800000D01*
X110050000Y-40800000D02*
X110050000Y-42610000D01*
X110050000Y-42610000D02*
X104925000Y-42610000D01*
X111550000Y-51200000D02*
X110050000Y-51200000D01*
X110050000Y-51200000D02*
X110050000Y-49390000D01*
X110050000Y-49390000D02*
X108950000Y-49390000D01*
G04 #@! TO.C,R1*
X82471267Y-44310000D02*
X82128733Y-44310000D01*
X82471267Y-43290000D02*
X82128733Y-43290000D01*
G04 #@! TO.C,R2*
X82990000Y-46128733D02*
X82990000Y-46471267D01*
X84010000Y-46128733D02*
X84010000Y-46471267D01*
G04 #@! TO.C,R4*
X79071267Y-45190000D02*
X78728733Y-45190000D01*
X79071267Y-46210000D02*
X78728733Y-46210000D01*
G04 #@! TO.C,R5*
X78728733Y-46790000D02*
X79071267Y-46790000D01*
X78728733Y-47810000D02*
X79071267Y-47810000D01*
G04 #@! TO.C,R6*
X100107026Y-38356239D02*
X99764492Y-38356239D01*
X100107026Y-39376239D02*
X99764492Y-39376239D01*
G04 #@! TO.C,R7*
X100525759Y-41537506D02*
X100525759Y-41194972D01*
X101545759Y-41537506D02*
X101545759Y-41194972D01*
G04 #@! TO.C,R9*
X96607026Y-40156239D02*
X96264492Y-40156239D01*
X96607026Y-41176239D02*
X96264492Y-41176239D01*
G04 #@! TO.C,R10*
X96264492Y-41856239D02*
X96607026Y-41856239D01*
X96264492Y-42876239D02*
X96607026Y-42876239D01*
D13*
G04 #@! TO.C,F3*
X119715000Y-97435000D02*
X119715000Y-87705000D01*
X119715000Y-87705000D02*
X124745000Y-87705000D01*
X124745000Y-97435000D02*
X124745000Y-87705000D01*
X119715000Y-97435000D02*
X124745000Y-97435000D01*
D12*
G04 #@! TO.C,R8*
X108340000Y-51517936D02*
X108340000Y-55622064D01*
X104920000Y-51517936D02*
X104920000Y-55622064D01*
G04 #@! TO.C,R3*
X84777936Y-55960000D02*
X88882064Y-55960000D01*
X84777936Y-59380000D02*
X88882064Y-59380000D01*
G04 #@! TO.C,C10*
D14*
X93144285Y-63155714D02*
X93172857Y-63184285D01*
X93201428Y-63270000D01*
X93201428Y-63327142D01*
X93172857Y-63412857D01*
X93115714Y-63470000D01*
X93058571Y-63498571D01*
X92944285Y-63527142D01*
X92858571Y-63527142D01*
X92744285Y-63498571D01*
X92687142Y-63470000D01*
X92630000Y-63412857D01*
X92601428Y-63327142D01*
X92601428Y-63270000D01*
X92630000Y-63184285D01*
X92658571Y-63155714D01*
X93201428Y-62584285D02*
X93201428Y-62927142D01*
X93201428Y-62755714D02*
X92601428Y-62755714D01*
X92687142Y-62812857D01*
X92744285Y-62870000D01*
X92772857Y-62927142D01*
X92601428Y-62212857D02*
X92601428Y-62155714D01*
X92630000Y-62098571D01*
X92658571Y-62070000D01*
X92715714Y-62041428D01*
X92830000Y-62012857D01*
X92972857Y-62012857D01*
X93087142Y-62041428D01*
X93144285Y-62070000D01*
X93172857Y-62098571D01*
X93201428Y-62155714D01*
X93201428Y-62212857D01*
X93172857Y-62270000D01*
X93144285Y-62298571D01*
X93087142Y-62327142D01*
X92972857Y-62355714D01*
X92830000Y-62355714D01*
X92715714Y-62327142D01*
X92658571Y-62298571D01*
X92630000Y-62270000D01*
X92601428Y-62212857D01*
G04 #@! TO.C,C11*
X104544285Y-55355714D02*
X104572857Y-55384285D01*
X104601428Y-55470000D01*
X104601428Y-55527142D01*
X104572857Y-55612857D01*
X104515714Y-55670000D01*
X104458571Y-55698571D01*
X104344285Y-55727142D01*
X104258571Y-55727142D01*
X104144285Y-55698571D01*
X104087142Y-55670000D01*
X104030000Y-55612857D01*
X104001428Y-55527142D01*
X104001428Y-55470000D01*
X104030000Y-55384285D01*
X104058571Y-55355714D01*
X104601428Y-54784285D02*
X104601428Y-55127142D01*
X104601428Y-54955714D02*
X104001428Y-54955714D01*
X104087142Y-55012857D01*
X104144285Y-55070000D01*
X104172857Y-55127142D01*
X104601428Y-54212857D02*
X104601428Y-54555714D01*
X104601428Y-54384285D02*
X104001428Y-54384285D01*
X104087142Y-54441428D01*
X104144285Y-54498571D01*
X104172857Y-54555714D01*
G04 #@! TO.C,C6*
X91944285Y-55270000D02*
X91972857Y-55298571D01*
X92001428Y-55384285D01*
X92001428Y-55441428D01*
X91972857Y-55527142D01*
X91915714Y-55584285D01*
X91858571Y-55612857D01*
X91744285Y-55641428D01*
X91658571Y-55641428D01*
X91544285Y-55612857D01*
X91487142Y-55584285D01*
X91430000Y-55527142D01*
X91401428Y-55441428D01*
X91401428Y-55384285D01*
X91430000Y-55298571D01*
X91458571Y-55270000D01*
X91401428Y-54755714D02*
X91401428Y-54870000D01*
X91430000Y-54927142D01*
X91458571Y-54955714D01*
X91544285Y-55012857D01*
X91658571Y-55041428D01*
X91887142Y-55041428D01*
X91944285Y-55012857D01*
X91972857Y-54984285D01*
X92001428Y-54927142D01*
X92001428Y-54812857D01*
X91972857Y-54755714D01*
X91944285Y-54727142D01*
X91887142Y-54698571D01*
X91744285Y-54698571D01*
X91687142Y-54727142D01*
X91658571Y-54755714D01*
X91630000Y-54812857D01*
X91630000Y-54927142D01*
X91658571Y-54984285D01*
X91687142Y-55012857D01*
X91744285Y-55041428D01*
G04 #@! TO.C,C5*
X77544285Y-77970000D02*
X77572857Y-77998571D01*
X77601428Y-78084285D01*
X77601428Y-78141428D01*
X77572857Y-78227142D01*
X77515714Y-78284285D01*
X77458571Y-78312857D01*
X77344285Y-78341428D01*
X77258571Y-78341428D01*
X77144285Y-78312857D01*
X77087142Y-78284285D01*
X77030000Y-78227142D01*
X77001428Y-78141428D01*
X77001428Y-78084285D01*
X77030000Y-77998571D01*
X77058571Y-77970000D01*
X77001428Y-77427142D02*
X77001428Y-77712857D01*
X77287142Y-77741428D01*
X77258571Y-77712857D01*
X77230000Y-77655714D01*
X77230000Y-77512857D01*
X77258571Y-77455714D01*
X77287142Y-77427142D01*
X77344285Y-77398571D01*
X77487142Y-77398571D01*
X77544285Y-77427142D01*
X77572857Y-77455714D01*
X77601428Y-77512857D01*
X77601428Y-77655714D01*
X77572857Y-77712857D01*
X77544285Y-77741428D01*
G04 #@! TO.C,L2*
X107180000Y-77448571D02*
X106465714Y-77448571D01*
X106465714Y-75948571D01*
X107608571Y-76091428D02*
X107680000Y-76020000D01*
X107822857Y-75948571D01*
X108180000Y-75948571D01*
X108322857Y-76020000D01*
X108394285Y-76091428D01*
X108465714Y-76234285D01*
X108465714Y-76377142D01*
X108394285Y-76591428D01*
X107537142Y-77448571D01*
X108465714Y-77448571D01*
G04 #@! TO.C,U1*
X82472857Y-48741428D02*
X82472857Y-49227142D01*
X82501428Y-49284285D01*
X82530000Y-49312857D01*
X82587142Y-49341428D01*
X82701428Y-49341428D01*
X82758571Y-49312857D01*
X82787142Y-49284285D01*
X82815714Y-49227142D01*
X82815714Y-48741428D01*
X83415714Y-49341428D02*
X83072857Y-49341428D01*
X83244285Y-49341428D02*
X83244285Y-48741428D01*
X83187142Y-48827142D01*
X83130000Y-48884285D01*
X83072857Y-48912857D01*
G04 #@! TO.C,U2*
X99972857Y-43941428D02*
X99972857Y-44427142D01*
X100001428Y-44484285D01*
X100030000Y-44512857D01*
X100087142Y-44541428D01*
X100201428Y-44541428D01*
X100258571Y-44512857D01*
X100287142Y-44484285D01*
X100315714Y-44427142D01*
X100315714Y-43941428D01*
X100572857Y-43998571D02*
X100601428Y-43970000D01*
X100658571Y-43941428D01*
X100801428Y-43941428D01*
X100858571Y-43970000D01*
X100887142Y-43998571D01*
X100915714Y-44055714D01*
X100915714Y-44112857D01*
X100887142Y-44198571D01*
X100544285Y-44541428D01*
X100915714Y-44541428D01*
G04 #@! TO.C,C1*
X86144285Y-52070000D02*
X86172857Y-52098571D01*
X86201428Y-52184285D01*
X86201428Y-52241428D01*
X86172857Y-52327142D01*
X86115714Y-52384285D01*
X86058571Y-52412857D01*
X85944285Y-52441428D01*
X85858571Y-52441428D01*
X85744285Y-52412857D01*
X85687142Y-52384285D01*
X85630000Y-52327142D01*
X85601428Y-52241428D01*
X85601428Y-52184285D01*
X85630000Y-52098571D01*
X85658571Y-52070000D01*
X86201428Y-51498571D02*
X86201428Y-51841428D01*
X86201428Y-51670000D02*
X85601428Y-51670000D01*
X85687142Y-51727142D01*
X85744285Y-51784285D01*
X85772857Y-51841428D01*
G04 #@! TO.C,C2*
X81330000Y-56084285D02*
X81301428Y-56112857D01*
X81215714Y-56141428D01*
X81158571Y-56141428D01*
X81072857Y-56112857D01*
X81015714Y-56055714D01*
X80987142Y-55998571D01*
X80958571Y-55884285D01*
X80958571Y-55798571D01*
X80987142Y-55684285D01*
X81015714Y-55627142D01*
X81072857Y-55570000D01*
X81158571Y-55541428D01*
X81215714Y-55541428D01*
X81301428Y-55570000D01*
X81330000Y-55598571D01*
X81558571Y-55598571D02*
X81587142Y-55570000D01*
X81644285Y-55541428D01*
X81787142Y-55541428D01*
X81844285Y-55570000D01*
X81872857Y-55598571D01*
X81901428Y-55655714D01*
X81901428Y-55712857D01*
X81872857Y-55798571D01*
X81530000Y-56141428D01*
X81901428Y-56141428D01*
G04 #@! TO.C,C3*
X81144285Y-46370000D02*
X81172857Y-46398571D01*
X81201428Y-46484285D01*
X81201428Y-46541428D01*
X81172857Y-46627142D01*
X81115714Y-46684285D01*
X81058571Y-46712857D01*
X80944285Y-46741428D01*
X80858571Y-46741428D01*
X80744285Y-46712857D01*
X80687142Y-46684285D01*
X80630000Y-46627142D01*
X80601428Y-46541428D01*
X80601428Y-46484285D01*
X80630000Y-46398571D01*
X80658571Y-46370000D01*
X80601428Y-46170000D02*
X80601428Y-45798571D01*
X80830000Y-45998571D01*
X80830000Y-45912857D01*
X80858571Y-45855714D01*
X80887142Y-45827142D01*
X80944285Y-45798571D01*
X81087142Y-45798571D01*
X81144285Y-45827142D01*
X81172857Y-45855714D01*
X81201428Y-45912857D01*
X81201428Y-46084285D01*
X81172857Y-46141428D01*
X81144285Y-46170000D01*
G04 #@! TO.C,C4*
X76530000Y-44284285D02*
X76501428Y-44312857D01*
X76415714Y-44341428D01*
X76358571Y-44341428D01*
X76272857Y-44312857D01*
X76215714Y-44255714D01*
X76187142Y-44198571D01*
X76158571Y-44084285D01*
X76158571Y-43998571D01*
X76187142Y-43884285D01*
X76215714Y-43827142D01*
X76272857Y-43770000D01*
X76358571Y-43741428D01*
X76415714Y-43741428D01*
X76501428Y-43770000D01*
X76530000Y-43798571D01*
X77044285Y-43941428D02*
X77044285Y-44341428D01*
X76901428Y-43712857D02*
X76758571Y-44141428D01*
X77130000Y-44141428D01*
G04 #@! TO.C,C7*
X101730000Y-49984285D02*
X101701428Y-50012857D01*
X101615714Y-50041428D01*
X101558571Y-50041428D01*
X101472857Y-50012857D01*
X101415714Y-49955714D01*
X101387142Y-49898571D01*
X101358571Y-49784285D01*
X101358571Y-49698571D01*
X101387142Y-49584285D01*
X101415714Y-49527142D01*
X101472857Y-49470000D01*
X101558571Y-49441428D01*
X101615714Y-49441428D01*
X101701428Y-49470000D01*
X101730000Y-49498571D01*
X101930000Y-49441428D02*
X102330000Y-49441428D01*
X102072857Y-50041428D01*
G04 #@! TO.C,C8*
X98644285Y-41466239D02*
X98672857Y-41494810D01*
X98701428Y-41580524D01*
X98701428Y-41637667D01*
X98672857Y-41723381D01*
X98615714Y-41780524D01*
X98558571Y-41809096D01*
X98444285Y-41837667D01*
X98358571Y-41837667D01*
X98244285Y-41809096D01*
X98187142Y-41780524D01*
X98130000Y-41723381D01*
X98101428Y-41637667D01*
X98101428Y-41580524D01*
X98130000Y-41494810D01*
X98158571Y-41466239D01*
X98358571Y-41123381D02*
X98330000Y-41180524D01*
X98301428Y-41209096D01*
X98244285Y-41237667D01*
X98215714Y-41237667D01*
X98158571Y-41209096D01*
X98130000Y-41180524D01*
X98101428Y-41123381D01*
X98101428Y-41009096D01*
X98130000Y-40951953D01*
X98158571Y-40923381D01*
X98215714Y-40894810D01*
X98244285Y-40894810D01*
X98301428Y-40923381D01*
X98330000Y-40951953D01*
X98358571Y-41009096D01*
X98358571Y-41123381D01*
X98387142Y-41180524D01*
X98415714Y-41209096D01*
X98472857Y-41237667D01*
X98587142Y-41237667D01*
X98644285Y-41209096D01*
X98672857Y-41180524D01*
X98701428Y-41123381D01*
X98701428Y-41009096D01*
X98672857Y-40951953D01*
X98644285Y-40923381D01*
X98587142Y-40894810D01*
X98472857Y-40894810D01*
X98415714Y-40923381D01*
X98387142Y-40951953D01*
X98358571Y-41009096D01*
G04 #@! TO.C,C9*
X94130000Y-39184285D02*
X94101428Y-39212857D01*
X94015714Y-39241428D01*
X93958571Y-39241428D01*
X93872857Y-39212857D01*
X93815714Y-39155714D01*
X93787142Y-39098571D01*
X93758571Y-38984285D01*
X93758571Y-38898571D01*
X93787142Y-38784285D01*
X93815714Y-38727142D01*
X93872857Y-38670000D01*
X93958571Y-38641428D01*
X94015714Y-38641428D01*
X94101428Y-38670000D01*
X94130000Y-38698571D01*
X94415714Y-39241428D02*
X94530000Y-39241428D01*
X94587142Y-39212857D01*
X94615714Y-39184285D01*
X94672857Y-39098571D01*
X94701428Y-38984285D01*
X94701428Y-38755714D01*
X94672857Y-38698571D01*
X94644285Y-38670000D01*
X94587142Y-38641428D01*
X94472857Y-38641428D01*
X94415714Y-38670000D01*
X94387142Y-38698571D01*
X94358571Y-38755714D01*
X94358571Y-38898571D01*
X94387142Y-38955714D01*
X94415714Y-38984285D01*
X94472857Y-39012857D01*
X94587142Y-39012857D01*
X94644285Y-38984285D01*
X94672857Y-38955714D01*
X94701428Y-38898571D01*
G04 #@! TO.C,D1*
X73587142Y-59241428D02*
X73587142Y-58641428D01*
X73730000Y-58641428D01*
X73815714Y-58670000D01*
X73872857Y-58727142D01*
X73901428Y-58784285D01*
X73930000Y-58898571D01*
X73930000Y-58984285D01*
X73901428Y-59098571D01*
X73872857Y-59155714D01*
X73815714Y-59212857D01*
X73730000Y-59241428D01*
X73587142Y-59241428D01*
X74501428Y-59241428D02*
X74158571Y-59241428D01*
X74330000Y-59241428D02*
X74330000Y-58641428D01*
X74272857Y-58727142D01*
X74215714Y-58784285D01*
X74158571Y-58812857D01*
G04 #@! TO.C,D2*
X126401428Y-57412857D02*
X125801428Y-57412857D01*
X125801428Y-57270000D01*
X125830000Y-57184285D01*
X125887142Y-57127142D01*
X125944285Y-57098571D01*
X126058571Y-57070000D01*
X126144285Y-57070000D01*
X126258571Y-57098571D01*
X126315714Y-57127142D01*
X126372857Y-57184285D01*
X126401428Y-57270000D01*
X126401428Y-57412857D01*
X125858571Y-56841428D02*
X125830000Y-56812857D01*
X125801428Y-56755714D01*
X125801428Y-56612857D01*
X125830000Y-56555714D01*
X125858571Y-56527142D01*
X125915714Y-56498571D01*
X125972857Y-56498571D01*
X126058571Y-56527142D01*
X126401428Y-56870000D01*
X126401428Y-56498571D01*
G04 #@! TO.C,F1*
X78000000Y-92427142D02*
X77800000Y-92427142D01*
X77800000Y-92741428D02*
X77800000Y-92141428D01*
X78085714Y-92141428D01*
X78628571Y-92741428D02*
X78285714Y-92741428D01*
X78457142Y-92741428D02*
X78457142Y-92141428D01*
X78400000Y-92227142D01*
X78342857Y-92284285D01*
X78285714Y-92312857D01*
G04 #@! TO.C,F2*
X113387142Y-92870000D02*
X113387142Y-93070000D01*
X113701428Y-93070000D02*
X113101428Y-93070000D01*
X113101428Y-92784285D01*
X113158571Y-92584285D02*
X113130000Y-92555714D01*
X113101428Y-92498571D01*
X113101428Y-92355714D01*
X113130000Y-92298571D01*
X113158571Y-92270000D01*
X113215714Y-92241428D01*
X113272857Y-92241428D01*
X113358571Y-92270000D01*
X113701428Y-92612857D01*
X113701428Y-92241428D01*
G04 #@! TO.C,L1*
X86701428Y-78300000D02*
X86701428Y-78585714D01*
X86101428Y-78585714D01*
X86701428Y-77785714D02*
X86701428Y-78128571D01*
X86701428Y-77957142D02*
X86101428Y-77957142D01*
X86187142Y-78014285D01*
X86244285Y-78071428D01*
X86272857Y-78128571D01*
G04 #@! TO.C,Q1*
X84758571Y-67227142D02*
X84730000Y-67284285D01*
X84672857Y-67341428D01*
X84587142Y-67427142D01*
X84558571Y-67484285D01*
X84558571Y-67541428D01*
X84701428Y-67512857D02*
X84672857Y-67570000D01*
X84615714Y-67627142D01*
X84501428Y-67655714D01*
X84301428Y-67655714D01*
X84187142Y-67627142D01*
X84130000Y-67570000D01*
X84101428Y-67512857D01*
X84101428Y-67398571D01*
X84130000Y-67341428D01*
X84187142Y-67284285D01*
X84301428Y-67255714D01*
X84501428Y-67255714D01*
X84615714Y-67284285D01*
X84672857Y-67341428D01*
X84701428Y-67398571D01*
X84701428Y-67512857D01*
X84701428Y-66684285D02*
X84701428Y-67027142D01*
X84701428Y-66855714D02*
X84101428Y-66855714D01*
X84187142Y-66912857D01*
X84244285Y-66970000D01*
X84272857Y-67027142D01*
G04 #@! TO.C,Q2*
X107372857Y-42398571D02*
X107315714Y-42370000D01*
X107258571Y-42312857D01*
X107172857Y-42227142D01*
X107115714Y-42198571D01*
X107058571Y-42198571D01*
X107087142Y-42341428D02*
X107030000Y-42312857D01*
X106972857Y-42255714D01*
X106944285Y-42141428D01*
X106944285Y-41941428D01*
X106972857Y-41827142D01*
X107030000Y-41770000D01*
X107087142Y-41741428D01*
X107201428Y-41741428D01*
X107258571Y-41770000D01*
X107315714Y-41827142D01*
X107344285Y-41941428D01*
X107344285Y-42141428D01*
X107315714Y-42255714D01*
X107258571Y-42312857D01*
X107201428Y-42341428D01*
X107087142Y-42341428D01*
X107572857Y-41798571D02*
X107601428Y-41770000D01*
X107658571Y-41741428D01*
X107801428Y-41741428D01*
X107858571Y-41770000D01*
X107887142Y-41798571D01*
X107915714Y-41855714D01*
X107915714Y-41912857D01*
X107887142Y-41998571D01*
X107544285Y-42341428D01*
X107915714Y-42341428D01*
G04 #@! TO.C,R1*
X82230000Y-42941428D02*
X82030000Y-42655714D01*
X81887142Y-42941428D02*
X81887142Y-42341428D01*
X82115714Y-42341428D01*
X82172857Y-42370000D01*
X82201428Y-42398571D01*
X82230000Y-42455714D01*
X82230000Y-42541428D01*
X82201428Y-42598571D01*
X82172857Y-42627142D01*
X82115714Y-42655714D01*
X81887142Y-42655714D01*
X82801428Y-42941428D02*
X82458571Y-42941428D01*
X82630000Y-42941428D02*
X82630000Y-42341428D01*
X82572857Y-42427142D01*
X82515714Y-42484285D01*
X82458571Y-42512857D01*
G04 #@! TO.C,R2*
X84901428Y-46370000D02*
X84615714Y-46570000D01*
X84901428Y-46712857D02*
X84301428Y-46712857D01*
X84301428Y-46484285D01*
X84330000Y-46427142D01*
X84358571Y-46398571D01*
X84415714Y-46370000D01*
X84501428Y-46370000D01*
X84558571Y-46398571D01*
X84587142Y-46427142D01*
X84615714Y-46484285D01*
X84615714Y-46712857D01*
X84358571Y-46141428D02*
X84330000Y-46112857D01*
X84301428Y-46055714D01*
X84301428Y-45912857D01*
X84330000Y-45855714D01*
X84358571Y-45827142D01*
X84415714Y-45798571D01*
X84472857Y-45798571D01*
X84558571Y-45827142D01*
X84901428Y-46170000D01*
X84901428Y-45798571D01*
G04 #@! TO.C,R4*
X76630000Y-45941428D02*
X76430000Y-45655714D01*
X76287142Y-45941428D02*
X76287142Y-45341428D01*
X76515714Y-45341428D01*
X76572857Y-45370000D01*
X76601428Y-45398571D01*
X76630000Y-45455714D01*
X76630000Y-45541428D01*
X76601428Y-45598571D01*
X76572857Y-45627142D01*
X76515714Y-45655714D01*
X76287142Y-45655714D01*
X77144285Y-45541428D02*
X77144285Y-45941428D01*
X77001428Y-45312857D02*
X76858571Y-45741428D01*
X77230000Y-45741428D01*
G04 #@! TO.C,R5*
X76730000Y-47541428D02*
X76530000Y-47255714D01*
X76387142Y-47541428D02*
X76387142Y-46941428D01*
X76615714Y-46941428D01*
X76672857Y-46970000D01*
X76701428Y-46998571D01*
X76730000Y-47055714D01*
X76730000Y-47141428D01*
X76701428Y-47198571D01*
X76672857Y-47227142D01*
X76615714Y-47255714D01*
X76387142Y-47255714D01*
X77272857Y-46941428D02*
X76987142Y-46941428D01*
X76958571Y-47227142D01*
X76987142Y-47198571D01*
X77044285Y-47170000D01*
X77187142Y-47170000D01*
X77244285Y-47198571D01*
X77272857Y-47227142D01*
X77301428Y-47284285D01*
X77301428Y-47427142D01*
X77272857Y-47484285D01*
X77244285Y-47512857D01*
X77187142Y-47541428D01*
X77044285Y-47541428D01*
X76987142Y-47512857D01*
X76958571Y-47484285D01*
G04 #@! TO.C,R6*
X102130000Y-39141428D02*
X101930000Y-38855714D01*
X101787142Y-39141428D02*
X101787142Y-38541428D01*
X102015714Y-38541428D01*
X102072857Y-38570000D01*
X102101428Y-38598571D01*
X102130000Y-38655714D01*
X102130000Y-38741428D01*
X102101428Y-38798571D01*
X102072857Y-38827142D01*
X102015714Y-38855714D01*
X101787142Y-38855714D01*
X102644285Y-38541428D02*
X102530000Y-38541428D01*
X102472857Y-38570000D01*
X102444285Y-38598571D01*
X102387142Y-38684285D01*
X102358571Y-38798571D01*
X102358571Y-39027142D01*
X102387142Y-39084285D01*
X102415714Y-39112857D01*
X102472857Y-39141428D01*
X102587142Y-39141428D01*
X102644285Y-39112857D01*
X102672857Y-39084285D01*
X102701428Y-39027142D01*
X102701428Y-38884285D01*
X102672857Y-38827142D01*
X102644285Y-38798571D01*
X102587142Y-38770000D01*
X102472857Y-38770000D01*
X102415714Y-38798571D01*
X102387142Y-38827142D01*
X102358571Y-38884285D01*
G04 #@! TO.C,R7*
X102501428Y-41466239D02*
X102215714Y-41666239D01*
X102501428Y-41809096D02*
X101901428Y-41809096D01*
X101901428Y-41580524D01*
X101930000Y-41523381D01*
X101958571Y-41494810D01*
X102015714Y-41466239D01*
X102101428Y-41466239D01*
X102158571Y-41494810D01*
X102187142Y-41523381D01*
X102215714Y-41580524D01*
X102215714Y-41809096D01*
X101901428Y-41266239D02*
X101901428Y-40866239D01*
X102501428Y-41123381D01*
G04 #@! TO.C,R9*
X94030000Y-40941428D02*
X93830000Y-40655714D01*
X93687142Y-40941428D02*
X93687142Y-40341428D01*
X93915714Y-40341428D01*
X93972857Y-40370000D01*
X94001428Y-40398571D01*
X94030000Y-40455714D01*
X94030000Y-40541428D01*
X94001428Y-40598571D01*
X93972857Y-40627142D01*
X93915714Y-40655714D01*
X93687142Y-40655714D01*
X94315714Y-40941428D02*
X94430000Y-40941428D01*
X94487142Y-40912857D01*
X94515714Y-40884285D01*
X94572857Y-40798571D01*
X94601428Y-40684285D01*
X94601428Y-40455714D01*
X94572857Y-40398571D01*
X94544285Y-40370000D01*
X94487142Y-40341428D01*
X94372857Y-40341428D01*
X94315714Y-40370000D01*
X94287142Y-40398571D01*
X94258571Y-40455714D01*
X94258571Y-40598571D01*
X94287142Y-40655714D01*
X94315714Y-40684285D01*
X94372857Y-40712857D01*
X94487142Y-40712857D01*
X94544285Y-40684285D01*
X94572857Y-40655714D01*
X94601428Y-40598571D01*
G04 #@! TO.C,R10*
X93444285Y-42741428D02*
X93244285Y-42455714D01*
X93101428Y-42741428D02*
X93101428Y-42141428D01*
X93330000Y-42141428D01*
X93387142Y-42170000D01*
X93415714Y-42198571D01*
X93444285Y-42255714D01*
X93444285Y-42341428D01*
X93415714Y-42398571D01*
X93387142Y-42427142D01*
X93330000Y-42455714D01*
X93101428Y-42455714D01*
X94015714Y-42741428D02*
X93672857Y-42741428D01*
X93844285Y-42741428D02*
X93844285Y-42141428D01*
X93787142Y-42227142D01*
X93730000Y-42284285D01*
X93672857Y-42312857D01*
X94387142Y-42141428D02*
X94444285Y-42141428D01*
X94501428Y-42170000D01*
X94530000Y-42198571D01*
X94558571Y-42255714D01*
X94587142Y-42370000D01*
X94587142Y-42512857D01*
X94558571Y-42627142D01*
X94530000Y-42684285D01*
X94501428Y-42712857D01*
X94444285Y-42741428D01*
X94387142Y-42741428D01*
X94330000Y-42712857D01*
X94301428Y-42684285D01*
X94272857Y-42627142D01*
X94244285Y-42512857D01*
X94244285Y-42370000D01*
X94272857Y-42255714D01*
X94301428Y-42198571D01*
X94330000Y-42170000D01*
X94387142Y-42141428D01*
G04 #@! TO.C,F3*
X125487142Y-92770000D02*
X125487142Y-92970000D01*
X125801428Y-92970000D02*
X125201428Y-92970000D01*
X125201428Y-92684285D01*
X125201428Y-92512857D02*
X125201428Y-92141428D01*
X125430000Y-92341428D01*
X125430000Y-92255714D01*
X125458571Y-92198571D01*
X125487142Y-92170000D01*
X125544285Y-92141428D01*
X125687142Y-92141428D01*
X125744285Y-92170000D01*
X125772857Y-92198571D01*
X125801428Y-92255714D01*
X125801428Y-92427142D01*
X125772857Y-92484285D01*
X125744285Y-92512857D01*
G04 #@! TO.C,R8*
X109201428Y-53770000D02*
X108915714Y-53970000D01*
X109201428Y-54112857D02*
X108601428Y-54112857D01*
X108601428Y-53884285D01*
X108630000Y-53827142D01*
X108658571Y-53798571D01*
X108715714Y-53770000D01*
X108801428Y-53770000D01*
X108858571Y-53798571D01*
X108887142Y-53827142D01*
X108915714Y-53884285D01*
X108915714Y-54112857D01*
X108858571Y-53427142D02*
X108830000Y-53484285D01*
X108801428Y-53512857D01*
X108744285Y-53541428D01*
X108715714Y-53541428D01*
X108658571Y-53512857D01*
X108630000Y-53484285D01*
X108601428Y-53427142D01*
X108601428Y-53312857D01*
X108630000Y-53255714D01*
X108658571Y-53227142D01*
X108715714Y-53198571D01*
X108744285Y-53198571D01*
X108801428Y-53227142D01*
X108830000Y-53255714D01*
X108858571Y-53312857D01*
X108858571Y-53427142D01*
X108887142Y-53484285D01*
X108915714Y-53512857D01*
X108972857Y-53541428D01*
X109087142Y-53541428D01*
X109144285Y-53512857D01*
X109172857Y-53484285D01*
X109201428Y-53427142D01*
X109201428Y-53312857D01*
X109172857Y-53255714D01*
X109144285Y-53227142D01*
X109087142Y-53198571D01*
X108972857Y-53198571D01*
X108915714Y-53227142D01*
X108887142Y-53255714D01*
X108858571Y-53312857D01*
G04 #@! TO.C,R3*
D10*
X86663333Y-55502380D02*
X86330000Y-55026190D01*
X86091904Y-55502380D02*
X86091904Y-54502380D01*
X86472857Y-54502380D01*
X86568095Y-54550000D01*
X86615714Y-54597619D01*
X86663333Y-54692857D01*
X86663333Y-54835714D01*
X86615714Y-54930952D01*
X86568095Y-54978571D01*
X86472857Y-55026190D01*
X86091904Y-55026190D01*
X86996666Y-54502380D02*
X87615714Y-54502380D01*
X87282380Y-54883333D01*
X87425238Y-54883333D01*
X87520476Y-54930952D01*
X87568095Y-54978571D01*
X87615714Y-55073809D01*
X87615714Y-55311904D01*
X87568095Y-55407142D01*
X87520476Y-55454761D01*
X87425238Y-55502380D01*
X87139523Y-55502380D01*
X87044285Y-55454761D01*
X86996666Y-55407142D01*
G04 #@! TD*
M02*
