M48
;DRILL file {KiCad (5.0.1)-3} date 15-May-19 20:25:53
;FORMAT={-:-/ absolute / metric / decimal}
FMAT,2
METRIC,TZ
T1C0.400
T2C0.500
T3C0.800
T4C0.920
T5C1.400
T6C1.700
T7C2.200
T8C2.300
%
G90
G05
M71
T1
X69.93Y-44.17
X69.93Y-78.17
X69.93Y-83.17
X69.93Y-88.17
X69.93Y-93.17
X69.93Y-98.17
X69.93Y-103.17
X70.93Y-58.17
X70.93Y-74.17
X71.061Y-47.071
X71.061Y-48.071
X71.061Y-49.071
X71.061Y-50.071
X71.93Y-76.17
X72.061Y-47.071
X72.061Y-48.071
X72.061Y-49.071
X72.061Y-50.071
X72.93Y-58.17
X73.061Y-47.071
X73.061Y-48.071
X73.061Y-49.071
X73.061Y-50.071
X73.46Y-98.37
X73.93Y-60.17
X74.061Y-47.071
X74.061Y-48.071
X74.061Y-49.071
X74.061Y-50.071
X74.26Y-99.77
X74.93Y-41.17
X74.93Y-44.17
X74.93Y-58.17
X74.93Y-83.17
X74.93Y-88.17
X74.93Y-108.17
X74.951Y-38.17
X75.06Y-98.37
X75.061Y-47.071
X75.061Y-48.071
X75.061Y-49.071
X75.061Y-50.071
X75.86Y-99.77
X75.93Y-74.17
X75.93Y-76.17
X76.061Y-47.071
X76.061Y-48.071
X76.061Y-49.071
X76.061Y-50.071
X76.66Y-98.37
X77.061Y-48.071
X77.061Y-49.071
X77.061Y-50.071
X77.93Y-76.17
X78.061Y-49.071
X78.061Y-50.071
X79.011Y-56.871
X79.93Y-38.17
X79.93Y-41.17
X79.93Y-108.17
X80.461Y-56.871
X80.63Y-60.07
X81.33Y-58.27
X82.93Y-72.17
X83.93Y-78.17
X84.93Y-38.17
X84.93Y-41.17
X84.93Y-44.17
X84.93Y-93.17
X84.93Y-98.17
X85.93Y-72.17
X89.93Y-38.17
X89.93Y-41.17
X89.93Y-50.67
X89.93Y-103.17
X89.93Y-108.17
X90.Y-44.
X90.Y-45.
X90.Y-46.
X90.Y-47.
X90.Y-48.
X90.Y-49.
X91.Y-44.
X91.Y-45.
X91.Y-46.
X91.Y-47.
X91.Y-48.
X91.Y-49.
X92.Y-44.
X92.Y-45.
X92.Y-46.
X92.Y-47.
X92.Y-48.
X92.Y-49.
X93.Y-44.
X93.Y-45.
X93.Y-46.
X93.Y-47.
X93.Y-48.
X93.Y-49.
X93.46Y-57.17
X93.66Y-55.37
X93.86Y-59.37
X93.93Y-50.47
X94.Y-44.
X94.Y-45.
X94.Y-46.
X94.Y-47.
X94.Y-48.
X94.Y-49.
X94.46Y-60.97
X94.46Y-62.37
X94.93Y-73.17
X94.93Y-78.17
X94.93Y-83.17
X94.93Y-88.17
X94.93Y-93.17
X94.93Y-98.17
X94.93Y-103.17
X94.93Y-108.17
X95.Y-44.
X95.Y-45.
X95.Y-46.
X95.Y-47.
X95.Y-48.
X95.Y-49.
X96.43Y-50.47
X96.93Y-55.37
X96.93Y-56.77
X96.93Y-58.37
X97.061Y-49.371
X97.43Y-75.67
X97.43Y-80.67
X97.43Y-85.67
X98.06Y-60.17
X98.06Y-62.17
X98.93Y-55.37
X98.93Y-56.77
X98.93Y-58.37
X99.861Y-47.406
X99.93Y-78.17
X99.93Y-83.17
X99.93Y-88.17
X99.93Y-103.17
X99.93Y-108.17
X102.43Y-80.67
X102.43Y-85.67
X102.93Y-43.17
X102.93Y-46.17
X102.93Y-48.17
X102.93Y-56.97
X103.93Y-41.17
X104.93Y-39.17
X104.93Y-93.17
X104.93Y-98.17
X104.93Y-103.17
X104.93Y-108.17
X105.93Y-41.17
X105.93Y-46.17
X107.161Y-44.771
X108.13Y-61.07
X108.93Y-46.17
X108.93Y-50.07
X109.93Y-38.17
X109.93Y-103.17
X109.93Y-108.17
X114.63Y-98.57
X114.93Y-38.17
X114.93Y-70.67
X114.93Y-108.17
X116.13Y-98.57
X117.43Y-65.67
X117.43Y-73.17
X117.63Y-98.57
X119.13Y-98.57
X119.13Y-100.07
X119.13Y-101.57
X119.13Y-103.07
X119.43Y-94.17
X119.43Y-95.67
X119.43Y-97.17
X119.93Y-38.17
X119.93Y-68.17
X119.93Y-70.67
X119.93Y-75.67
X120.63Y-98.57
X120.63Y-100.07
X120.63Y-101.57
X120.63Y-103.07
X122.13Y-98.57
X122.43Y-40.67
X122.43Y-45.67
X122.43Y-50.67
X122.43Y-55.67
X122.43Y-73.17
X122.43Y-78.17
X123.63Y-98.57
X124.93Y-38.17
X124.93Y-43.17
X124.93Y-48.17
X124.93Y-53.17
X124.93Y-68.17
X124.93Y-70.67
X124.93Y-75.67
X124.93Y-80.67
X124.93Y-105.67
X127.43Y-43.17
X127.43Y-48.17
X127.43Y-53.17
X127.43Y-58.17
X127.43Y-63.17
X127.43Y-68.17
X127.43Y-73.17
X127.43Y-78.17
X127.43Y-83.17
X127.43Y-88.17
X127.43Y-93.17
X127.43Y-98.17
X127.43Y-103.17
X127.43Y-108.17
X67.35Y-39.
X67.833Y-37.833
X67.833Y-40.167
X69.Y-37.35
X69.Y-40.65
X70.167Y-37.833
X70.167Y-40.167
X70.65Y-39.
X98.35Y-96.
X98.833Y-94.833
X98.833Y-97.167
X100.Y-94.35
X100.Y-97.65
X101.167Y-94.833
X101.167Y-97.167
X101.65Y-96.
X129.35Y-39.
X129.833Y-37.833
X129.833Y-40.167
X131.Y-37.35
X131.Y-40.65
X132.167Y-37.833
X132.167Y-40.167
X132.65Y-39.
T2
X80.03Y-50.48
X80.97Y-51.32
X97.566Y-45.546
X98.506Y-46.386
T3
X80.Y-51.3
X81.Y-50.5
X97.536Y-46.366
X98.536Y-45.566
T4
X75.Y-102.
X75.Y-104.62
X77.5Y-102.
X77.5Y-104.62
X79.5Y-102.
X79.5Y-104.62
X82.Y-102.
X82.Y-104.62
T5
X111.Y-93.96
X111.Y-99.04
X89.Y-93.96
X89.Y-99.04
T6
X116.698Y-101.612
X120.Y-107.2
X123.302Y-101.612
T7
X69.Y-39.
X100.Y-96.
X131.Y-39.
T8
X71.93Y-101.65
X71.93Y-107.33
X85.07Y-101.65
X85.07Y-107.33
T0
M30
