G04 #@! TF.GenerationSoftware,KiCad,Pcbnew,(5.1.2)-2*
G04 #@! TF.CreationDate,2019-06-29T18:25:01+02:00*
G04 #@! TF.ProjectId,Milwaukee_USB_charger,4d696c77-6175-46b6-9565-5f5553425f63,rev?*
G04 #@! TF.SameCoordinates,Original*
G04 #@! TF.FileFunction,Legend,Bot*
G04 #@! TF.FilePolarity,Positive*
%FSLAX46Y46*%
G04 Gerber Fmt 4.6, Leading zero omitted, Abs format (unit mm)*
G04 Created by KiCad (PCBNEW (5.1.2)-2) date 2019-06-29 18:25:01*
%MOMM*%
%LPD*%
G04 APERTURE LIST*
%ADD10C,0.200000*%
%ADD11C,0.300000*%
G04 APERTURE END LIST*
D10*
X110619047Y-70872380D02*
X110619047Y-69872380D01*
X110285714Y-70586666D01*
X109952380Y-69872380D01*
X109952380Y-70872380D01*
X109476190Y-70872380D02*
X109476190Y-70205714D01*
X109476190Y-69872380D02*
X109523809Y-69920000D01*
X109476190Y-69967619D01*
X109428571Y-69920000D01*
X109476190Y-69872380D01*
X109476190Y-69967619D01*
X108857142Y-70872380D02*
X108952380Y-70824761D01*
X109000000Y-70729523D01*
X109000000Y-69872380D01*
X108571428Y-70205714D02*
X108380952Y-70872380D01*
X108190476Y-70396190D01*
X108000000Y-70872380D01*
X107809523Y-70205714D01*
X107000000Y-70872380D02*
X107000000Y-70348571D01*
X107047619Y-70253333D01*
X107142857Y-70205714D01*
X107333333Y-70205714D01*
X107428571Y-70253333D01*
X107000000Y-70824761D02*
X107095238Y-70872380D01*
X107333333Y-70872380D01*
X107428571Y-70824761D01*
X107476190Y-70729523D01*
X107476190Y-70634285D01*
X107428571Y-70539047D01*
X107333333Y-70491428D01*
X107095238Y-70491428D01*
X107000000Y-70443809D01*
X106095238Y-70205714D02*
X106095238Y-70872380D01*
X106523809Y-70205714D02*
X106523809Y-70729523D01*
X106476190Y-70824761D01*
X106380952Y-70872380D01*
X106238095Y-70872380D01*
X106142857Y-70824761D01*
X106095238Y-70777142D01*
X105619047Y-70872380D02*
X105619047Y-69872380D01*
X105523809Y-70491428D02*
X105238095Y-70872380D01*
X105238095Y-70205714D02*
X105619047Y-70586666D01*
X104428571Y-70824761D02*
X104523809Y-70872380D01*
X104714285Y-70872380D01*
X104809523Y-70824761D01*
X104857142Y-70729523D01*
X104857142Y-70348571D01*
X104809523Y-70253333D01*
X104714285Y-70205714D01*
X104523809Y-70205714D01*
X104428571Y-70253333D01*
X104380952Y-70348571D01*
X104380952Y-70443809D01*
X104857142Y-70539047D01*
X103571428Y-70824761D02*
X103666666Y-70872380D01*
X103857142Y-70872380D01*
X103952380Y-70824761D01*
X104000000Y-70729523D01*
X104000000Y-70348571D01*
X103952380Y-70253333D01*
X103857142Y-70205714D01*
X103666666Y-70205714D01*
X103571428Y-70253333D01*
X103523809Y-70348571D01*
X103523809Y-70443809D01*
X104000000Y-70539047D01*
X103333333Y-70967619D02*
X102571428Y-70967619D01*
X102333333Y-69872380D02*
X102333333Y-70681904D01*
X102285714Y-70777142D01*
X102238095Y-70824761D01*
X102142857Y-70872380D01*
X101952380Y-70872380D01*
X101857142Y-70824761D01*
X101809523Y-70777142D01*
X101761904Y-70681904D01*
X101761904Y-69872380D01*
X101333333Y-70824761D02*
X101190476Y-70872380D01*
X100952380Y-70872380D01*
X100857142Y-70824761D01*
X100809523Y-70777142D01*
X100761904Y-70681904D01*
X100761904Y-70586666D01*
X100809523Y-70491428D01*
X100857142Y-70443809D01*
X100952380Y-70396190D01*
X101142857Y-70348571D01*
X101238095Y-70300952D01*
X101285714Y-70253333D01*
X101333333Y-70158095D01*
X101333333Y-70062857D01*
X101285714Y-69967619D01*
X101238095Y-69920000D01*
X101142857Y-69872380D01*
X100904761Y-69872380D01*
X100761904Y-69920000D01*
X100000000Y-70348571D02*
X99857142Y-70396190D01*
X99809523Y-70443809D01*
X99761904Y-70539047D01*
X99761904Y-70681904D01*
X99809523Y-70777142D01*
X99857142Y-70824761D01*
X99952380Y-70872380D01*
X100333333Y-70872380D01*
X100333333Y-69872380D01*
X100000000Y-69872380D01*
X99904761Y-69920000D01*
X99857142Y-69967619D01*
X99809523Y-70062857D01*
X99809523Y-70158095D01*
X99857142Y-70253333D01*
X99904761Y-70300952D01*
X100000000Y-70348571D01*
X100333333Y-70348571D01*
X99571428Y-70967619D02*
X98809523Y-70967619D01*
X98142857Y-70824761D02*
X98238095Y-70872380D01*
X98428571Y-70872380D01*
X98523809Y-70824761D01*
X98571428Y-70777142D01*
X98619047Y-70681904D01*
X98619047Y-70396190D01*
X98571428Y-70300952D01*
X98523809Y-70253333D01*
X98428571Y-70205714D01*
X98238095Y-70205714D01*
X98142857Y-70253333D01*
X97714285Y-70872380D02*
X97714285Y-69872380D01*
X97285714Y-70872380D02*
X97285714Y-70348571D01*
X97333333Y-70253333D01*
X97428571Y-70205714D01*
X97571428Y-70205714D01*
X97666666Y-70253333D01*
X97714285Y-70300952D01*
X96380952Y-70872380D02*
X96380952Y-70348571D01*
X96428571Y-70253333D01*
X96523809Y-70205714D01*
X96714285Y-70205714D01*
X96809523Y-70253333D01*
X96380952Y-70824761D02*
X96476190Y-70872380D01*
X96714285Y-70872380D01*
X96809523Y-70824761D01*
X96857142Y-70729523D01*
X96857142Y-70634285D01*
X96809523Y-70539047D01*
X96714285Y-70491428D01*
X96476190Y-70491428D01*
X96380952Y-70443809D01*
X95904761Y-70872380D02*
X95904761Y-70205714D01*
X95904761Y-70396190D02*
X95857142Y-70300952D01*
X95809523Y-70253333D01*
X95714285Y-70205714D01*
X95619047Y-70205714D01*
X94857142Y-70205714D02*
X94857142Y-71015238D01*
X94904761Y-71110476D01*
X94952380Y-71158095D01*
X95047619Y-71205714D01*
X95190476Y-71205714D01*
X95285714Y-71158095D01*
X94857142Y-70824761D02*
X94952380Y-70872380D01*
X95142857Y-70872380D01*
X95238095Y-70824761D01*
X95285714Y-70777142D01*
X95333333Y-70681904D01*
X95333333Y-70396190D01*
X95285714Y-70300952D01*
X95238095Y-70253333D01*
X95142857Y-70205714D01*
X94952380Y-70205714D01*
X94857142Y-70253333D01*
X94000000Y-70824761D02*
X94095238Y-70872380D01*
X94285714Y-70872380D01*
X94380952Y-70824761D01*
X94428571Y-70729523D01*
X94428571Y-70348571D01*
X94380952Y-70253333D01*
X94285714Y-70205714D01*
X94095238Y-70205714D01*
X94000000Y-70253333D01*
X93952380Y-70348571D01*
X93952380Y-70443809D01*
X94428571Y-70539047D01*
X93523809Y-70872380D02*
X93523809Y-70205714D01*
X93523809Y-70396190D02*
X93476190Y-70300952D01*
X93428571Y-70253333D01*
X93333333Y-70205714D01*
X93238095Y-70205714D01*
X93142857Y-70967619D02*
X92380952Y-70967619D01*
X92142857Y-70872380D02*
X92142857Y-70205714D01*
X92142857Y-70396190D02*
X92095238Y-70300952D01*
X92047619Y-70253333D01*
X91952380Y-70205714D01*
X91857142Y-70205714D01*
X91142857Y-70824761D02*
X91238095Y-70872380D01*
X91428571Y-70872380D01*
X91523809Y-70824761D01*
X91571428Y-70729523D01*
X91571428Y-70348571D01*
X91523809Y-70253333D01*
X91428571Y-70205714D01*
X91238095Y-70205714D01*
X91142857Y-70253333D01*
X91095238Y-70348571D01*
X91095238Y-70443809D01*
X91571428Y-70539047D01*
X90761904Y-70205714D02*
X90523809Y-70872380D01*
X90285714Y-70205714D01*
X89571428Y-70348571D02*
X89428571Y-70396190D01*
X89380952Y-70443809D01*
X89333333Y-70539047D01*
X89333333Y-70681904D01*
X89380952Y-70777142D01*
X89428571Y-70824761D01*
X89523809Y-70872380D01*
X89904761Y-70872380D01*
X89904761Y-69872380D01*
X89571428Y-69872380D01*
X89476190Y-69920000D01*
X89428571Y-69967619D01*
X89380952Y-70062857D01*
X89380952Y-70158095D01*
X89428571Y-70253333D01*
X89476190Y-70300952D01*
X89571428Y-70348571D01*
X89904761Y-70348571D01*
X119500000Y-72572380D02*
X119500000Y-71572380D01*
X119071428Y-72572380D02*
X119071428Y-72048571D01*
X119119047Y-71953333D01*
X119214285Y-71905714D01*
X119357142Y-71905714D01*
X119452380Y-71953333D01*
X119500000Y-72000952D01*
X118738095Y-71905714D02*
X118357142Y-71905714D01*
X118595238Y-71572380D02*
X118595238Y-72429523D01*
X118547619Y-72524761D01*
X118452380Y-72572380D01*
X118357142Y-72572380D01*
X118166666Y-71905714D02*
X117785714Y-71905714D01*
X118023809Y-71572380D02*
X118023809Y-72429523D01*
X117976190Y-72524761D01*
X117880952Y-72572380D01*
X117785714Y-72572380D01*
X117452380Y-71905714D02*
X117452380Y-72905714D01*
X117452380Y-71953333D02*
X117357142Y-71905714D01*
X117166666Y-71905714D01*
X117071428Y-71953333D01*
X117023809Y-72000952D01*
X116976190Y-72096190D01*
X116976190Y-72381904D01*
X117023809Y-72477142D01*
X117071428Y-72524761D01*
X117166666Y-72572380D01*
X117357142Y-72572380D01*
X117452380Y-72524761D01*
X116595238Y-72524761D02*
X116500000Y-72572380D01*
X116309523Y-72572380D01*
X116214285Y-72524761D01*
X116166666Y-72429523D01*
X116166666Y-72381904D01*
X116214285Y-72286666D01*
X116309523Y-72239047D01*
X116452380Y-72239047D01*
X116547619Y-72191428D01*
X116595238Y-72096190D01*
X116595238Y-72048571D01*
X116547619Y-71953333D01*
X116452380Y-71905714D01*
X116309523Y-71905714D01*
X116214285Y-71953333D01*
X115738095Y-72477142D02*
X115690476Y-72524761D01*
X115738095Y-72572380D01*
X115785714Y-72524761D01*
X115738095Y-72477142D01*
X115738095Y-72572380D01*
X115738095Y-71953333D02*
X115690476Y-72000952D01*
X115738095Y-72048571D01*
X115785714Y-72000952D01*
X115738095Y-71953333D01*
X115738095Y-72048571D01*
X114547619Y-71524761D02*
X115404761Y-72810476D01*
X113500000Y-71524761D02*
X114357142Y-72810476D01*
X112738095Y-71905714D02*
X112738095Y-72715238D01*
X112785714Y-72810476D01*
X112833333Y-72858095D01*
X112928571Y-72905714D01*
X113071428Y-72905714D01*
X113166666Y-72858095D01*
X112738095Y-72524761D02*
X112833333Y-72572380D01*
X113023809Y-72572380D01*
X113119047Y-72524761D01*
X113166666Y-72477142D01*
X113214285Y-72381904D01*
X113214285Y-72096190D01*
X113166666Y-72000952D01*
X113119047Y-71953333D01*
X113023809Y-71905714D01*
X112833333Y-71905714D01*
X112738095Y-71953333D01*
X112261904Y-72572380D02*
X112261904Y-71905714D01*
X112261904Y-71572380D02*
X112309523Y-71620000D01*
X112261904Y-71667619D01*
X112214285Y-71620000D01*
X112261904Y-71572380D01*
X112261904Y-71667619D01*
X111928571Y-71905714D02*
X111547619Y-71905714D01*
X111785714Y-71572380D02*
X111785714Y-72429523D01*
X111738095Y-72524761D01*
X111642857Y-72572380D01*
X111547619Y-72572380D01*
X111214285Y-72572380D02*
X111214285Y-71572380D01*
X110785714Y-72572380D02*
X110785714Y-72048571D01*
X110833333Y-71953333D01*
X110928571Y-71905714D01*
X111071428Y-71905714D01*
X111166666Y-71953333D01*
X111214285Y-72000952D01*
X109880952Y-71905714D02*
X109880952Y-72572380D01*
X110309523Y-71905714D02*
X110309523Y-72429523D01*
X110261904Y-72524761D01*
X110166666Y-72572380D01*
X110023809Y-72572380D01*
X109928571Y-72524761D01*
X109880952Y-72477142D01*
X109404761Y-72572380D02*
X109404761Y-71572380D01*
X109404761Y-71953333D02*
X109309523Y-71905714D01*
X109119047Y-71905714D01*
X109023809Y-71953333D01*
X108976190Y-72000952D01*
X108928571Y-72096190D01*
X108928571Y-72381904D01*
X108976190Y-72477142D01*
X109023809Y-72524761D01*
X109119047Y-72572380D01*
X109309523Y-72572380D01*
X109404761Y-72524761D01*
X108500000Y-72477142D02*
X108452380Y-72524761D01*
X108500000Y-72572380D01*
X108547619Y-72524761D01*
X108500000Y-72477142D01*
X108500000Y-72572380D01*
X107595238Y-72524761D02*
X107690476Y-72572380D01*
X107880952Y-72572380D01*
X107976190Y-72524761D01*
X108023809Y-72477142D01*
X108071428Y-72381904D01*
X108071428Y-72096190D01*
X108023809Y-72000952D01*
X107976190Y-71953333D01*
X107880952Y-71905714D01*
X107690476Y-71905714D01*
X107595238Y-71953333D01*
X107023809Y-72572380D02*
X107119047Y-72524761D01*
X107166666Y-72477142D01*
X107214285Y-72381904D01*
X107214285Y-72096190D01*
X107166666Y-72000952D01*
X107119047Y-71953333D01*
X107023809Y-71905714D01*
X106880952Y-71905714D01*
X106785714Y-71953333D01*
X106738095Y-72000952D01*
X106690476Y-72096190D01*
X106690476Y-72381904D01*
X106738095Y-72477142D01*
X106785714Y-72524761D01*
X106880952Y-72572380D01*
X107023809Y-72572380D01*
X106261904Y-72572380D02*
X106261904Y-71905714D01*
X106261904Y-72000952D02*
X106214285Y-71953333D01*
X106119047Y-71905714D01*
X105976190Y-71905714D01*
X105880952Y-71953333D01*
X105833333Y-72048571D01*
X105833333Y-72572380D01*
X105833333Y-72048571D02*
X105785714Y-71953333D01*
X105690476Y-71905714D01*
X105547619Y-71905714D01*
X105452380Y-71953333D01*
X105404761Y-72048571D01*
X105404761Y-72572380D01*
X104214285Y-71524761D02*
X105071428Y-72810476D01*
X104023809Y-71572380D02*
X103452380Y-71572380D01*
X103738095Y-72572380D02*
X103738095Y-71572380D01*
X102690476Y-72572380D02*
X102690476Y-72048571D01*
X102738095Y-71953333D01*
X102833333Y-71905714D01*
X103023809Y-71905714D01*
X103119047Y-71953333D01*
X102690476Y-72524761D02*
X102785714Y-72572380D01*
X103023809Y-72572380D01*
X103119047Y-72524761D01*
X103166666Y-72429523D01*
X103166666Y-72334285D01*
X103119047Y-72239047D01*
X103023809Y-72191428D01*
X102785714Y-72191428D01*
X102690476Y-72143809D01*
X102071428Y-72572380D02*
X102166666Y-72524761D01*
X102214285Y-72429523D01*
X102214285Y-71572380D01*
X101785714Y-71905714D02*
X101595238Y-72572380D01*
X101404761Y-72096190D01*
X101214285Y-72572380D01*
X101023809Y-71905714D01*
X100738095Y-71572380D02*
X100119047Y-71572380D01*
X100452380Y-71953333D01*
X100309523Y-71953333D01*
X100214285Y-72000952D01*
X100166666Y-72048571D01*
X100119047Y-72143809D01*
X100119047Y-72381904D01*
X100166666Y-72477142D01*
X100214285Y-72524761D01*
X100309523Y-72572380D01*
X100595238Y-72572380D01*
X100690476Y-72524761D01*
X100738095Y-72477142D01*
X99261904Y-71905714D02*
X99261904Y-72715238D01*
X99309523Y-72810476D01*
X99357142Y-72858095D01*
X99452380Y-72905714D01*
X99595238Y-72905714D01*
X99690476Y-72858095D01*
X99261904Y-72524761D02*
X99357142Y-72572380D01*
X99547619Y-72572380D01*
X99642857Y-72524761D01*
X99690476Y-72477142D01*
X99738095Y-72381904D01*
X99738095Y-72096190D01*
X99690476Y-72000952D01*
X99642857Y-71953333D01*
X99547619Y-71905714D01*
X99357142Y-71905714D01*
X99261904Y-71953333D01*
X98071428Y-71524761D02*
X98928571Y-72810476D01*
X97738095Y-72572380D02*
X97738095Y-71572380D01*
X97404761Y-72286666D01*
X97071428Y-71572380D01*
X97071428Y-72572380D01*
X96595238Y-72572380D02*
X96595238Y-71905714D01*
X96595238Y-71572380D02*
X96642857Y-71620000D01*
X96595238Y-71667619D01*
X96547619Y-71620000D01*
X96595238Y-71572380D01*
X96595238Y-71667619D01*
X95976190Y-72572380D02*
X96071428Y-72524761D01*
X96119047Y-72429523D01*
X96119047Y-71572380D01*
X95690476Y-71905714D02*
X95500000Y-72572380D01*
X95309523Y-72096190D01*
X95119047Y-72572380D01*
X94928571Y-71905714D01*
X94119047Y-72572380D02*
X94119047Y-72048571D01*
X94166666Y-71953333D01*
X94261904Y-71905714D01*
X94452380Y-71905714D01*
X94547619Y-71953333D01*
X94119047Y-72524761D02*
X94214285Y-72572380D01*
X94452380Y-72572380D01*
X94547619Y-72524761D01*
X94595238Y-72429523D01*
X94595238Y-72334285D01*
X94547619Y-72239047D01*
X94452380Y-72191428D01*
X94214285Y-72191428D01*
X94119047Y-72143809D01*
X93214285Y-71905714D02*
X93214285Y-72572380D01*
X93642857Y-71905714D02*
X93642857Y-72429523D01*
X93595238Y-72524761D01*
X93500000Y-72572380D01*
X93357142Y-72572380D01*
X93261904Y-72524761D01*
X93214285Y-72477142D01*
X92738095Y-72572380D02*
X92738095Y-71572380D01*
X92642857Y-72191428D02*
X92357142Y-72572380D01*
X92357142Y-71905714D02*
X92738095Y-72286666D01*
X91547619Y-72524761D02*
X91642857Y-72572380D01*
X91833333Y-72572380D01*
X91928571Y-72524761D01*
X91976190Y-72429523D01*
X91976190Y-72048571D01*
X91928571Y-71953333D01*
X91833333Y-71905714D01*
X91642857Y-71905714D01*
X91547619Y-71953333D01*
X91500000Y-72048571D01*
X91500000Y-72143809D01*
X91976190Y-72239047D01*
X90690476Y-72524761D02*
X90785714Y-72572380D01*
X90976190Y-72572380D01*
X91071428Y-72524761D01*
X91119047Y-72429523D01*
X91119047Y-72048571D01*
X91071428Y-71953333D01*
X90976190Y-71905714D01*
X90785714Y-71905714D01*
X90690476Y-71953333D01*
X90642857Y-72048571D01*
X90642857Y-72143809D01*
X91119047Y-72239047D01*
X90452380Y-72667619D02*
X89690476Y-72667619D01*
X89452380Y-71572380D02*
X89452380Y-72381904D01*
X89404761Y-72477142D01*
X89357142Y-72524761D01*
X89261904Y-72572380D01*
X89071428Y-72572380D01*
X88976190Y-72524761D01*
X88928571Y-72477142D01*
X88880952Y-72381904D01*
X88880952Y-71572380D01*
X88452380Y-72524761D02*
X88309523Y-72572380D01*
X88071428Y-72572380D01*
X87976190Y-72524761D01*
X87928571Y-72477142D01*
X87880952Y-72381904D01*
X87880952Y-72286666D01*
X87928571Y-72191428D01*
X87976190Y-72143809D01*
X88071428Y-72096190D01*
X88261904Y-72048571D01*
X88357142Y-72000952D01*
X88404761Y-71953333D01*
X88452380Y-71858095D01*
X88452380Y-71762857D01*
X88404761Y-71667619D01*
X88357142Y-71620000D01*
X88261904Y-71572380D01*
X88023809Y-71572380D01*
X87880952Y-71620000D01*
X87119047Y-72048571D02*
X86976190Y-72096190D01*
X86928571Y-72143809D01*
X86880952Y-72239047D01*
X86880952Y-72381904D01*
X86928571Y-72477142D01*
X86976190Y-72524761D01*
X87071428Y-72572380D01*
X87452380Y-72572380D01*
X87452380Y-71572380D01*
X87119047Y-71572380D01*
X87023809Y-71620000D01*
X86976190Y-71667619D01*
X86928571Y-71762857D01*
X86928571Y-71858095D01*
X86976190Y-71953333D01*
X87023809Y-72000952D01*
X87119047Y-72048571D01*
X87452380Y-72048571D01*
X86690476Y-72667619D02*
X85928571Y-72667619D01*
X85261904Y-72524761D02*
X85357142Y-72572380D01*
X85547619Y-72572380D01*
X85642857Y-72524761D01*
X85690476Y-72477142D01*
X85738095Y-72381904D01*
X85738095Y-72096190D01*
X85690476Y-72000952D01*
X85642857Y-71953333D01*
X85547619Y-71905714D01*
X85357142Y-71905714D01*
X85261904Y-71953333D01*
X84833333Y-72572380D02*
X84833333Y-71572380D01*
X84404761Y-72572380D02*
X84404761Y-72048571D01*
X84452380Y-71953333D01*
X84547619Y-71905714D01*
X84690476Y-71905714D01*
X84785714Y-71953333D01*
X84833333Y-72000952D01*
X83500000Y-72572380D02*
X83500000Y-72048571D01*
X83547619Y-71953333D01*
X83642857Y-71905714D01*
X83833333Y-71905714D01*
X83928571Y-71953333D01*
X83500000Y-72524761D02*
X83595238Y-72572380D01*
X83833333Y-72572380D01*
X83928571Y-72524761D01*
X83976190Y-72429523D01*
X83976190Y-72334285D01*
X83928571Y-72239047D01*
X83833333Y-72191428D01*
X83595238Y-72191428D01*
X83500000Y-72143809D01*
X83023809Y-72572380D02*
X83023809Y-71905714D01*
X83023809Y-72096190D02*
X82976190Y-72000952D01*
X82928571Y-71953333D01*
X82833333Y-71905714D01*
X82738095Y-71905714D01*
X81976190Y-71905714D02*
X81976190Y-72715238D01*
X82023809Y-72810476D01*
X82071428Y-72858095D01*
X82166666Y-72905714D01*
X82309523Y-72905714D01*
X82404761Y-72858095D01*
X81976190Y-72524761D02*
X82071428Y-72572380D01*
X82261904Y-72572380D01*
X82357142Y-72524761D01*
X82404761Y-72477142D01*
X82452380Y-72381904D01*
X82452380Y-72096190D01*
X82404761Y-72000952D01*
X82357142Y-71953333D01*
X82261904Y-71905714D01*
X82071428Y-71905714D01*
X81976190Y-71953333D01*
X81119047Y-72524761D02*
X81214285Y-72572380D01*
X81404761Y-72572380D01*
X81500000Y-72524761D01*
X81547619Y-72429523D01*
X81547619Y-72048571D01*
X81500000Y-71953333D01*
X81404761Y-71905714D01*
X81214285Y-71905714D01*
X81119047Y-71953333D01*
X81071428Y-72048571D01*
X81071428Y-72143809D01*
X81547619Y-72239047D01*
X80642857Y-72572380D02*
X80642857Y-71905714D01*
X80642857Y-72096190D02*
X80595238Y-72000952D01*
X80547619Y-71953333D01*
X80452380Y-71905714D01*
X80357142Y-71905714D01*
D11*
X114000000Y-98800000D02*
X114000000Y-93800000D01*
X114000000Y-93800000D02*
X115000000Y-95500000D01*
X114000000Y-93800000D02*
X113000000Y-95500000D01*
X92000000Y-98800000D02*
X92000000Y-93800000D01*
X92000000Y-93800000D02*
X93000000Y-95500000D01*
X92000000Y-93800000D02*
X91000000Y-95500000D01*
X111372857Y-108746190D02*
X111277619Y-108460476D01*
X111182380Y-108365238D01*
X110991904Y-108270000D01*
X110706190Y-108270000D01*
X110515714Y-108365238D01*
X110420476Y-108460476D01*
X110325238Y-108650952D01*
X110325238Y-109412857D01*
X112325238Y-109412857D01*
X112325238Y-108746190D01*
X112230000Y-108555714D01*
X112134761Y-108460476D01*
X111944285Y-108365238D01*
X111753809Y-108365238D01*
X111563333Y-108460476D01*
X111468095Y-108555714D01*
X111372857Y-108746190D01*
X111372857Y-109412857D01*
X110896666Y-107508095D02*
X110896666Y-106555714D01*
X110325238Y-107698571D02*
X112325238Y-107031904D01*
X110325238Y-106365238D01*
X112325238Y-105984285D02*
X112325238Y-104841428D01*
X110325238Y-105412857D02*
X112325238Y-105412857D01*
X112325238Y-104460476D02*
X112325238Y-103317619D01*
X110325238Y-103889047D02*
X112325238Y-103889047D01*
X111087142Y-102650952D02*
X111087142Y-101127142D01*
X89272857Y-108646190D02*
X89177619Y-108360476D01*
X89082380Y-108265238D01*
X88891904Y-108170000D01*
X88606190Y-108170000D01*
X88415714Y-108265238D01*
X88320476Y-108360476D01*
X88225238Y-108550952D01*
X88225238Y-109312857D01*
X90225238Y-109312857D01*
X90225238Y-108646190D01*
X90130000Y-108455714D01*
X90034761Y-108360476D01*
X89844285Y-108265238D01*
X89653809Y-108265238D01*
X89463333Y-108360476D01*
X89368095Y-108455714D01*
X89272857Y-108646190D01*
X89272857Y-109312857D01*
X88796666Y-107408095D02*
X88796666Y-106455714D01*
X88225238Y-107598571D02*
X90225238Y-106931904D01*
X88225238Y-106265238D01*
X90225238Y-105884285D02*
X90225238Y-104741428D01*
X88225238Y-105312857D02*
X90225238Y-105312857D01*
X90225238Y-104360476D02*
X90225238Y-103217619D01*
X88225238Y-103789047D02*
X90225238Y-103789047D01*
X88987142Y-102550952D02*
X88987142Y-101027142D01*
X88225238Y-101789047D02*
X89749047Y-101789047D01*
M02*
