G04 #@! TF.GenerationSoftware,KiCad,Pcbnew,(5.0.1)-3*
G04 #@! TF.CreationDate,2019-05-15T20:24:53+02:00*
G04 #@! TF.ProjectId,Milwaukee_USB_charger,4D696C7761756B65655F5553425F6368,rev?*
G04 #@! TF.SameCoordinates,Original*
G04 #@! TF.FileFunction,Copper,L2,Bot,Signal*
G04 #@! TF.FilePolarity,Positive*
%FSLAX46Y46*%
G04 Gerber Fmt 4.6, Leading zero omitted, Abs format (unit mm)*
G04 Created by KiCad (PCBNEW (5.0.1)-3) date 15-May-19 20:24:53*
%MOMM*%
%LPD*%
G01*
G04 APERTURE LIST*
G04 #@! TA.AperFunction,SMDPad,CuDef*
%ADD10R,1.880000X1.680000*%
G04 #@! TD*
G04 #@! TA.AperFunction,ComponentPad*
%ADD11C,0.850000*%
G04 #@! TD*
G04 #@! TA.AperFunction,ComponentPad*
%ADD12C,0.550000*%
G04 #@! TD*
G04 #@! TA.AperFunction,SMDPad,CuDef*
%ADD13R,3.000000X5.080000*%
G04 #@! TD*
G04 #@! TA.AperFunction,ComponentPad*
%ADD14C,3.000000*%
G04 #@! TD*
G04 #@! TA.AperFunction,ComponentPad*
%ADD15O,3.000000X5.000000*%
G04 #@! TD*
G04 #@! TA.AperFunction,ComponentPad*
%ADD16C,1.500000*%
G04 #@! TD*
G04 #@! TA.AperFunction,ComponentPad*
%ADD17R,1.500000X1.500000*%
G04 #@! TD*
G04 #@! TA.AperFunction,ComponentPad*
%ADD18C,0.700000*%
G04 #@! TD*
G04 #@! TA.AperFunction,ComponentPad*
%ADD19C,4.400000*%
G04 #@! TD*
G04 #@! TA.AperFunction,ViaPad*
%ADD20C,0.800000*%
G04 #@! TD*
G04 #@! TA.AperFunction,Conductor*
%ADD21C,0.250000*%
G04 #@! TD*
G04 #@! TA.AperFunction,Conductor*
%ADD22C,0.125000*%
G04 #@! TD*
G04 #@! TA.AperFunction,Conductor*
%ADD23C,0.150000*%
G04 #@! TD*
G04 #@! TA.AperFunction,Conductor*
%ADD24C,0.254000*%
G04 #@! TD*
G04 APERTURE END LIST*
D10*
G04 #@! TO.P,U1,9*
G04 #@! TO.N,GND*
X80500000Y-50900000D03*
D11*
X81000000Y-50500000D03*
X80000000Y-51300000D03*
D12*
X80970000Y-51320000D03*
X80030000Y-50480000D03*
G04 #@! TD*
D10*
G04 #@! TO.P,U2,9*
G04 #@! TO.N,GND*
X98035759Y-45966239D03*
D11*
X98535759Y-45566239D03*
X97535759Y-46366239D03*
D12*
X98505759Y-46386239D03*
X97565759Y-45546239D03*
G04 #@! TD*
D13*
G04 #@! TO.P,J1,1*
G04 #@! TO.N,BATT+*
X89000000Y-96500000D03*
D14*
X89000000Y-99040000D03*
D15*
X89000000Y-93960000D03*
G04 #@! TD*
D13*
G04 #@! TO.P,J2,1*
G04 #@! TO.N,GND*
X111000000Y-96500000D03*
D14*
X111000000Y-99040000D03*
D15*
X111000000Y-93960000D03*
G04 #@! TD*
D16*
G04 #@! TO.P,J3,8*
G04 #@! TO.N,GND*
X82000000Y-104620000D03*
G04 #@! TO.P,J3,7*
G04 #@! TO.N,N/C*
X79500000Y-104620000D03*
G04 #@! TO.P,J3,6*
X77500000Y-104620000D03*
G04 #@! TO.P,J3,5*
G04 #@! TO.N,+5V*
X75000000Y-104620000D03*
D14*
G04 #@! TO.P,J3,9*
G04 #@! TO.N,GND*
X85070000Y-107330000D03*
X71930000Y-107330000D03*
D16*
G04 #@! TO.P,J3,4*
X82000000Y-102000000D03*
G04 #@! TO.P,J3,3*
G04 #@! TO.N,N/C*
X79500000Y-102000000D03*
G04 #@! TO.P,J3,2*
X77500000Y-102000000D03*
D17*
G04 #@! TO.P,J3,1*
G04 #@! TO.N,+5V*
X75000000Y-102000000D03*
D14*
G04 #@! TO.P,J3,9*
G04 #@! TO.N,GND*
X71930000Y-101650000D03*
X85070000Y-101650000D03*
G04 #@! TD*
G04 #@! TO.P,J4,2*
G04 #@! TO.N,GND*
X120000000Y-107200000D03*
G04 #@! TO.P,J4,1*
G04 #@! TO.N,+12V*
X116698000Y-101612000D03*
G04 #@! TO.P,J4,3*
G04 #@! TO.N,N/C*
X123302000Y-101612000D03*
G04 #@! TD*
D18*
G04 #@! TO.P,H1,1*
G04 #@! TO.N,GND*
X70166726Y-37833274D03*
X69000000Y-37350000D03*
X67833274Y-37833274D03*
X67350000Y-39000000D03*
X67833274Y-40166726D03*
X69000000Y-40650000D03*
X70166726Y-40166726D03*
X70650000Y-39000000D03*
D19*
X69000000Y-39000000D03*
G04 #@! TD*
G04 #@! TO.P,H2,1*
G04 #@! TO.N,GND*
X131000000Y-39000000D03*
D18*
X132650000Y-39000000D03*
X132166726Y-40166726D03*
X131000000Y-40650000D03*
X129833274Y-40166726D03*
X129350000Y-39000000D03*
X129833274Y-37833274D03*
X131000000Y-37350000D03*
X132166726Y-37833274D03*
G04 #@! TD*
G04 #@! TO.P,H3,1*
G04 #@! TO.N,GND*
X101166726Y-94833274D03*
X100000000Y-94350000D03*
X98833274Y-94833274D03*
X98350000Y-96000000D03*
X98833274Y-97166726D03*
X100000000Y-97650000D03*
X101166726Y-97166726D03*
X101650000Y-96000000D03*
D19*
X100000000Y-96000000D03*
G04 #@! TD*
D20*
G04 #@! TO.N,GND*
X78060759Y-50071239D03*
X95000000Y-44000000D03*
X95000000Y-45000000D03*
X95000000Y-46000000D03*
X95000000Y-47000000D03*
X95000000Y-48000000D03*
X95000000Y-49000000D03*
X94000000Y-49000000D03*
X94000000Y-48000000D03*
X94000000Y-47000000D03*
X94000000Y-46000000D03*
X94000000Y-45000000D03*
X94000000Y-44000000D03*
X93000000Y-44000000D03*
X93000000Y-45000000D03*
X93000000Y-46000000D03*
X93000000Y-47000000D03*
X93000000Y-48000000D03*
X93000000Y-49000000D03*
X98060000Y-60170000D03*
X71060759Y-48071239D03*
X72060759Y-48071239D03*
X73060759Y-48071239D03*
X74060759Y-48071239D03*
X75060759Y-48071239D03*
X76060759Y-48071239D03*
X76060759Y-49071239D03*
X75060759Y-49071239D03*
X74060759Y-49071239D03*
X73060759Y-49071239D03*
X72060759Y-49071239D03*
X71060759Y-49071239D03*
X71060759Y-50071239D03*
X72060759Y-50071239D03*
X73060759Y-50071239D03*
X74060759Y-50071239D03*
X75060759Y-50071239D03*
X76060759Y-50071239D03*
X77060759Y-50071239D03*
X77060759Y-49071239D03*
X78060759Y-49071239D03*
X74930000Y-108170000D03*
X79930000Y-108170000D03*
X89930000Y-108170000D03*
X94930000Y-108170000D03*
X99930000Y-108170000D03*
X104930000Y-108170000D03*
X109930000Y-108170000D03*
X114930000Y-108170000D03*
X69930000Y-103170000D03*
X69930000Y-98170000D03*
X69930000Y-93170000D03*
X69930000Y-88170000D03*
X69930000Y-83170000D03*
X69930000Y-78170000D03*
X74930000Y-88170000D03*
X84930000Y-93170000D03*
X84930000Y-98170000D03*
X94930000Y-103170000D03*
X99930000Y-103170000D03*
X104930000Y-103170000D03*
X109930000Y-103170000D03*
X104930000Y-98170000D03*
X94930000Y-98170000D03*
X94930000Y-93170000D03*
X104930000Y-93170000D03*
X89930000Y-103170000D03*
X94930000Y-88170000D03*
X99930000Y-88170000D03*
X99930000Y-83170000D03*
X94930000Y-78170000D03*
X99930000Y-78170000D03*
X94930000Y-83170000D03*
X94930000Y-73170000D03*
X119930000Y-68170000D03*
X124930000Y-68170000D03*
X89930000Y-38170000D03*
X84930000Y-38170000D03*
X84930000Y-44170000D03*
X79930000Y-38170000D03*
X74951317Y-38170000D03*
X109930000Y-38170000D03*
X114930000Y-38170000D03*
X119930000Y-38170000D03*
X124930000Y-43170000D03*
X124930000Y-48170000D03*
X124930000Y-53170000D03*
X108130000Y-61070000D03*
X89930000Y-50670000D03*
X70930000Y-74170000D03*
X71930000Y-76170000D03*
X75930000Y-74170000D03*
X75930000Y-76170000D03*
X77930000Y-76170000D03*
X82930000Y-72170000D03*
X85930000Y-72170000D03*
X83930000Y-78170000D03*
X73930000Y-60170000D03*
X70930000Y-58170000D03*
X72930000Y-58170000D03*
X74930000Y-58170000D03*
X71060759Y-47071239D03*
X72060759Y-47071239D03*
X74060759Y-47071239D03*
X73060759Y-47071239D03*
X75060759Y-47071239D03*
X76060759Y-47071239D03*
X77060759Y-48071239D03*
X127430000Y-78170000D03*
X127430000Y-73170000D03*
X127430000Y-68170000D03*
X127430000Y-63170000D03*
X127430000Y-58170000D03*
X127430000Y-53170000D03*
X127430000Y-48170000D03*
X127430000Y-43170000D03*
X122430000Y-55670000D03*
X122430000Y-50670000D03*
X122430000Y-45670000D03*
X122430000Y-40670000D03*
X117430000Y-65670000D03*
X102930000Y-48170000D03*
X102930000Y-46170000D03*
X105930000Y-46170000D03*
X108930000Y-46170000D03*
X102930000Y-43170000D03*
X103930000Y-41170000D03*
X105930000Y-41170000D03*
X104930000Y-39170000D03*
X127430000Y-83170000D03*
X74930000Y-83170000D03*
X117430000Y-73170000D03*
X122430000Y-73170000D03*
X114930000Y-70670000D03*
X119930000Y-70670000D03*
X124930000Y-70670000D03*
X122430000Y-78170000D03*
X119930000Y-75670000D03*
X124930000Y-75670000D03*
X124930000Y-80670000D03*
X127430000Y-88170000D03*
X127430000Y-93170000D03*
X127430000Y-98170000D03*
X127430000Y-103170000D03*
X127430000Y-108170000D03*
X124930000Y-105670000D03*
X97430000Y-75670000D03*
X102430000Y-80670000D03*
X97430000Y-80670000D03*
X102430000Y-85670000D03*
X97430000Y-85670000D03*
X102930000Y-56970000D03*
X96930000Y-55370000D03*
X96930000Y-56770000D03*
X96930000Y-58370000D03*
X93660000Y-55370000D03*
X93860000Y-59370000D03*
X98930000Y-58370000D03*
X98930000Y-56770000D03*
X98930000Y-55370000D03*
X93930000Y-50470000D03*
X96430000Y-50470000D03*
X81330000Y-58270000D03*
X80630000Y-60070000D03*
X94460000Y-60970000D03*
X98060000Y-62170000D03*
X94460000Y-62370000D03*
X93460000Y-57170000D03*
X92000000Y-44000000D03*
X92000000Y-45000000D03*
X92000000Y-46000000D03*
X92000000Y-47000000D03*
X92000000Y-48000000D03*
X92000000Y-49000000D03*
X91000000Y-49000000D03*
X91000000Y-48000000D03*
X91000000Y-47000000D03*
X91000000Y-46000000D03*
X91000000Y-45000000D03*
X91000000Y-44000000D03*
X90000000Y-49000000D03*
X90000000Y-48000000D03*
X90000000Y-47000000D03*
X90000000Y-46000000D03*
X90000000Y-45000000D03*
X90000000Y-44000000D03*
X74930000Y-44170000D03*
X74930000Y-41170000D03*
X79930000Y-41170000D03*
X84930000Y-41170000D03*
X89930000Y-41170000D03*
X69930000Y-44170000D03*
X124930000Y-38170000D03*
G04 #@! TO.N,+5V*
X73460000Y-98370000D03*
X75060000Y-98370000D03*
X76660000Y-98370000D03*
X74260000Y-99770000D03*
X75860000Y-99770000D03*
G04 #@! TO.N,+12V*
X114630000Y-98570000D03*
X116130000Y-98570000D03*
X120630000Y-98570000D03*
X122130000Y-98570000D03*
X123630000Y-98570000D03*
X117630000Y-98570000D03*
X119130000Y-98570000D03*
X119130000Y-100070000D03*
X120630000Y-100070000D03*
X119130000Y-101570000D03*
X120630000Y-101570000D03*
X119130000Y-103070000D03*
X120630000Y-103070000D03*
X119430000Y-97170000D03*
X119430000Y-95670000D03*
X119430000Y-94170000D03*
G04 #@! TO.N,Net-(Q1-Pad3)*
X79010749Y-56871239D03*
X80460749Y-56871239D03*
G04 #@! TO.N,Net-(Q2-Pad1)*
X99860759Y-47406241D03*
X107160759Y-44771239D03*
G04 #@! TO.N,Net-(Q2-Pad3)*
X97060759Y-49371239D03*
X108930000Y-50070000D03*
G04 #@! TD*
D21*
G04 #@! TO.N,Net-(Q1-Pad3)*
X79010749Y-56871239D02*
X80460749Y-56871239D01*
G04 #@! TO.N,Net-(Q2-Pad1)*
X99860759Y-47406241D02*
X102495761Y-44771239D01*
X102495761Y-44771239D02*
X107160759Y-44771239D01*
D22*
G04 #@! TO.N,Net-(Q2-Pad3)*
X97060759Y-49371239D02*
X108231239Y-49371239D01*
X108231239Y-49371239D02*
X108930000Y-50070000D01*
G04 #@! TD*
D23*
G04 #@! TO.N,GND*
G36*
X131504636Y-36451399D02*
X131990055Y-36597955D01*
X132437754Y-36836000D01*
X132830699Y-37156479D01*
X133153907Y-37547170D01*
X133395076Y-37993204D01*
X133545017Y-38477582D01*
X133598018Y-38981862D01*
X133552062Y-39486835D01*
X133408899Y-39973260D01*
X133173985Y-40422610D01*
X132856258Y-40817782D01*
X132467828Y-41143713D01*
X132023494Y-41387989D01*
X131540172Y-41541308D01*
X131018132Y-41599864D01*
X130998646Y-41600000D01*
X130019646Y-41600000D01*
X130000000Y-41598065D01*
X129980353Y-41600000D01*
X129921586Y-41605788D01*
X129846186Y-41628660D01*
X129776697Y-41665803D01*
X129715789Y-41715789D01*
X129665803Y-41776697D01*
X129628660Y-41846186D01*
X129605788Y-41921586D01*
X129598065Y-42000000D01*
X129600000Y-42019647D01*
X129600001Y-106980426D01*
X129548601Y-107504637D01*
X129402046Y-107990053D01*
X129163998Y-108437757D01*
X128843522Y-108830698D01*
X128452830Y-109153907D01*
X128006795Y-109395077D01*
X127522419Y-109545016D01*
X126999288Y-109600000D01*
X72019564Y-109600000D01*
X71495363Y-109548601D01*
X71009947Y-109402046D01*
X70562243Y-109163998D01*
X70169302Y-108843522D01*
X69956934Y-108586813D01*
X70708542Y-108586813D01*
X70872427Y-108828157D01*
X71185024Y-109005692D01*
X71526250Y-109118832D01*
X71882992Y-109163228D01*
X72241540Y-109137174D01*
X72588116Y-109041671D01*
X72909402Y-108880390D01*
X72987573Y-108828157D01*
X73151458Y-108586813D01*
X83848542Y-108586813D01*
X84012427Y-108828157D01*
X84325024Y-109005692D01*
X84666250Y-109118832D01*
X85022992Y-109163228D01*
X85381540Y-109137174D01*
X85728116Y-109041671D01*
X86049402Y-108880390D01*
X86127573Y-108828157D01*
X86291458Y-108586813D01*
X86263998Y-108559353D01*
X118893792Y-108559353D01*
X119072063Y-108781729D01*
X119398473Y-108932368D01*
X119748001Y-109016434D01*
X120107212Y-109030694D01*
X120462302Y-108974602D01*
X120799627Y-108850313D01*
X120927937Y-108781729D01*
X121106208Y-108559353D01*
X120000000Y-107453144D01*
X118893792Y-108559353D01*
X86263998Y-108559353D01*
X85070000Y-107365355D01*
X83848542Y-108586813D01*
X73151458Y-108586813D01*
X71930000Y-107365355D01*
X70708542Y-108586813D01*
X69956934Y-108586813D01*
X69846093Y-108452830D01*
X69604923Y-108006795D01*
X69454984Y-107522419D01*
X69429819Y-107282992D01*
X70096772Y-107282992D01*
X70122826Y-107641540D01*
X70218329Y-107988116D01*
X70379610Y-108309402D01*
X70431843Y-108387573D01*
X70673187Y-108551458D01*
X71894645Y-107330000D01*
X71965355Y-107330000D01*
X73186813Y-108551458D01*
X73428157Y-108387573D01*
X73605692Y-108074976D01*
X73718832Y-107733750D01*
X73763228Y-107377008D01*
X73756397Y-107282992D01*
X83236772Y-107282992D01*
X83262826Y-107641540D01*
X83358329Y-107988116D01*
X83519610Y-108309402D01*
X83571843Y-108387573D01*
X83813187Y-108551458D01*
X85034645Y-107330000D01*
X85105355Y-107330000D01*
X86326813Y-108551458D01*
X86568157Y-108387573D01*
X86745692Y-108074976D01*
X86858832Y-107733750D01*
X86903228Y-107377008D01*
X86898157Y-107307212D01*
X118169306Y-107307212D01*
X118225398Y-107662302D01*
X118349687Y-107999627D01*
X118418271Y-108127937D01*
X118640647Y-108306208D01*
X119746856Y-107200000D01*
X120253144Y-107200000D01*
X121359353Y-108306208D01*
X121581729Y-108127937D01*
X121732368Y-107801527D01*
X121816434Y-107451999D01*
X121830694Y-107092788D01*
X121774602Y-106737698D01*
X121650313Y-106400373D01*
X121581729Y-106272063D01*
X121359353Y-106093792D01*
X120253144Y-107200000D01*
X119746856Y-107200000D01*
X118640647Y-106093792D01*
X118418271Y-106272063D01*
X118267632Y-106598473D01*
X118183566Y-106948001D01*
X118169306Y-107307212D01*
X86898157Y-107307212D01*
X86877174Y-107018460D01*
X86781671Y-106671884D01*
X86620390Y-106350598D01*
X86568157Y-106272427D01*
X86326813Y-106108542D01*
X85105355Y-107330000D01*
X85034645Y-107330000D01*
X83813187Y-106108542D01*
X83571843Y-106272427D01*
X83394308Y-106585024D01*
X83281168Y-106926250D01*
X83236772Y-107282992D01*
X73756397Y-107282992D01*
X73737174Y-107018460D01*
X73641671Y-106671884D01*
X73480390Y-106350598D01*
X73428157Y-106272427D01*
X73186813Y-106108542D01*
X71965355Y-107330000D01*
X71894645Y-107330000D01*
X70673187Y-106108542D01*
X70431843Y-106272427D01*
X70254308Y-106585024D01*
X70141168Y-106926250D01*
X70096772Y-107282992D01*
X69429819Y-107282992D01*
X69400000Y-106999288D01*
X69400000Y-106073187D01*
X70708542Y-106073187D01*
X71930000Y-107294645D01*
X73151458Y-106073187D01*
X72987573Y-105831843D01*
X72674976Y-105654308D01*
X72333750Y-105541168D01*
X71977008Y-105496772D01*
X71618460Y-105522826D01*
X71271884Y-105618329D01*
X70950598Y-105779610D01*
X70872427Y-105831843D01*
X70708542Y-106073187D01*
X69400000Y-106073187D01*
X69400000Y-102906813D01*
X70708542Y-102906813D01*
X70872427Y-103148157D01*
X71185024Y-103325692D01*
X71526250Y-103438832D01*
X71882992Y-103483228D01*
X72241540Y-103457174D01*
X72588116Y-103361671D01*
X72909402Y-103200390D01*
X72987573Y-103148157D01*
X73151458Y-102906813D01*
X71930000Y-101685355D01*
X70708542Y-102906813D01*
X69400000Y-102906813D01*
X69400000Y-101602992D01*
X70096772Y-101602992D01*
X70122826Y-101961540D01*
X70218329Y-102308116D01*
X70379610Y-102629402D01*
X70431843Y-102707573D01*
X70673187Y-102871458D01*
X71894645Y-101650000D01*
X70673187Y-100428542D01*
X70431843Y-100592427D01*
X70254308Y-100905024D01*
X70141168Y-101246250D01*
X70096772Y-101602992D01*
X69400000Y-101602992D01*
X69400000Y-100393187D01*
X70708542Y-100393187D01*
X71930000Y-101614645D01*
X71944143Y-101600503D01*
X71979498Y-101635858D01*
X71965355Y-101650000D01*
X73186813Y-102871458D01*
X73335000Y-102770831D01*
X73335000Y-105470000D01*
X73337780Y-105512421D01*
X73354817Y-105641831D01*
X73376776Y-105723782D01*
X73426726Y-105844372D01*
X73469148Y-105917849D01*
X73548608Y-106021402D01*
X73608598Y-106081392D01*
X73712151Y-106160852D01*
X73785628Y-106203274D01*
X73906218Y-106253224D01*
X73988169Y-106275183D01*
X74117579Y-106292220D01*
X74160000Y-106295000D01*
X75960000Y-106295000D01*
X76002421Y-106292220D01*
X76131831Y-106275183D01*
X76213782Y-106253224D01*
X76334372Y-106203274D01*
X76407849Y-106160852D01*
X76511402Y-106081392D01*
X76519607Y-106073187D01*
X83848542Y-106073187D01*
X85070000Y-107294645D01*
X86291458Y-106073187D01*
X86133552Y-105840647D01*
X118893792Y-105840647D01*
X120000000Y-106946856D01*
X121106208Y-105840647D01*
X120927937Y-105618271D01*
X120601527Y-105467632D01*
X120251999Y-105383566D01*
X119892788Y-105369306D01*
X119537698Y-105425398D01*
X119200373Y-105549687D01*
X119072063Y-105618271D01*
X118893792Y-105840647D01*
X86133552Y-105840647D01*
X86127573Y-105831843D01*
X85814976Y-105654308D01*
X85473750Y-105541168D01*
X85117008Y-105496772D01*
X84758460Y-105522826D01*
X84411884Y-105618329D01*
X84090598Y-105779610D01*
X84012427Y-105831843D01*
X83848542Y-106073187D01*
X76519607Y-106073187D01*
X76571392Y-106021402D01*
X76650852Y-105917849D01*
X76693274Y-105844372D01*
X76743224Y-105723782D01*
X76765183Y-105641831D01*
X76782220Y-105512421D01*
X76785000Y-105470000D01*
X76785000Y-105425279D01*
X76814728Y-105455007D01*
X76990797Y-105572652D01*
X77186434Y-105653688D01*
X77394122Y-105695000D01*
X77605878Y-105695000D01*
X77813566Y-105653688D01*
X78009203Y-105572652D01*
X78185272Y-105455007D01*
X78335007Y-105305272D01*
X78452652Y-105129203D01*
X78500000Y-105014896D01*
X78547348Y-105129203D01*
X78664993Y-105305272D01*
X78814728Y-105455007D01*
X78990797Y-105572652D01*
X79186434Y-105653688D01*
X79394122Y-105695000D01*
X79605878Y-105695000D01*
X79813566Y-105653688D01*
X80009203Y-105572652D01*
X80091376Y-105517746D01*
X81561873Y-105517746D01*
X81657424Y-105644439D01*
X81863864Y-105691589D01*
X82075537Y-105697556D01*
X82284306Y-105662115D01*
X82342576Y-105644439D01*
X82438127Y-105517746D01*
X82000000Y-105079619D01*
X81561873Y-105517746D01*
X80091376Y-105517746D01*
X80185272Y-105455007D01*
X80335007Y-105305272D01*
X80452652Y-105129203D01*
X80533688Y-104933566D01*
X80575000Y-104725878D01*
X80575000Y-104695537D01*
X80922444Y-104695537D01*
X80957885Y-104904306D01*
X80975561Y-104962576D01*
X81102254Y-105058127D01*
X81540381Y-104620000D01*
X82459619Y-104620000D01*
X82897746Y-105058127D01*
X83024439Y-104962576D01*
X83071589Y-104756136D01*
X83077556Y-104544463D01*
X83042115Y-104335694D01*
X83024439Y-104277424D01*
X82897746Y-104181873D01*
X82459619Y-104620000D01*
X81540381Y-104620000D01*
X81102254Y-104181873D01*
X80975561Y-104277424D01*
X80928411Y-104483864D01*
X80922444Y-104695537D01*
X80575000Y-104695537D01*
X80575000Y-104514122D01*
X80533688Y-104306434D01*
X80452652Y-104110797D01*
X80335007Y-103934728D01*
X80185272Y-103784993D01*
X80091377Y-103722254D01*
X81561873Y-103722254D01*
X82000000Y-104160381D01*
X82438127Y-103722254D01*
X82342576Y-103595561D01*
X82136136Y-103548411D01*
X81924463Y-103542444D01*
X81715694Y-103577885D01*
X81657424Y-103595561D01*
X81561873Y-103722254D01*
X80091377Y-103722254D01*
X80009203Y-103667348D01*
X79813566Y-103586312D01*
X79605878Y-103545000D01*
X79394122Y-103545000D01*
X79186434Y-103586312D01*
X78990797Y-103667348D01*
X78814728Y-103784993D01*
X78664993Y-103934728D01*
X78547348Y-104110797D01*
X78500000Y-104225104D01*
X78452652Y-104110797D01*
X78335007Y-103934728D01*
X78185272Y-103784993D01*
X78009203Y-103667348D01*
X77813566Y-103586312D01*
X77605878Y-103545000D01*
X77394122Y-103545000D01*
X77186434Y-103586312D01*
X76990797Y-103667348D01*
X76814728Y-103784993D01*
X76785000Y-103814721D01*
X76785000Y-102805279D01*
X76814728Y-102835007D01*
X76990797Y-102952652D01*
X77186434Y-103033688D01*
X77394122Y-103075000D01*
X77605878Y-103075000D01*
X77813566Y-103033688D01*
X78009203Y-102952652D01*
X78185272Y-102835007D01*
X78335007Y-102685272D01*
X78452652Y-102509203D01*
X78500000Y-102394896D01*
X78547348Y-102509203D01*
X78664993Y-102685272D01*
X78814728Y-102835007D01*
X78990797Y-102952652D01*
X79186434Y-103033688D01*
X79394122Y-103075000D01*
X79605878Y-103075000D01*
X79813566Y-103033688D01*
X80009203Y-102952652D01*
X80091376Y-102897746D01*
X81561873Y-102897746D01*
X81657424Y-103024439D01*
X81863864Y-103071589D01*
X82075537Y-103077556D01*
X82284306Y-103042115D01*
X82342576Y-103024439D01*
X82431288Y-102906813D01*
X83848542Y-102906813D01*
X84012427Y-103148157D01*
X84325024Y-103325692D01*
X84666250Y-103438832D01*
X85022992Y-103483228D01*
X85381540Y-103457174D01*
X85728116Y-103361671D01*
X86049402Y-103200390D01*
X86127573Y-103148157D01*
X86291458Y-102906813D01*
X85070000Y-101685355D01*
X83848542Y-102906813D01*
X82431288Y-102906813D01*
X82438127Y-102897746D01*
X82000000Y-102459619D01*
X81561873Y-102897746D01*
X80091376Y-102897746D01*
X80185272Y-102835007D01*
X80335007Y-102685272D01*
X80452652Y-102509203D01*
X80533688Y-102313566D01*
X80575000Y-102105878D01*
X80575000Y-102075537D01*
X80922444Y-102075537D01*
X80957885Y-102284306D01*
X80975561Y-102342576D01*
X81102254Y-102438127D01*
X81540381Y-102000000D01*
X82459619Y-102000000D01*
X82897746Y-102438127D01*
X83024439Y-102342576D01*
X83071589Y-102136136D01*
X83077556Y-101924463D01*
X83042115Y-101715694D01*
X83024439Y-101657424D01*
X82952267Y-101602992D01*
X83236772Y-101602992D01*
X83262826Y-101961540D01*
X83358329Y-102308116D01*
X83519610Y-102629402D01*
X83571843Y-102707573D01*
X83813187Y-102871458D01*
X85034645Y-101650000D01*
X85105355Y-101650000D01*
X86326813Y-102871458D01*
X86568157Y-102707573D01*
X86745692Y-102394976D01*
X86858832Y-102053750D01*
X86903228Y-101697008D01*
X86877174Y-101338460D01*
X86781671Y-100991884D01*
X86620390Y-100670598D01*
X86568157Y-100592427D01*
X86326813Y-100428542D01*
X85105355Y-101650000D01*
X85034645Y-101650000D01*
X83813187Y-100428542D01*
X83571843Y-100592427D01*
X83394308Y-100905024D01*
X83281168Y-101246250D01*
X83236772Y-101602992D01*
X82952267Y-101602992D01*
X82897746Y-101561873D01*
X82459619Y-102000000D01*
X81540381Y-102000000D01*
X81102254Y-101561873D01*
X80975561Y-101657424D01*
X80928411Y-101863864D01*
X80922444Y-102075537D01*
X80575000Y-102075537D01*
X80575000Y-101894122D01*
X80533688Y-101686434D01*
X80452652Y-101490797D01*
X80335007Y-101314728D01*
X80185272Y-101164993D01*
X80091377Y-101102254D01*
X81561873Y-101102254D01*
X82000000Y-101540381D01*
X82438127Y-101102254D01*
X82342576Y-100975561D01*
X82136136Y-100928411D01*
X81924463Y-100922444D01*
X81715694Y-100957885D01*
X81657424Y-100975561D01*
X81561873Y-101102254D01*
X80091377Y-101102254D01*
X80009203Y-101047348D01*
X79813566Y-100966312D01*
X79605878Y-100925000D01*
X79394122Y-100925000D01*
X79186434Y-100966312D01*
X78990797Y-101047348D01*
X78814728Y-101164993D01*
X78664993Y-101314728D01*
X78547348Y-101490797D01*
X78500000Y-101605104D01*
X78452652Y-101490797D01*
X78335007Y-101314728D01*
X78185272Y-101164993D01*
X78009203Y-101047348D01*
X77813566Y-100966312D01*
X77605878Y-100925000D01*
X77394122Y-100925000D01*
X77186434Y-100966312D01*
X76990797Y-101047348D01*
X76869906Y-101128125D01*
X77086064Y-100393187D01*
X83848542Y-100393187D01*
X85070000Y-101614645D01*
X86291458Y-100393187D01*
X86127573Y-100151843D01*
X85814976Y-99974308D01*
X85473750Y-99861168D01*
X85117008Y-99816772D01*
X84758460Y-99842826D01*
X84411884Y-99938329D01*
X84090598Y-100099610D01*
X84012427Y-100151843D01*
X83848542Y-100393187D01*
X77086064Y-100393187D01*
X77751477Y-98130783D01*
X77761365Y-98085403D01*
X77781682Y-97944319D01*
X77785000Y-97897995D01*
X77785000Y-93960000D01*
X87173428Y-93960000D01*
X87173428Y-99040000D01*
X87175000Y-99055961D01*
X87175000Y-99219747D01*
X87245134Y-99572333D01*
X87382706Y-99904461D01*
X87582430Y-100203369D01*
X87836631Y-100457570D01*
X88135539Y-100657294D01*
X88467667Y-100794866D01*
X88820253Y-100865000D01*
X89179747Y-100865000D01*
X89532333Y-100794866D01*
X89864461Y-100657294D01*
X90163369Y-100457570D01*
X90417570Y-100203369D01*
X90617294Y-99904461D01*
X90754866Y-99572333D01*
X90825000Y-99219747D01*
X90825000Y-99055961D01*
X90826572Y-99040000D01*
X90826572Y-97858584D01*
X98394560Y-97858584D01*
X98657191Y-98152751D01*
X99102974Y-98373355D01*
X99583228Y-98502753D01*
X100079499Y-98535971D01*
X100572715Y-98471734D01*
X101043923Y-98312509D01*
X101342809Y-98152751D01*
X101605440Y-97858584D01*
X101445148Y-97698292D01*
X101446593Y-97694081D01*
X101166726Y-97414213D01*
X101163898Y-97417042D01*
X100916410Y-97169554D01*
X100919239Y-97166726D01*
X100639371Y-96886859D01*
X100635160Y-96888304D01*
X100000000Y-96253144D01*
X99364840Y-96888304D01*
X99360629Y-96886859D01*
X99080761Y-97166726D01*
X99083590Y-97169554D01*
X98836102Y-97417042D01*
X98833274Y-97414213D01*
X98553407Y-97694081D01*
X98554852Y-97698292D01*
X98394560Y-97858584D01*
X90826572Y-97858584D01*
X90826572Y-96079499D01*
X97464029Y-96079499D01*
X97528266Y-96572715D01*
X97687491Y-97043923D01*
X97847249Y-97342809D01*
X98141416Y-97605440D01*
X98301708Y-97445148D01*
X98305919Y-97446593D01*
X98585787Y-97166726D01*
X98582958Y-97163898D01*
X98830446Y-96916410D01*
X98833274Y-96919239D01*
X99113141Y-96639371D01*
X99111696Y-96635160D01*
X99746856Y-96000000D01*
X100253144Y-96000000D01*
X100888304Y-96635160D01*
X100886859Y-96639371D01*
X101166726Y-96919239D01*
X101169554Y-96916410D01*
X101417042Y-97163898D01*
X101414213Y-97166726D01*
X101694081Y-97446593D01*
X101698292Y-97445148D01*
X101858584Y-97605440D01*
X102152751Y-97342809D01*
X102373355Y-96897026D01*
X102502753Y-96416772D01*
X102535971Y-95920501D01*
X102471734Y-95427285D01*
X102312509Y-94956077D01*
X102152751Y-94657191D01*
X101858584Y-94394560D01*
X101698292Y-94554852D01*
X101694081Y-94553407D01*
X101414213Y-94833274D01*
X101417042Y-94836102D01*
X101169554Y-95083590D01*
X101166726Y-95080761D01*
X100886859Y-95360629D01*
X100888304Y-95364840D01*
X100253144Y-96000000D01*
X99746856Y-96000000D01*
X99111696Y-95364840D01*
X99113141Y-95360629D01*
X98833274Y-95080761D01*
X98830446Y-95083590D01*
X98582958Y-94836102D01*
X98585787Y-94833274D01*
X98305919Y-94553407D01*
X98301708Y-94554852D01*
X98141416Y-94394560D01*
X97847249Y-94657191D01*
X97626645Y-95102974D01*
X97497247Y-95583228D01*
X97464029Y-96079499D01*
X90826572Y-96079499D01*
X90826572Y-94141416D01*
X98394560Y-94141416D01*
X98554852Y-94301708D01*
X98553407Y-94305919D01*
X98833274Y-94585787D01*
X98836102Y-94582958D01*
X99083590Y-94830446D01*
X99080761Y-94833274D01*
X99360629Y-95113141D01*
X99364840Y-95111696D01*
X100000000Y-95746856D01*
X100635160Y-95111696D01*
X100639371Y-95113141D01*
X100919239Y-94833274D01*
X100916410Y-94830446D01*
X101163898Y-94582958D01*
X101166726Y-94585787D01*
X101446593Y-94305919D01*
X101445148Y-94301708D01*
X101605440Y-94141416D01*
X101342809Y-93847249D01*
X100897026Y-93626645D01*
X100416772Y-93497247D01*
X100009707Y-93470000D01*
X113505000Y-93470000D01*
X113505000Y-103170000D01*
X113507780Y-103212421D01*
X113524817Y-103341831D01*
X113546776Y-103423782D01*
X113596726Y-103544372D01*
X113639148Y-103617849D01*
X113718608Y-103721402D01*
X113778598Y-103781392D01*
X113882151Y-103860852D01*
X113955628Y-103903274D01*
X114076218Y-103953224D01*
X114158169Y-103975183D01*
X114287579Y-103992220D01*
X114330000Y-103995000D01*
X124625305Y-103995000D01*
X124667976Y-103992187D01*
X124798138Y-103974948D01*
X124880540Y-103952730D01*
X125001726Y-103902201D01*
X125075504Y-103859299D01*
X125179358Y-103778964D01*
X125239422Y-103718336D01*
X125318782Y-103613736D01*
X125360992Y-103539561D01*
X125410386Y-103417908D01*
X125431832Y-103335303D01*
X125447854Y-103204986D01*
X125450269Y-103162290D01*
X125359615Y-93462290D01*
X125356474Y-93420149D01*
X125338437Y-93291655D01*
X125315973Y-93210359D01*
X125265479Y-93090833D01*
X125222856Y-93018058D01*
X125143307Y-92915549D01*
X125083389Y-92856188D01*
X124980141Y-92777601D01*
X124906972Y-92735661D01*
X124786979Y-92686286D01*
X124705478Y-92664583D01*
X124576821Y-92647747D01*
X124534651Y-92645000D01*
X114330000Y-92645000D01*
X114287579Y-92647780D01*
X114158169Y-92664817D01*
X114076218Y-92686776D01*
X113955628Y-92736726D01*
X113882151Y-92779148D01*
X113778598Y-92858608D01*
X113718608Y-92918598D01*
X113639148Y-93022151D01*
X113596726Y-93095628D01*
X113546776Y-93216218D01*
X113524817Y-93298169D01*
X113507780Y-93427579D01*
X113505000Y-93470000D01*
X100009707Y-93470000D01*
X99920501Y-93464029D01*
X99427285Y-93528266D01*
X98956077Y-93687491D01*
X98657191Y-93847249D01*
X98394560Y-94141416D01*
X90826572Y-94141416D01*
X90826572Y-93960000D01*
X90825000Y-93944039D01*
X90825000Y-92870349D01*
X90798593Y-92602238D01*
X90694238Y-92258224D01*
X90524774Y-91941179D01*
X90296714Y-91663286D01*
X90018821Y-91435226D01*
X89701776Y-91265762D01*
X89357762Y-91161407D01*
X89000000Y-91126170D01*
X88642239Y-91161407D01*
X88298225Y-91265762D01*
X87981180Y-91435226D01*
X87703287Y-91663286D01*
X87475227Y-91941179D01*
X87305763Y-92258224D01*
X87201408Y-92602238D01*
X87175001Y-92870349D01*
X87175001Y-93944034D01*
X87173428Y-93960000D01*
X77785000Y-93960000D01*
X77785000Y-93870000D01*
X77782220Y-93827579D01*
X77765183Y-93698169D01*
X77743224Y-93616218D01*
X77693274Y-93495628D01*
X77650852Y-93422151D01*
X77571392Y-93318598D01*
X77511402Y-93258608D01*
X77407849Y-93179148D01*
X77334372Y-93136726D01*
X77213782Y-93086776D01*
X77131831Y-93064817D01*
X77002421Y-93047780D01*
X76960000Y-93045000D01*
X72960000Y-93045000D01*
X72917579Y-93047780D01*
X72788169Y-93064817D01*
X72706218Y-93086776D01*
X72585628Y-93136726D01*
X72512151Y-93179148D01*
X72408598Y-93258608D01*
X72348608Y-93318598D01*
X72269148Y-93422151D01*
X72226726Y-93495628D01*
X72176776Y-93616218D01*
X72154817Y-93698169D01*
X72137780Y-93827579D01*
X72135000Y-93870000D01*
X72135000Y-97479333D01*
X72140215Y-97537321D01*
X72172050Y-97712882D01*
X72187528Y-97769009D01*
X73166103Y-100378539D01*
X73151457Y-100393185D01*
X72987573Y-100151843D01*
X72674976Y-99974308D01*
X72333750Y-99861168D01*
X71977008Y-99816772D01*
X71618460Y-99842826D01*
X71271884Y-99938329D01*
X70950598Y-100099610D01*
X70872427Y-100151843D01*
X70708542Y-100393187D01*
X69400000Y-100393187D01*
X69400000Y-46671745D01*
X70085761Y-46671745D01*
X70185002Y-61370506D01*
X70190709Y-61398701D01*
X70206967Y-61423033D01*
X70231299Y-61439291D01*
X70260000Y-61445000D01*
X77860000Y-61445000D01*
X77888545Y-61439356D01*
X77912913Y-61423153D01*
X77929226Y-61398858D01*
X77935000Y-61370169D01*
X77945328Y-56799833D01*
X78285749Y-56799833D01*
X78285749Y-56942645D01*
X78313610Y-57082714D01*
X78368262Y-57214655D01*
X78447605Y-57333400D01*
X78548588Y-57434383D01*
X78667333Y-57513726D01*
X78799274Y-57568378D01*
X78939343Y-57596239D01*
X79082155Y-57596239D01*
X79222224Y-57568378D01*
X79354165Y-57513726D01*
X79472910Y-57434383D01*
X79573893Y-57333400D01*
X79582019Y-57321239D01*
X79889479Y-57321239D01*
X79897605Y-57333400D01*
X79998588Y-57434383D01*
X80117333Y-57513726D01*
X80249274Y-57568378D01*
X80389343Y-57596239D01*
X80532155Y-57596239D01*
X80672224Y-57568378D01*
X80804165Y-57513726D01*
X80922910Y-57434383D01*
X81023893Y-57333400D01*
X81103236Y-57214655D01*
X81157888Y-57082714D01*
X81185749Y-56942645D01*
X81185749Y-56799833D01*
X81157888Y-56659764D01*
X81103236Y-56527823D01*
X81023893Y-56409078D01*
X80922910Y-56308095D01*
X80804165Y-56228752D01*
X80672224Y-56174100D01*
X80532155Y-56146239D01*
X80389343Y-56146239D01*
X80249274Y-56174100D01*
X80117333Y-56228752D01*
X79998588Y-56308095D01*
X79897605Y-56409078D01*
X79889479Y-56421239D01*
X79582019Y-56421239D01*
X79573893Y-56409078D01*
X79472910Y-56308095D01*
X79354165Y-56228752D01*
X79222224Y-56174100D01*
X79082155Y-56146239D01*
X78939343Y-56146239D01*
X78799274Y-56174100D01*
X78667333Y-56228752D01*
X78548588Y-56308095D01*
X78447605Y-56409078D01*
X78368262Y-56527823D01*
X78313610Y-56659764D01*
X78285749Y-56799833D01*
X77945328Y-56799833D01*
X77954831Y-52595000D01*
X85555000Y-52595000D01*
X85583570Y-52589345D01*
X85607933Y-52573133D01*
X85624237Y-52548832D01*
X85630000Y-52520142D01*
X85635759Y-49471381D01*
X85630050Y-49442538D01*
X85613792Y-49418206D01*
X85589460Y-49401948D01*
X85560759Y-49396239D01*
X79935759Y-49396239D01*
X79935759Y-48071239D01*
X79927167Y-48036382D01*
X79908773Y-48013622D01*
X79883069Y-47999634D01*
X79853969Y-47996547D01*
X78841435Y-48088596D01*
X78935593Y-46676228D01*
X78930050Y-46642538D01*
X78913792Y-46618206D01*
X78889460Y-46601948D01*
X78860759Y-46596239D01*
X70160759Y-46596239D01*
X70131591Y-46602143D01*
X70107369Y-46618565D01*
X70091276Y-46643006D01*
X70085761Y-46671745D01*
X69400000Y-46671745D01*
X69400000Y-41980353D01*
X69394212Y-41921586D01*
X69371340Y-41846186D01*
X69334197Y-41776697D01*
X69284211Y-41715789D01*
X69223302Y-41665803D01*
X69153813Y-41628660D01*
X69078413Y-41605788D01*
X69039095Y-41601916D01*
X69039033Y-41601909D01*
X69038096Y-41601817D01*
X69000000Y-41598065D01*
X68999915Y-41598073D01*
X68495363Y-41548601D01*
X68009947Y-41402046D01*
X67562243Y-41163998D01*
X67187770Y-40858584D01*
X67394560Y-40858584D01*
X67657191Y-41152751D01*
X68102974Y-41373355D01*
X68583228Y-41502753D01*
X69079499Y-41535971D01*
X69572715Y-41471734D01*
X69785003Y-41400000D01*
X92125000Y-41400000D01*
X92125000Y-63800000D01*
X92130709Y-63828701D01*
X92146967Y-63853033D01*
X92171299Y-63869291D01*
X92200000Y-63875000D01*
X100400000Y-63875000D01*
X100428600Y-63869333D01*
X100452956Y-63853110D01*
X100469249Y-63828802D01*
X100475000Y-63800109D01*
X100495468Y-49758739D01*
X108070732Y-49758739D01*
X108222518Y-49910525D01*
X108205000Y-49998594D01*
X108205000Y-50141406D01*
X108232861Y-50281475D01*
X108287513Y-50413416D01*
X108366856Y-50532161D01*
X108467839Y-50633144D01*
X108586584Y-50712487D01*
X108718525Y-50767139D01*
X108858594Y-50795000D01*
X109001406Y-50795000D01*
X109141475Y-50767139D01*
X109273416Y-50712487D01*
X109392161Y-50633144D01*
X109493144Y-50532161D01*
X109572487Y-50413416D01*
X109627139Y-50281475D01*
X109655000Y-50141406D01*
X109655000Y-49998594D01*
X109627139Y-49858525D01*
X109572487Y-49726584D01*
X109493144Y-49607839D01*
X109392161Y-49506856D01*
X109273416Y-49427513D01*
X109141475Y-49372861D01*
X109001406Y-49345000D01*
X108858594Y-49345000D01*
X108770525Y-49362518D01*
X108518701Y-49110694D01*
X108506568Y-49095910D01*
X108447564Y-49047486D01*
X108380246Y-49011504D01*
X108307202Y-48989347D01*
X108250265Y-48983739D01*
X108231239Y-48981865D01*
X108212213Y-48983739D01*
X100496598Y-48983739D01*
X100498387Y-47756930D01*
X100503246Y-47749657D01*
X100557898Y-47617716D01*
X100585759Y-47477647D01*
X100585759Y-47334835D01*
X100582906Y-47320490D01*
X102682157Y-45221239D01*
X106589489Y-45221239D01*
X106597615Y-45233400D01*
X106698598Y-45334383D01*
X106817343Y-45413726D01*
X106949284Y-45468378D01*
X107089353Y-45496239D01*
X107232165Y-45496239D01*
X107372234Y-45468378D01*
X107504175Y-45413726D01*
X107622920Y-45334383D01*
X107723903Y-45233400D01*
X107803246Y-45114655D01*
X107857898Y-44982714D01*
X107885759Y-44842645D01*
X107885759Y-44699833D01*
X107857898Y-44559764D01*
X107803246Y-44427823D01*
X107723903Y-44309078D01*
X107622920Y-44208095D01*
X107504175Y-44128752D01*
X107372234Y-44074100D01*
X107232165Y-44046239D01*
X107089353Y-44046239D01*
X106949284Y-44074100D01*
X106817343Y-44128752D01*
X106698598Y-44208095D01*
X106597615Y-44309078D01*
X106589489Y-44321239D01*
X102517855Y-44321239D01*
X102495761Y-44319063D01*
X102473667Y-44321239D01*
X102473656Y-44321239D01*
X102407546Y-44327750D01*
X102322720Y-44353482D01*
X102244544Y-44395268D01*
X102193193Y-44437411D01*
X102193189Y-44437415D01*
X102176024Y-44451502D01*
X102161937Y-44468667D01*
X100500758Y-46129846D01*
X100505000Y-43220109D01*
X100499291Y-43191299D01*
X100483033Y-43166967D01*
X100458701Y-43150709D01*
X100430000Y-43145000D01*
X97452709Y-43145000D01*
X97441603Y-43137596D01*
X97400000Y-43125000D01*
X96475000Y-43125000D01*
X96475000Y-41400000D01*
X96469291Y-41371299D01*
X96453033Y-41346967D01*
X96428701Y-41330709D01*
X96400000Y-41325000D01*
X92200000Y-41325000D01*
X92171299Y-41330709D01*
X92146967Y-41346967D01*
X92130709Y-41371299D01*
X92125000Y-41400000D01*
X69785003Y-41400000D01*
X70043923Y-41312509D01*
X70342809Y-41152751D01*
X70605440Y-40858584D01*
X129394560Y-40858584D01*
X129657191Y-41152751D01*
X130102974Y-41373355D01*
X130583228Y-41502753D01*
X131079499Y-41535971D01*
X131572715Y-41471734D01*
X132043923Y-41312509D01*
X132342809Y-41152751D01*
X132605440Y-40858584D01*
X132445148Y-40698292D01*
X132446593Y-40694081D01*
X132166726Y-40414213D01*
X132163898Y-40417042D01*
X131916410Y-40169554D01*
X131919239Y-40166726D01*
X131639371Y-39886859D01*
X131635160Y-39888304D01*
X131000000Y-39253144D01*
X130364840Y-39888304D01*
X130360629Y-39886859D01*
X130080761Y-40166726D01*
X130083590Y-40169554D01*
X129836102Y-40417042D01*
X129833274Y-40414213D01*
X129553407Y-40694081D01*
X129554852Y-40698292D01*
X129394560Y-40858584D01*
X70605440Y-40858584D01*
X70445148Y-40698292D01*
X70446593Y-40694081D01*
X70166726Y-40414213D01*
X70163898Y-40417042D01*
X69916410Y-40169554D01*
X69919239Y-40166726D01*
X69639371Y-39886859D01*
X69635160Y-39888304D01*
X69000000Y-39253144D01*
X68364840Y-39888304D01*
X68360629Y-39886859D01*
X68080761Y-40166726D01*
X68083590Y-40169554D01*
X67836102Y-40417042D01*
X67833274Y-40414213D01*
X67553407Y-40694081D01*
X67554852Y-40698292D01*
X67394560Y-40858584D01*
X67187770Y-40858584D01*
X67169302Y-40843522D01*
X66846093Y-40452830D01*
X66604923Y-40006795D01*
X66454984Y-39522419D01*
X66408432Y-39079499D01*
X66464029Y-39079499D01*
X66528266Y-39572715D01*
X66687491Y-40043923D01*
X66847249Y-40342809D01*
X67141416Y-40605440D01*
X67301708Y-40445148D01*
X67305919Y-40446593D01*
X67585787Y-40166726D01*
X67582958Y-40163898D01*
X67830446Y-39916410D01*
X67833274Y-39919239D01*
X68113141Y-39639371D01*
X68111696Y-39635160D01*
X68746856Y-39000000D01*
X69253144Y-39000000D01*
X69888304Y-39635160D01*
X69886859Y-39639371D01*
X70166726Y-39919239D01*
X70169554Y-39916410D01*
X70417042Y-40163898D01*
X70414213Y-40166726D01*
X70694081Y-40446593D01*
X70698292Y-40445148D01*
X70858584Y-40605440D01*
X71152751Y-40342809D01*
X71373355Y-39897026D01*
X71502753Y-39416772D01*
X71525328Y-39079499D01*
X128464029Y-39079499D01*
X128528266Y-39572715D01*
X128687491Y-40043923D01*
X128847249Y-40342809D01*
X129141416Y-40605440D01*
X129301708Y-40445148D01*
X129305919Y-40446593D01*
X129585787Y-40166726D01*
X129582958Y-40163898D01*
X129830446Y-39916410D01*
X129833274Y-39919239D01*
X130113141Y-39639371D01*
X130111696Y-39635160D01*
X130746856Y-39000000D01*
X131253144Y-39000000D01*
X131888304Y-39635160D01*
X131886859Y-39639371D01*
X132166726Y-39919239D01*
X132169554Y-39916410D01*
X132417042Y-40163898D01*
X132414213Y-40166726D01*
X132694081Y-40446593D01*
X132698292Y-40445148D01*
X132858584Y-40605440D01*
X133152751Y-40342809D01*
X133373355Y-39897026D01*
X133502753Y-39416772D01*
X133535971Y-38920501D01*
X133471734Y-38427285D01*
X133312509Y-37956077D01*
X133152751Y-37657191D01*
X132858584Y-37394560D01*
X132698292Y-37554852D01*
X132694081Y-37553407D01*
X132414213Y-37833274D01*
X132417042Y-37836102D01*
X132169554Y-38083590D01*
X132166726Y-38080761D01*
X131886859Y-38360629D01*
X131888304Y-38364840D01*
X131253144Y-39000000D01*
X130746856Y-39000000D01*
X130111696Y-38364840D01*
X130113141Y-38360629D01*
X129833274Y-38080761D01*
X129830446Y-38083590D01*
X129582958Y-37836102D01*
X129585787Y-37833274D01*
X129305919Y-37553407D01*
X129301708Y-37554852D01*
X129141416Y-37394560D01*
X128847249Y-37657191D01*
X128626645Y-38102974D01*
X128497247Y-38583228D01*
X128464029Y-39079499D01*
X71525328Y-39079499D01*
X71535971Y-38920501D01*
X71471734Y-38427285D01*
X71312509Y-37956077D01*
X71152751Y-37657191D01*
X70858584Y-37394560D01*
X70698292Y-37554852D01*
X70694081Y-37553407D01*
X70414213Y-37833274D01*
X70417042Y-37836102D01*
X70169554Y-38083590D01*
X70166726Y-38080761D01*
X69886859Y-38360629D01*
X69888304Y-38364840D01*
X69253144Y-39000000D01*
X68746856Y-39000000D01*
X68111696Y-38364840D01*
X68113141Y-38360629D01*
X67833274Y-38080761D01*
X67830446Y-38083590D01*
X67582958Y-37836102D01*
X67585787Y-37833274D01*
X67305919Y-37553407D01*
X67301708Y-37554852D01*
X67141416Y-37394560D01*
X66847249Y-37657191D01*
X66626645Y-38102974D01*
X66497247Y-38583228D01*
X66464029Y-39079499D01*
X66408432Y-39079499D01*
X66401982Y-39018138D01*
X66447937Y-38513168D01*
X66591101Y-38026739D01*
X66826016Y-37577389D01*
X67143742Y-37182218D01*
X67192367Y-37141416D01*
X67394560Y-37141416D01*
X67554852Y-37301708D01*
X67553407Y-37305919D01*
X67833274Y-37585787D01*
X67836102Y-37582958D01*
X68083590Y-37830446D01*
X68080761Y-37833274D01*
X68360629Y-38113141D01*
X68364840Y-38111696D01*
X69000000Y-38746856D01*
X69635160Y-38111696D01*
X69639371Y-38113141D01*
X69919239Y-37833274D01*
X69916410Y-37830446D01*
X70163898Y-37582958D01*
X70166726Y-37585787D01*
X70446593Y-37305919D01*
X70445148Y-37301708D01*
X70605440Y-37141416D01*
X129394560Y-37141416D01*
X129554852Y-37301708D01*
X129553407Y-37305919D01*
X129833274Y-37585787D01*
X129836102Y-37582958D01*
X130083590Y-37830446D01*
X130080761Y-37833274D01*
X130360629Y-38113141D01*
X130364840Y-38111696D01*
X131000000Y-38746856D01*
X131635160Y-38111696D01*
X131639371Y-38113141D01*
X131919239Y-37833274D01*
X131916410Y-37830446D01*
X132163898Y-37582958D01*
X132166726Y-37585787D01*
X132446593Y-37305919D01*
X132445148Y-37301708D01*
X132605440Y-37141416D01*
X132342809Y-36847249D01*
X131897026Y-36626645D01*
X131416772Y-36497247D01*
X130920501Y-36464029D01*
X130427285Y-36528266D01*
X129956077Y-36687491D01*
X129657191Y-36847249D01*
X129394560Y-37141416D01*
X70605440Y-37141416D01*
X70342809Y-36847249D01*
X69897026Y-36626645D01*
X69416772Y-36497247D01*
X68920501Y-36464029D01*
X68427285Y-36528266D01*
X67956077Y-36687491D01*
X67657191Y-36847249D01*
X67394560Y-37141416D01*
X67192367Y-37141416D01*
X67532171Y-36856287D01*
X67976508Y-36612010D01*
X68459828Y-36458692D01*
X68981868Y-36400136D01*
X69001354Y-36400000D01*
X130980436Y-36400000D01*
X131504636Y-36451399D01*
X131504636Y-36451399D01*
G37*
X131504636Y-36451399D02*
X131990055Y-36597955D01*
X132437754Y-36836000D01*
X132830699Y-37156479D01*
X133153907Y-37547170D01*
X133395076Y-37993204D01*
X133545017Y-38477582D01*
X133598018Y-38981862D01*
X133552062Y-39486835D01*
X133408899Y-39973260D01*
X133173985Y-40422610D01*
X132856258Y-40817782D01*
X132467828Y-41143713D01*
X132023494Y-41387989D01*
X131540172Y-41541308D01*
X131018132Y-41599864D01*
X130998646Y-41600000D01*
X130019646Y-41600000D01*
X130000000Y-41598065D01*
X129980353Y-41600000D01*
X129921586Y-41605788D01*
X129846186Y-41628660D01*
X129776697Y-41665803D01*
X129715789Y-41715789D01*
X129665803Y-41776697D01*
X129628660Y-41846186D01*
X129605788Y-41921586D01*
X129598065Y-42000000D01*
X129600000Y-42019647D01*
X129600001Y-106980426D01*
X129548601Y-107504637D01*
X129402046Y-107990053D01*
X129163998Y-108437757D01*
X128843522Y-108830698D01*
X128452830Y-109153907D01*
X128006795Y-109395077D01*
X127522419Y-109545016D01*
X126999288Y-109600000D01*
X72019564Y-109600000D01*
X71495363Y-109548601D01*
X71009947Y-109402046D01*
X70562243Y-109163998D01*
X70169302Y-108843522D01*
X69956934Y-108586813D01*
X70708542Y-108586813D01*
X70872427Y-108828157D01*
X71185024Y-109005692D01*
X71526250Y-109118832D01*
X71882992Y-109163228D01*
X72241540Y-109137174D01*
X72588116Y-109041671D01*
X72909402Y-108880390D01*
X72987573Y-108828157D01*
X73151458Y-108586813D01*
X83848542Y-108586813D01*
X84012427Y-108828157D01*
X84325024Y-109005692D01*
X84666250Y-109118832D01*
X85022992Y-109163228D01*
X85381540Y-109137174D01*
X85728116Y-109041671D01*
X86049402Y-108880390D01*
X86127573Y-108828157D01*
X86291458Y-108586813D01*
X86263998Y-108559353D01*
X118893792Y-108559353D01*
X119072063Y-108781729D01*
X119398473Y-108932368D01*
X119748001Y-109016434D01*
X120107212Y-109030694D01*
X120462302Y-108974602D01*
X120799627Y-108850313D01*
X120927937Y-108781729D01*
X121106208Y-108559353D01*
X120000000Y-107453144D01*
X118893792Y-108559353D01*
X86263998Y-108559353D01*
X85070000Y-107365355D01*
X83848542Y-108586813D01*
X73151458Y-108586813D01*
X71930000Y-107365355D01*
X70708542Y-108586813D01*
X69956934Y-108586813D01*
X69846093Y-108452830D01*
X69604923Y-108006795D01*
X69454984Y-107522419D01*
X69429819Y-107282992D01*
X70096772Y-107282992D01*
X70122826Y-107641540D01*
X70218329Y-107988116D01*
X70379610Y-108309402D01*
X70431843Y-108387573D01*
X70673187Y-108551458D01*
X71894645Y-107330000D01*
X71965355Y-107330000D01*
X73186813Y-108551458D01*
X73428157Y-108387573D01*
X73605692Y-108074976D01*
X73718832Y-107733750D01*
X73763228Y-107377008D01*
X73756397Y-107282992D01*
X83236772Y-107282992D01*
X83262826Y-107641540D01*
X83358329Y-107988116D01*
X83519610Y-108309402D01*
X83571843Y-108387573D01*
X83813187Y-108551458D01*
X85034645Y-107330000D01*
X85105355Y-107330000D01*
X86326813Y-108551458D01*
X86568157Y-108387573D01*
X86745692Y-108074976D01*
X86858832Y-107733750D01*
X86903228Y-107377008D01*
X86898157Y-107307212D01*
X118169306Y-107307212D01*
X118225398Y-107662302D01*
X118349687Y-107999627D01*
X118418271Y-108127937D01*
X118640647Y-108306208D01*
X119746856Y-107200000D01*
X120253144Y-107200000D01*
X121359353Y-108306208D01*
X121581729Y-108127937D01*
X121732368Y-107801527D01*
X121816434Y-107451999D01*
X121830694Y-107092788D01*
X121774602Y-106737698D01*
X121650313Y-106400373D01*
X121581729Y-106272063D01*
X121359353Y-106093792D01*
X120253144Y-107200000D01*
X119746856Y-107200000D01*
X118640647Y-106093792D01*
X118418271Y-106272063D01*
X118267632Y-106598473D01*
X118183566Y-106948001D01*
X118169306Y-107307212D01*
X86898157Y-107307212D01*
X86877174Y-107018460D01*
X86781671Y-106671884D01*
X86620390Y-106350598D01*
X86568157Y-106272427D01*
X86326813Y-106108542D01*
X85105355Y-107330000D01*
X85034645Y-107330000D01*
X83813187Y-106108542D01*
X83571843Y-106272427D01*
X83394308Y-106585024D01*
X83281168Y-106926250D01*
X83236772Y-107282992D01*
X73756397Y-107282992D01*
X73737174Y-107018460D01*
X73641671Y-106671884D01*
X73480390Y-106350598D01*
X73428157Y-106272427D01*
X73186813Y-106108542D01*
X71965355Y-107330000D01*
X71894645Y-107330000D01*
X70673187Y-106108542D01*
X70431843Y-106272427D01*
X70254308Y-106585024D01*
X70141168Y-106926250D01*
X70096772Y-107282992D01*
X69429819Y-107282992D01*
X69400000Y-106999288D01*
X69400000Y-106073187D01*
X70708542Y-106073187D01*
X71930000Y-107294645D01*
X73151458Y-106073187D01*
X72987573Y-105831843D01*
X72674976Y-105654308D01*
X72333750Y-105541168D01*
X71977008Y-105496772D01*
X71618460Y-105522826D01*
X71271884Y-105618329D01*
X70950598Y-105779610D01*
X70872427Y-105831843D01*
X70708542Y-106073187D01*
X69400000Y-106073187D01*
X69400000Y-102906813D01*
X70708542Y-102906813D01*
X70872427Y-103148157D01*
X71185024Y-103325692D01*
X71526250Y-103438832D01*
X71882992Y-103483228D01*
X72241540Y-103457174D01*
X72588116Y-103361671D01*
X72909402Y-103200390D01*
X72987573Y-103148157D01*
X73151458Y-102906813D01*
X71930000Y-101685355D01*
X70708542Y-102906813D01*
X69400000Y-102906813D01*
X69400000Y-101602992D01*
X70096772Y-101602992D01*
X70122826Y-101961540D01*
X70218329Y-102308116D01*
X70379610Y-102629402D01*
X70431843Y-102707573D01*
X70673187Y-102871458D01*
X71894645Y-101650000D01*
X70673187Y-100428542D01*
X70431843Y-100592427D01*
X70254308Y-100905024D01*
X70141168Y-101246250D01*
X70096772Y-101602992D01*
X69400000Y-101602992D01*
X69400000Y-100393187D01*
X70708542Y-100393187D01*
X71930000Y-101614645D01*
X71944143Y-101600503D01*
X71979498Y-101635858D01*
X71965355Y-101650000D01*
X73186813Y-102871458D01*
X73335000Y-102770831D01*
X73335000Y-105470000D01*
X73337780Y-105512421D01*
X73354817Y-105641831D01*
X73376776Y-105723782D01*
X73426726Y-105844372D01*
X73469148Y-105917849D01*
X73548608Y-106021402D01*
X73608598Y-106081392D01*
X73712151Y-106160852D01*
X73785628Y-106203274D01*
X73906218Y-106253224D01*
X73988169Y-106275183D01*
X74117579Y-106292220D01*
X74160000Y-106295000D01*
X75960000Y-106295000D01*
X76002421Y-106292220D01*
X76131831Y-106275183D01*
X76213782Y-106253224D01*
X76334372Y-106203274D01*
X76407849Y-106160852D01*
X76511402Y-106081392D01*
X76519607Y-106073187D01*
X83848542Y-106073187D01*
X85070000Y-107294645D01*
X86291458Y-106073187D01*
X86133552Y-105840647D01*
X118893792Y-105840647D01*
X120000000Y-106946856D01*
X121106208Y-105840647D01*
X120927937Y-105618271D01*
X120601527Y-105467632D01*
X120251999Y-105383566D01*
X119892788Y-105369306D01*
X119537698Y-105425398D01*
X119200373Y-105549687D01*
X119072063Y-105618271D01*
X118893792Y-105840647D01*
X86133552Y-105840647D01*
X86127573Y-105831843D01*
X85814976Y-105654308D01*
X85473750Y-105541168D01*
X85117008Y-105496772D01*
X84758460Y-105522826D01*
X84411884Y-105618329D01*
X84090598Y-105779610D01*
X84012427Y-105831843D01*
X83848542Y-106073187D01*
X76519607Y-106073187D01*
X76571392Y-106021402D01*
X76650852Y-105917849D01*
X76693274Y-105844372D01*
X76743224Y-105723782D01*
X76765183Y-105641831D01*
X76782220Y-105512421D01*
X76785000Y-105470000D01*
X76785000Y-105425279D01*
X76814728Y-105455007D01*
X76990797Y-105572652D01*
X77186434Y-105653688D01*
X77394122Y-105695000D01*
X77605878Y-105695000D01*
X77813566Y-105653688D01*
X78009203Y-105572652D01*
X78185272Y-105455007D01*
X78335007Y-105305272D01*
X78452652Y-105129203D01*
X78500000Y-105014896D01*
X78547348Y-105129203D01*
X78664993Y-105305272D01*
X78814728Y-105455007D01*
X78990797Y-105572652D01*
X79186434Y-105653688D01*
X79394122Y-105695000D01*
X79605878Y-105695000D01*
X79813566Y-105653688D01*
X80009203Y-105572652D01*
X80091376Y-105517746D01*
X81561873Y-105517746D01*
X81657424Y-105644439D01*
X81863864Y-105691589D01*
X82075537Y-105697556D01*
X82284306Y-105662115D01*
X82342576Y-105644439D01*
X82438127Y-105517746D01*
X82000000Y-105079619D01*
X81561873Y-105517746D01*
X80091376Y-105517746D01*
X80185272Y-105455007D01*
X80335007Y-105305272D01*
X80452652Y-105129203D01*
X80533688Y-104933566D01*
X80575000Y-104725878D01*
X80575000Y-104695537D01*
X80922444Y-104695537D01*
X80957885Y-104904306D01*
X80975561Y-104962576D01*
X81102254Y-105058127D01*
X81540381Y-104620000D01*
X82459619Y-104620000D01*
X82897746Y-105058127D01*
X83024439Y-104962576D01*
X83071589Y-104756136D01*
X83077556Y-104544463D01*
X83042115Y-104335694D01*
X83024439Y-104277424D01*
X82897746Y-104181873D01*
X82459619Y-104620000D01*
X81540381Y-104620000D01*
X81102254Y-104181873D01*
X80975561Y-104277424D01*
X80928411Y-104483864D01*
X80922444Y-104695537D01*
X80575000Y-104695537D01*
X80575000Y-104514122D01*
X80533688Y-104306434D01*
X80452652Y-104110797D01*
X80335007Y-103934728D01*
X80185272Y-103784993D01*
X80091377Y-103722254D01*
X81561873Y-103722254D01*
X82000000Y-104160381D01*
X82438127Y-103722254D01*
X82342576Y-103595561D01*
X82136136Y-103548411D01*
X81924463Y-103542444D01*
X81715694Y-103577885D01*
X81657424Y-103595561D01*
X81561873Y-103722254D01*
X80091377Y-103722254D01*
X80009203Y-103667348D01*
X79813566Y-103586312D01*
X79605878Y-103545000D01*
X79394122Y-103545000D01*
X79186434Y-103586312D01*
X78990797Y-103667348D01*
X78814728Y-103784993D01*
X78664993Y-103934728D01*
X78547348Y-104110797D01*
X78500000Y-104225104D01*
X78452652Y-104110797D01*
X78335007Y-103934728D01*
X78185272Y-103784993D01*
X78009203Y-103667348D01*
X77813566Y-103586312D01*
X77605878Y-103545000D01*
X77394122Y-103545000D01*
X77186434Y-103586312D01*
X76990797Y-103667348D01*
X76814728Y-103784993D01*
X76785000Y-103814721D01*
X76785000Y-102805279D01*
X76814728Y-102835007D01*
X76990797Y-102952652D01*
X77186434Y-103033688D01*
X77394122Y-103075000D01*
X77605878Y-103075000D01*
X77813566Y-103033688D01*
X78009203Y-102952652D01*
X78185272Y-102835007D01*
X78335007Y-102685272D01*
X78452652Y-102509203D01*
X78500000Y-102394896D01*
X78547348Y-102509203D01*
X78664993Y-102685272D01*
X78814728Y-102835007D01*
X78990797Y-102952652D01*
X79186434Y-103033688D01*
X79394122Y-103075000D01*
X79605878Y-103075000D01*
X79813566Y-103033688D01*
X80009203Y-102952652D01*
X80091376Y-102897746D01*
X81561873Y-102897746D01*
X81657424Y-103024439D01*
X81863864Y-103071589D01*
X82075537Y-103077556D01*
X82284306Y-103042115D01*
X82342576Y-103024439D01*
X82431288Y-102906813D01*
X83848542Y-102906813D01*
X84012427Y-103148157D01*
X84325024Y-103325692D01*
X84666250Y-103438832D01*
X85022992Y-103483228D01*
X85381540Y-103457174D01*
X85728116Y-103361671D01*
X86049402Y-103200390D01*
X86127573Y-103148157D01*
X86291458Y-102906813D01*
X85070000Y-101685355D01*
X83848542Y-102906813D01*
X82431288Y-102906813D01*
X82438127Y-102897746D01*
X82000000Y-102459619D01*
X81561873Y-102897746D01*
X80091376Y-102897746D01*
X80185272Y-102835007D01*
X80335007Y-102685272D01*
X80452652Y-102509203D01*
X80533688Y-102313566D01*
X80575000Y-102105878D01*
X80575000Y-102075537D01*
X80922444Y-102075537D01*
X80957885Y-102284306D01*
X80975561Y-102342576D01*
X81102254Y-102438127D01*
X81540381Y-102000000D01*
X82459619Y-102000000D01*
X82897746Y-102438127D01*
X83024439Y-102342576D01*
X83071589Y-102136136D01*
X83077556Y-101924463D01*
X83042115Y-101715694D01*
X83024439Y-101657424D01*
X82952267Y-101602992D01*
X83236772Y-101602992D01*
X83262826Y-101961540D01*
X83358329Y-102308116D01*
X83519610Y-102629402D01*
X83571843Y-102707573D01*
X83813187Y-102871458D01*
X85034645Y-101650000D01*
X85105355Y-101650000D01*
X86326813Y-102871458D01*
X86568157Y-102707573D01*
X86745692Y-102394976D01*
X86858832Y-102053750D01*
X86903228Y-101697008D01*
X86877174Y-101338460D01*
X86781671Y-100991884D01*
X86620390Y-100670598D01*
X86568157Y-100592427D01*
X86326813Y-100428542D01*
X85105355Y-101650000D01*
X85034645Y-101650000D01*
X83813187Y-100428542D01*
X83571843Y-100592427D01*
X83394308Y-100905024D01*
X83281168Y-101246250D01*
X83236772Y-101602992D01*
X82952267Y-101602992D01*
X82897746Y-101561873D01*
X82459619Y-102000000D01*
X81540381Y-102000000D01*
X81102254Y-101561873D01*
X80975561Y-101657424D01*
X80928411Y-101863864D01*
X80922444Y-102075537D01*
X80575000Y-102075537D01*
X80575000Y-101894122D01*
X80533688Y-101686434D01*
X80452652Y-101490797D01*
X80335007Y-101314728D01*
X80185272Y-101164993D01*
X80091377Y-101102254D01*
X81561873Y-101102254D01*
X82000000Y-101540381D01*
X82438127Y-101102254D01*
X82342576Y-100975561D01*
X82136136Y-100928411D01*
X81924463Y-100922444D01*
X81715694Y-100957885D01*
X81657424Y-100975561D01*
X81561873Y-101102254D01*
X80091377Y-101102254D01*
X80009203Y-101047348D01*
X79813566Y-100966312D01*
X79605878Y-100925000D01*
X79394122Y-100925000D01*
X79186434Y-100966312D01*
X78990797Y-101047348D01*
X78814728Y-101164993D01*
X78664993Y-101314728D01*
X78547348Y-101490797D01*
X78500000Y-101605104D01*
X78452652Y-101490797D01*
X78335007Y-101314728D01*
X78185272Y-101164993D01*
X78009203Y-101047348D01*
X77813566Y-100966312D01*
X77605878Y-100925000D01*
X77394122Y-100925000D01*
X77186434Y-100966312D01*
X76990797Y-101047348D01*
X76869906Y-101128125D01*
X77086064Y-100393187D01*
X83848542Y-100393187D01*
X85070000Y-101614645D01*
X86291458Y-100393187D01*
X86127573Y-100151843D01*
X85814976Y-99974308D01*
X85473750Y-99861168D01*
X85117008Y-99816772D01*
X84758460Y-99842826D01*
X84411884Y-99938329D01*
X84090598Y-100099610D01*
X84012427Y-100151843D01*
X83848542Y-100393187D01*
X77086064Y-100393187D01*
X77751477Y-98130783D01*
X77761365Y-98085403D01*
X77781682Y-97944319D01*
X77785000Y-97897995D01*
X77785000Y-93960000D01*
X87173428Y-93960000D01*
X87173428Y-99040000D01*
X87175000Y-99055961D01*
X87175000Y-99219747D01*
X87245134Y-99572333D01*
X87382706Y-99904461D01*
X87582430Y-100203369D01*
X87836631Y-100457570D01*
X88135539Y-100657294D01*
X88467667Y-100794866D01*
X88820253Y-100865000D01*
X89179747Y-100865000D01*
X89532333Y-100794866D01*
X89864461Y-100657294D01*
X90163369Y-100457570D01*
X90417570Y-100203369D01*
X90617294Y-99904461D01*
X90754866Y-99572333D01*
X90825000Y-99219747D01*
X90825000Y-99055961D01*
X90826572Y-99040000D01*
X90826572Y-97858584D01*
X98394560Y-97858584D01*
X98657191Y-98152751D01*
X99102974Y-98373355D01*
X99583228Y-98502753D01*
X100079499Y-98535971D01*
X100572715Y-98471734D01*
X101043923Y-98312509D01*
X101342809Y-98152751D01*
X101605440Y-97858584D01*
X101445148Y-97698292D01*
X101446593Y-97694081D01*
X101166726Y-97414213D01*
X101163898Y-97417042D01*
X100916410Y-97169554D01*
X100919239Y-97166726D01*
X100639371Y-96886859D01*
X100635160Y-96888304D01*
X100000000Y-96253144D01*
X99364840Y-96888304D01*
X99360629Y-96886859D01*
X99080761Y-97166726D01*
X99083590Y-97169554D01*
X98836102Y-97417042D01*
X98833274Y-97414213D01*
X98553407Y-97694081D01*
X98554852Y-97698292D01*
X98394560Y-97858584D01*
X90826572Y-97858584D01*
X90826572Y-96079499D01*
X97464029Y-96079499D01*
X97528266Y-96572715D01*
X97687491Y-97043923D01*
X97847249Y-97342809D01*
X98141416Y-97605440D01*
X98301708Y-97445148D01*
X98305919Y-97446593D01*
X98585787Y-97166726D01*
X98582958Y-97163898D01*
X98830446Y-96916410D01*
X98833274Y-96919239D01*
X99113141Y-96639371D01*
X99111696Y-96635160D01*
X99746856Y-96000000D01*
X100253144Y-96000000D01*
X100888304Y-96635160D01*
X100886859Y-96639371D01*
X101166726Y-96919239D01*
X101169554Y-96916410D01*
X101417042Y-97163898D01*
X101414213Y-97166726D01*
X101694081Y-97446593D01*
X101698292Y-97445148D01*
X101858584Y-97605440D01*
X102152751Y-97342809D01*
X102373355Y-96897026D01*
X102502753Y-96416772D01*
X102535971Y-95920501D01*
X102471734Y-95427285D01*
X102312509Y-94956077D01*
X102152751Y-94657191D01*
X101858584Y-94394560D01*
X101698292Y-94554852D01*
X101694081Y-94553407D01*
X101414213Y-94833274D01*
X101417042Y-94836102D01*
X101169554Y-95083590D01*
X101166726Y-95080761D01*
X100886859Y-95360629D01*
X100888304Y-95364840D01*
X100253144Y-96000000D01*
X99746856Y-96000000D01*
X99111696Y-95364840D01*
X99113141Y-95360629D01*
X98833274Y-95080761D01*
X98830446Y-95083590D01*
X98582958Y-94836102D01*
X98585787Y-94833274D01*
X98305919Y-94553407D01*
X98301708Y-94554852D01*
X98141416Y-94394560D01*
X97847249Y-94657191D01*
X97626645Y-95102974D01*
X97497247Y-95583228D01*
X97464029Y-96079499D01*
X90826572Y-96079499D01*
X90826572Y-94141416D01*
X98394560Y-94141416D01*
X98554852Y-94301708D01*
X98553407Y-94305919D01*
X98833274Y-94585787D01*
X98836102Y-94582958D01*
X99083590Y-94830446D01*
X99080761Y-94833274D01*
X99360629Y-95113141D01*
X99364840Y-95111696D01*
X100000000Y-95746856D01*
X100635160Y-95111696D01*
X100639371Y-95113141D01*
X100919239Y-94833274D01*
X100916410Y-94830446D01*
X101163898Y-94582958D01*
X101166726Y-94585787D01*
X101446593Y-94305919D01*
X101445148Y-94301708D01*
X101605440Y-94141416D01*
X101342809Y-93847249D01*
X100897026Y-93626645D01*
X100416772Y-93497247D01*
X100009707Y-93470000D01*
X113505000Y-93470000D01*
X113505000Y-103170000D01*
X113507780Y-103212421D01*
X113524817Y-103341831D01*
X113546776Y-103423782D01*
X113596726Y-103544372D01*
X113639148Y-103617849D01*
X113718608Y-103721402D01*
X113778598Y-103781392D01*
X113882151Y-103860852D01*
X113955628Y-103903274D01*
X114076218Y-103953224D01*
X114158169Y-103975183D01*
X114287579Y-103992220D01*
X114330000Y-103995000D01*
X124625305Y-103995000D01*
X124667976Y-103992187D01*
X124798138Y-103974948D01*
X124880540Y-103952730D01*
X125001726Y-103902201D01*
X125075504Y-103859299D01*
X125179358Y-103778964D01*
X125239422Y-103718336D01*
X125318782Y-103613736D01*
X125360992Y-103539561D01*
X125410386Y-103417908D01*
X125431832Y-103335303D01*
X125447854Y-103204986D01*
X125450269Y-103162290D01*
X125359615Y-93462290D01*
X125356474Y-93420149D01*
X125338437Y-93291655D01*
X125315973Y-93210359D01*
X125265479Y-93090833D01*
X125222856Y-93018058D01*
X125143307Y-92915549D01*
X125083389Y-92856188D01*
X124980141Y-92777601D01*
X124906972Y-92735661D01*
X124786979Y-92686286D01*
X124705478Y-92664583D01*
X124576821Y-92647747D01*
X124534651Y-92645000D01*
X114330000Y-92645000D01*
X114287579Y-92647780D01*
X114158169Y-92664817D01*
X114076218Y-92686776D01*
X113955628Y-92736726D01*
X113882151Y-92779148D01*
X113778598Y-92858608D01*
X113718608Y-92918598D01*
X113639148Y-93022151D01*
X113596726Y-93095628D01*
X113546776Y-93216218D01*
X113524817Y-93298169D01*
X113507780Y-93427579D01*
X113505000Y-93470000D01*
X100009707Y-93470000D01*
X99920501Y-93464029D01*
X99427285Y-93528266D01*
X98956077Y-93687491D01*
X98657191Y-93847249D01*
X98394560Y-94141416D01*
X90826572Y-94141416D01*
X90826572Y-93960000D01*
X90825000Y-93944039D01*
X90825000Y-92870349D01*
X90798593Y-92602238D01*
X90694238Y-92258224D01*
X90524774Y-91941179D01*
X90296714Y-91663286D01*
X90018821Y-91435226D01*
X89701776Y-91265762D01*
X89357762Y-91161407D01*
X89000000Y-91126170D01*
X88642239Y-91161407D01*
X88298225Y-91265762D01*
X87981180Y-91435226D01*
X87703287Y-91663286D01*
X87475227Y-91941179D01*
X87305763Y-92258224D01*
X87201408Y-92602238D01*
X87175001Y-92870349D01*
X87175001Y-93944034D01*
X87173428Y-93960000D01*
X77785000Y-93960000D01*
X77785000Y-93870000D01*
X77782220Y-93827579D01*
X77765183Y-93698169D01*
X77743224Y-93616218D01*
X77693274Y-93495628D01*
X77650852Y-93422151D01*
X77571392Y-93318598D01*
X77511402Y-93258608D01*
X77407849Y-93179148D01*
X77334372Y-93136726D01*
X77213782Y-93086776D01*
X77131831Y-93064817D01*
X77002421Y-93047780D01*
X76960000Y-93045000D01*
X72960000Y-93045000D01*
X72917579Y-93047780D01*
X72788169Y-93064817D01*
X72706218Y-93086776D01*
X72585628Y-93136726D01*
X72512151Y-93179148D01*
X72408598Y-93258608D01*
X72348608Y-93318598D01*
X72269148Y-93422151D01*
X72226726Y-93495628D01*
X72176776Y-93616218D01*
X72154817Y-93698169D01*
X72137780Y-93827579D01*
X72135000Y-93870000D01*
X72135000Y-97479333D01*
X72140215Y-97537321D01*
X72172050Y-97712882D01*
X72187528Y-97769009D01*
X73166103Y-100378539D01*
X73151457Y-100393185D01*
X72987573Y-100151843D01*
X72674976Y-99974308D01*
X72333750Y-99861168D01*
X71977008Y-99816772D01*
X71618460Y-99842826D01*
X71271884Y-99938329D01*
X70950598Y-100099610D01*
X70872427Y-100151843D01*
X70708542Y-100393187D01*
X69400000Y-100393187D01*
X69400000Y-46671745D01*
X70085761Y-46671745D01*
X70185002Y-61370506D01*
X70190709Y-61398701D01*
X70206967Y-61423033D01*
X70231299Y-61439291D01*
X70260000Y-61445000D01*
X77860000Y-61445000D01*
X77888545Y-61439356D01*
X77912913Y-61423153D01*
X77929226Y-61398858D01*
X77935000Y-61370169D01*
X77945328Y-56799833D01*
X78285749Y-56799833D01*
X78285749Y-56942645D01*
X78313610Y-57082714D01*
X78368262Y-57214655D01*
X78447605Y-57333400D01*
X78548588Y-57434383D01*
X78667333Y-57513726D01*
X78799274Y-57568378D01*
X78939343Y-57596239D01*
X79082155Y-57596239D01*
X79222224Y-57568378D01*
X79354165Y-57513726D01*
X79472910Y-57434383D01*
X79573893Y-57333400D01*
X79582019Y-57321239D01*
X79889479Y-57321239D01*
X79897605Y-57333400D01*
X79998588Y-57434383D01*
X80117333Y-57513726D01*
X80249274Y-57568378D01*
X80389343Y-57596239D01*
X80532155Y-57596239D01*
X80672224Y-57568378D01*
X80804165Y-57513726D01*
X80922910Y-57434383D01*
X81023893Y-57333400D01*
X81103236Y-57214655D01*
X81157888Y-57082714D01*
X81185749Y-56942645D01*
X81185749Y-56799833D01*
X81157888Y-56659764D01*
X81103236Y-56527823D01*
X81023893Y-56409078D01*
X80922910Y-56308095D01*
X80804165Y-56228752D01*
X80672224Y-56174100D01*
X80532155Y-56146239D01*
X80389343Y-56146239D01*
X80249274Y-56174100D01*
X80117333Y-56228752D01*
X79998588Y-56308095D01*
X79897605Y-56409078D01*
X79889479Y-56421239D01*
X79582019Y-56421239D01*
X79573893Y-56409078D01*
X79472910Y-56308095D01*
X79354165Y-56228752D01*
X79222224Y-56174100D01*
X79082155Y-56146239D01*
X78939343Y-56146239D01*
X78799274Y-56174100D01*
X78667333Y-56228752D01*
X78548588Y-56308095D01*
X78447605Y-56409078D01*
X78368262Y-56527823D01*
X78313610Y-56659764D01*
X78285749Y-56799833D01*
X77945328Y-56799833D01*
X77954831Y-52595000D01*
X85555000Y-52595000D01*
X85583570Y-52589345D01*
X85607933Y-52573133D01*
X85624237Y-52548832D01*
X85630000Y-52520142D01*
X85635759Y-49471381D01*
X85630050Y-49442538D01*
X85613792Y-49418206D01*
X85589460Y-49401948D01*
X85560759Y-49396239D01*
X79935759Y-49396239D01*
X79935759Y-48071239D01*
X79927167Y-48036382D01*
X79908773Y-48013622D01*
X79883069Y-47999634D01*
X79853969Y-47996547D01*
X78841435Y-48088596D01*
X78935593Y-46676228D01*
X78930050Y-46642538D01*
X78913792Y-46618206D01*
X78889460Y-46601948D01*
X78860759Y-46596239D01*
X70160759Y-46596239D01*
X70131591Y-46602143D01*
X70107369Y-46618565D01*
X70091276Y-46643006D01*
X70085761Y-46671745D01*
X69400000Y-46671745D01*
X69400000Y-41980353D01*
X69394212Y-41921586D01*
X69371340Y-41846186D01*
X69334197Y-41776697D01*
X69284211Y-41715789D01*
X69223302Y-41665803D01*
X69153813Y-41628660D01*
X69078413Y-41605788D01*
X69039095Y-41601916D01*
X69039033Y-41601909D01*
X69038096Y-41601817D01*
X69000000Y-41598065D01*
X68999915Y-41598073D01*
X68495363Y-41548601D01*
X68009947Y-41402046D01*
X67562243Y-41163998D01*
X67187770Y-40858584D01*
X67394560Y-40858584D01*
X67657191Y-41152751D01*
X68102974Y-41373355D01*
X68583228Y-41502753D01*
X69079499Y-41535971D01*
X69572715Y-41471734D01*
X69785003Y-41400000D01*
X92125000Y-41400000D01*
X92125000Y-63800000D01*
X92130709Y-63828701D01*
X92146967Y-63853033D01*
X92171299Y-63869291D01*
X92200000Y-63875000D01*
X100400000Y-63875000D01*
X100428600Y-63869333D01*
X100452956Y-63853110D01*
X100469249Y-63828802D01*
X100475000Y-63800109D01*
X100495468Y-49758739D01*
X108070732Y-49758739D01*
X108222518Y-49910525D01*
X108205000Y-49998594D01*
X108205000Y-50141406D01*
X108232861Y-50281475D01*
X108287513Y-50413416D01*
X108366856Y-50532161D01*
X108467839Y-50633144D01*
X108586584Y-50712487D01*
X108718525Y-50767139D01*
X108858594Y-50795000D01*
X109001406Y-50795000D01*
X109141475Y-50767139D01*
X109273416Y-50712487D01*
X109392161Y-50633144D01*
X109493144Y-50532161D01*
X109572487Y-50413416D01*
X109627139Y-50281475D01*
X109655000Y-50141406D01*
X109655000Y-49998594D01*
X109627139Y-49858525D01*
X109572487Y-49726584D01*
X109493144Y-49607839D01*
X109392161Y-49506856D01*
X109273416Y-49427513D01*
X109141475Y-49372861D01*
X109001406Y-49345000D01*
X108858594Y-49345000D01*
X108770525Y-49362518D01*
X108518701Y-49110694D01*
X108506568Y-49095910D01*
X108447564Y-49047486D01*
X108380246Y-49011504D01*
X108307202Y-48989347D01*
X108250265Y-48983739D01*
X108231239Y-48981865D01*
X108212213Y-48983739D01*
X100496598Y-48983739D01*
X100498387Y-47756930D01*
X100503246Y-47749657D01*
X100557898Y-47617716D01*
X100585759Y-47477647D01*
X100585759Y-47334835D01*
X100582906Y-47320490D01*
X102682157Y-45221239D01*
X106589489Y-45221239D01*
X106597615Y-45233400D01*
X106698598Y-45334383D01*
X106817343Y-45413726D01*
X106949284Y-45468378D01*
X107089353Y-45496239D01*
X107232165Y-45496239D01*
X107372234Y-45468378D01*
X107504175Y-45413726D01*
X107622920Y-45334383D01*
X107723903Y-45233400D01*
X107803246Y-45114655D01*
X107857898Y-44982714D01*
X107885759Y-44842645D01*
X107885759Y-44699833D01*
X107857898Y-44559764D01*
X107803246Y-44427823D01*
X107723903Y-44309078D01*
X107622920Y-44208095D01*
X107504175Y-44128752D01*
X107372234Y-44074100D01*
X107232165Y-44046239D01*
X107089353Y-44046239D01*
X106949284Y-44074100D01*
X106817343Y-44128752D01*
X106698598Y-44208095D01*
X106597615Y-44309078D01*
X106589489Y-44321239D01*
X102517855Y-44321239D01*
X102495761Y-44319063D01*
X102473667Y-44321239D01*
X102473656Y-44321239D01*
X102407546Y-44327750D01*
X102322720Y-44353482D01*
X102244544Y-44395268D01*
X102193193Y-44437411D01*
X102193189Y-44437415D01*
X102176024Y-44451502D01*
X102161937Y-44468667D01*
X100500758Y-46129846D01*
X100505000Y-43220109D01*
X100499291Y-43191299D01*
X100483033Y-43166967D01*
X100458701Y-43150709D01*
X100430000Y-43145000D01*
X97452709Y-43145000D01*
X97441603Y-43137596D01*
X97400000Y-43125000D01*
X96475000Y-43125000D01*
X96475000Y-41400000D01*
X96469291Y-41371299D01*
X96453033Y-41346967D01*
X96428701Y-41330709D01*
X96400000Y-41325000D01*
X92200000Y-41325000D01*
X92171299Y-41330709D01*
X92146967Y-41346967D01*
X92130709Y-41371299D01*
X92125000Y-41400000D01*
X69785003Y-41400000D01*
X70043923Y-41312509D01*
X70342809Y-41152751D01*
X70605440Y-40858584D01*
X129394560Y-40858584D01*
X129657191Y-41152751D01*
X130102974Y-41373355D01*
X130583228Y-41502753D01*
X131079499Y-41535971D01*
X131572715Y-41471734D01*
X132043923Y-41312509D01*
X132342809Y-41152751D01*
X132605440Y-40858584D01*
X132445148Y-40698292D01*
X132446593Y-40694081D01*
X132166726Y-40414213D01*
X132163898Y-40417042D01*
X131916410Y-40169554D01*
X131919239Y-40166726D01*
X131639371Y-39886859D01*
X131635160Y-39888304D01*
X131000000Y-39253144D01*
X130364840Y-39888304D01*
X130360629Y-39886859D01*
X130080761Y-40166726D01*
X130083590Y-40169554D01*
X129836102Y-40417042D01*
X129833274Y-40414213D01*
X129553407Y-40694081D01*
X129554852Y-40698292D01*
X129394560Y-40858584D01*
X70605440Y-40858584D01*
X70445148Y-40698292D01*
X70446593Y-40694081D01*
X70166726Y-40414213D01*
X70163898Y-40417042D01*
X69916410Y-40169554D01*
X69919239Y-40166726D01*
X69639371Y-39886859D01*
X69635160Y-39888304D01*
X69000000Y-39253144D01*
X68364840Y-39888304D01*
X68360629Y-39886859D01*
X68080761Y-40166726D01*
X68083590Y-40169554D01*
X67836102Y-40417042D01*
X67833274Y-40414213D01*
X67553407Y-40694081D01*
X67554852Y-40698292D01*
X67394560Y-40858584D01*
X67187770Y-40858584D01*
X67169302Y-40843522D01*
X66846093Y-40452830D01*
X66604923Y-40006795D01*
X66454984Y-39522419D01*
X66408432Y-39079499D01*
X66464029Y-39079499D01*
X66528266Y-39572715D01*
X66687491Y-40043923D01*
X66847249Y-40342809D01*
X67141416Y-40605440D01*
X67301708Y-40445148D01*
X67305919Y-40446593D01*
X67585787Y-40166726D01*
X67582958Y-40163898D01*
X67830446Y-39916410D01*
X67833274Y-39919239D01*
X68113141Y-39639371D01*
X68111696Y-39635160D01*
X68746856Y-39000000D01*
X69253144Y-39000000D01*
X69888304Y-39635160D01*
X69886859Y-39639371D01*
X70166726Y-39919239D01*
X70169554Y-39916410D01*
X70417042Y-40163898D01*
X70414213Y-40166726D01*
X70694081Y-40446593D01*
X70698292Y-40445148D01*
X70858584Y-40605440D01*
X71152751Y-40342809D01*
X71373355Y-39897026D01*
X71502753Y-39416772D01*
X71525328Y-39079499D01*
X128464029Y-39079499D01*
X128528266Y-39572715D01*
X128687491Y-40043923D01*
X128847249Y-40342809D01*
X129141416Y-40605440D01*
X129301708Y-40445148D01*
X129305919Y-40446593D01*
X129585787Y-40166726D01*
X129582958Y-40163898D01*
X129830446Y-39916410D01*
X129833274Y-39919239D01*
X130113141Y-39639371D01*
X130111696Y-39635160D01*
X130746856Y-39000000D01*
X131253144Y-39000000D01*
X131888304Y-39635160D01*
X131886859Y-39639371D01*
X132166726Y-39919239D01*
X132169554Y-39916410D01*
X132417042Y-40163898D01*
X132414213Y-40166726D01*
X132694081Y-40446593D01*
X132698292Y-40445148D01*
X132858584Y-40605440D01*
X133152751Y-40342809D01*
X133373355Y-39897026D01*
X133502753Y-39416772D01*
X133535971Y-38920501D01*
X133471734Y-38427285D01*
X133312509Y-37956077D01*
X133152751Y-37657191D01*
X132858584Y-37394560D01*
X132698292Y-37554852D01*
X132694081Y-37553407D01*
X132414213Y-37833274D01*
X132417042Y-37836102D01*
X132169554Y-38083590D01*
X132166726Y-38080761D01*
X131886859Y-38360629D01*
X131888304Y-38364840D01*
X131253144Y-39000000D01*
X130746856Y-39000000D01*
X130111696Y-38364840D01*
X130113141Y-38360629D01*
X129833274Y-38080761D01*
X129830446Y-38083590D01*
X129582958Y-37836102D01*
X129585787Y-37833274D01*
X129305919Y-37553407D01*
X129301708Y-37554852D01*
X129141416Y-37394560D01*
X128847249Y-37657191D01*
X128626645Y-38102974D01*
X128497247Y-38583228D01*
X128464029Y-39079499D01*
X71525328Y-39079499D01*
X71535971Y-38920501D01*
X71471734Y-38427285D01*
X71312509Y-37956077D01*
X71152751Y-37657191D01*
X70858584Y-37394560D01*
X70698292Y-37554852D01*
X70694081Y-37553407D01*
X70414213Y-37833274D01*
X70417042Y-37836102D01*
X70169554Y-38083590D01*
X70166726Y-38080761D01*
X69886859Y-38360629D01*
X69888304Y-38364840D01*
X69253144Y-39000000D01*
X68746856Y-39000000D01*
X68111696Y-38364840D01*
X68113141Y-38360629D01*
X67833274Y-38080761D01*
X67830446Y-38083590D01*
X67582958Y-37836102D01*
X67585787Y-37833274D01*
X67305919Y-37553407D01*
X67301708Y-37554852D01*
X67141416Y-37394560D01*
X66847249Y-37657191D01*
X66626645Y-38102974D01*
X66497247Y-38583228D01*
X66464029Y-39079499D01*
X66408432Y-39079499D01*
X66401982Y-39018138D01*
X66447937Y-38513168D01*
X66591101Y-38026739D01*
X66826016Y-37577389D01*
X67143742Y-37182218D01*
X67192367Y-37141416D01*
X67394560Y-37141416D01*
X67554852Y-37301708D01*
X67553407Y-37305919D01*
X67833274Y-37585787D01*
X67836102Y-37582958D01*
X68083590Y-37830446D01*
X68080761Y-37833274D01*
X68360629Y-38113141D01*
X68364840Y-38111696D01*
X69000000Y-38746856D01*
X69635160Y-38111696D01*
X69639371Y-38113141D01*
X69919239Y-37833274D01*
X69916410Y-37830446D01*
X70163898Y-37582958D01*
X70166726Y-37585787D01*
X70446593Y-37305919D01*
X70445148Y-37301708D01*
X70605440Y-37141416D01*
X129394560Y-37141416D01*
X129554852Y-37301708D01*
X129553407Y-37305919D01*
X129833274Y-37585787D01*
X129836102Y-37582958D01*
X130083590Y-37830446D01*
X130080761Y-37833274D01*
X130360629Y-38113141D01*
X130364840Y-38111696D01*
X131000000Y-38746856D01*
X131635160Y-38111696D01*
X131639371Y-38113141D01*
X131919239Y-37833274D01*
X131916410Y-37830446D01*
X132163898Y-37582958D01*
X132166726Y-37585787D01*
X132446593Y-37305919D01*
X132445148Y-37301708D01*
X132605440Y-37141416D01*
X132342809Y-36847249D01*
X131897026Y-36626645D01*
X131416772Y-36497247D01*
X130920501Y-36464029D01*
X130427285Y-36528266D01*
X129956077Y-36687491D01*
X129657191Y-36847249D01*
X129394560Y-37141416D01*
X70605440Y-37141416D01*
X70342809Y-36847249D01*
X69897026Y-36626645D01*
X69416772Y-36497247D01*
X68920501Y-36464029D01*
X68427285Y-36528266D01*
X67956077Y-36687491D01*
X67657191Y-36847249D01*
X67394560Y-37141416D01*
X67192367Y-37141416D01*
X67532171Y-36856287D01*
X67976508Y-36612010D01*
X68459828Y-36458692D01*
X68981868Y-36400136D01*
X69001354Y-36400000D01*
X130980436Y-36400000D01*
X131504636Y-36451399D01*
G36*
X78685925Y-48166250D02*
X78686390Y-48180945D01*
X78689712Y-48195268D01*
X78695765Y-48208666D01*
X78704316Y-48220627D01*
X78715035Y-48230689D01*
X78727512Y-48238467D01*
X78741267Y-48243662D01*
X78755770Y-48246073D01*
X78767549Y-48245931D01*
X79785759Y-48153366D01*
X79785759Y-49471239D01*
X79787200Y-49485871D01*
X79791468Y-49499940D01*
X79798399Y-49512907D01*
X79807726Y-49524272D01*
X79819091Y-49533599D01*
X79832058Y-49540530D01*
X79846127Y-49544798D01*
X79860759Y-49546239D01*
X85485617Y-49546239D01*
X85480141Y-52445000D01*
X77880000Y-52445000D01*
X77865368Y-52446441D01*
X77851299Y-52450709D01*
X77838332Y-52457640D01*
X77826967Y-52466967D01*
X77817640Y-52478332D01*
X77810709Y-52491299D01*
X77806441Y-52505368D01*
X77805000Y-52519831D01*
X77785169Y-61295000D01*
X70334495Y-61295000D01*
X70266717Y-51256250D01*
X79235000Y-51256250D01*
X79235000Y-51772010D01*
X79247490Y-51834799D01*
X79271989Y-51893945D01*
X79307556Y-51947176D01*
X79352825Y-51992444D01*
X79406055Y-52028011D01*
X79465201Y-52052511D01*
X79527991Y-52065000D01*
X80143750Y-52065000D01*
X80225000Y-51983750D01*
X80225000Y-51175000D01*
X80775000Y-51175000D01*
X80775000Y-51983750D01*
X80856250Y-52065000D01*
X81472009Y-52065000D01*
X81534799Y-52052511D01*
X81593945Y-52028011D01*
X81647175Y-51992444D01*
X81692444Y-51947176D01*
X81728011Y-51893945D01*
X81752510Y-51834799D01*
X81765000Y-51772010D01*
X81765000Y-51256250D01*
X81683750Y-51175000D01*
X80775000Y-51175000D01*
X80225000Y-51175000D01*
X79316250Y-51175000D01*
X79235000Y-51256250D01*
X70266717Y-51256250D01*
X70258425Y-50027990D01*
X79235000Y-50027990D01*
X79235000Y-50543750D01*
X79316250Y-50625000D01*
X80225000Y-50625000D01*
X80225000Y-49816250D01*
X80775000Y-49816250D01*
X80775000Y-50625000D01*
X81683750Y-50625000D01*
X81765000Y-50543750D01*
X81765000Y-50027990D01*
X81752510Y-49965201D01*
X81728011Y-49906055D01*
X81692444Y-49852824D01*
X81647175Y-49807556D01*
X81593945Y-49771989D01*
X81534799Y-49747489D01*
X81472009Y-49735000D01*
X80856250Y-49735000D01*
X80775000Y-49816250D01*
X80225000Y-49816250D01*
X80143750Y-49735000D01*
X79527991Y-49735000D01*
X79465201Y-49747489D01*
X79406055Y-49771989D01*
X79352825Y-49807556D01*
X79307556Y-49852824D01*
X79271989Y-49906055D01*
X79247490Y-49965201D01*
X79235000Y-50027990D01*
X70258425Y-50027990D01*
X70236267Y-46746239D01*
X78780592Y-46746239D01*
X78685925Y-48166250D01*
X78685925Y-48166250D01*
G37*
X78685925Y-48166250D02*
X78686390Y-48180945D01*
X78689712Y-48195268D01*
X78695765Y-48208666D01*
X78704316Y-48220627D01*
X78715035Y-48230689D01*
X78727512Y-48238467D01*
X78741267Y-48243662D01*
X78755770Y-48246073D01*
X78767549Y-48245931D01*
X79785759Y-48153366D01*
X79785759Y-49471239D01*
X79787200Y-49485871D01*
X79791468Y-49499940D01*
X79798399Y-49512907D01*
X79807726Y-49524272D01*
X79819091Y-49533599D01*
X79832058Y-49540530D01*
X79846127Y-49544798D01*
X79860759Y-49546239D01*
X85485617Y-49546239D01*
X85480141Y-52445000D01*
X77880000Y-52445000D01*
X77865368Y-52446441D01*
X77851299Y-52450709D01*
X77838332Y-52457640D01*
X77826967Y-52466967D01*
X77817640Y-52478332D01*
X77810709Y-52491299D01*
X77806441Y-52505368D01*
X77805000Y-52519831D01*
X77785169Y-61295000D01*
X70334495Y-61295000D01*
X70266717Y-51256250D01*
X79235000Y-51256250D01*
X79235000Y-51772010D01*
X79247490Y-51834799D01*
X79271989Y-51893945D01*
X79307556Y-51947176D01*
X79352825Y-51992444D01*
X79406055Y-52028011D01*
X79465201Y-52052511D01*
X79527991Y-52065000D01*
X80143750Y-52065000D01*
X80225000Y-51983750D01*
X80225000Y-51175000D01*
X80775000Y-51175000D01*
X80775000Y-51983750D01*
X80856250Y-52065000D01*
X81472009Y-52065000D01*
X81534799Y-52052511D01*
X81593945Y-52028011D01*
X81647175Y-51992444D01*
X81692444Y-51947176D01*
X81728011Y-51893945D01*
X81752510Y-51834799D01*
X81765000Y-51772010D01*
X81765000Y-51256250D01*
X81683750Y-51175000D01*
X80775000Y-51175000D01*
X80225000Y-51175000D01*
X79316250Y-51175000D01*
X79235000Y-51256250D01*
X70266717Y-51256250D01*
X70258425Y-50027990D01*
X79235000Y-50027990D01*
X79235000Y-50543750D01*
X79316250Y-50625000D01*
X80225000Y-50625000D01*
X80225000Y-49816250D01*
X80775000Y-49816250D01*
X80775000Y-50625000D01*
X81683750Y-50625000D01*
X81765000Y-50543750D01*
X81765000Y-50027990D01*
X81752510Y-49965201D01*
X81728011Y-49906055D01*
X81692444Y-49852824D01*
X81647175Y-49807556D01*
X81593945Y-49771989D01*
X81534799Y-49747489D01*
X81472009Y-49735000D01*
X80856250Y-49735000D01*
X80775000Y-49816250D01*
X80225000Y-49816250D01*
X80143750Y-49735000D01*
X79527991Y-49735000D01*
X79465201Y-49747489D01*
X79406055Y-49771989D01*
X79352825Y-49807556D01*
X79307556Y-49852824D01*
X79271989Y-49906055D01*
X79247490Y-49965201D01*
X79235000Y-50027990D01*
X70258425Y-50027990D01*
X70236267Y-46746239D01*
X78780592Y-46746239D01*
X78685925Y-48166250D01*
G36*
X96325000Y-43200000D02*
X96326441Y-43214632D01*
X96330709Y-43228701D01*
X96337640Y-43241668D01*
X96346967Y-43253033D01*
X96358332Y-43262360D01*
X96371299Y-43269291D01*
X96385368Y-43273559D01*
X96400000Y-43275000D01*
X97377291Y-43275000D01*
X97388397Y-43282404D01*
X97401371Y-43289321D01*
X97415445Y-43293574D01*
X97430000Y-43295000D01*
X100354891Y-43295000D01*
X100350539Y-46280065D01*
X99946510Y-46684094D01*
X99932165Y-46681241D01*
X99789353Y-46681241D01*
X99649284Y-46709102D01*
X99517343Y-46763754D01*
X99398598Y-46843097D01*
X99297615Y-46944080D01*
X99218272Y-47062825D01*
X99163620Y-47194766D01*
X99135759Y-47334835D01*
X99135759Y-47477647D01*
X99163620Y-47617716D01*
X99218272Y-47749657D01*
X99297615Y-47868402D01*
X99398598Y-47969385D01*
X99517343Y-48048728D01*
X99649284Y-48103380D01*
X99789353Y-48131241D01*
X99932165Y-48131241D01*
X100072234Y-48103380D01*
X100204175Y-48048728D01*
X100322920Y-47969385D01*
X100348114Y-47944191D01*
X100346598Y-48983739D01*
X97673790Y-48983739D01*
X97623903Y-48909078D01*
X97522920Y-48808095D01*
X97404175Y-48728752D01*
X97272234Y-48674100D01*
X97132165Y-48646239D01*
X96989353Y-48646239D01*
X96849284Y-48674100D01*
X96717343Y-48728752D01*
X96598598Y-48808095D01*
X96497615Y-48909078D01*
X96418272Y-49027823D01*
X96363620Y-49159764D01*
X96335759Y-49299833D01*
X96335759Y-49442645D01*
X96363620Y-49582714D01*
X96418272Y-49714655D01*
X96497615Y-49833400D01*
X96598598Y-49934383D01*
X96717343Y-50013726D01*
X96849284Y-50068378D01*
X96989353Y-50096239D01*
X97132165Y-50096239D01*
X97272234Y-50068378D01*
X97404175Y-50013726D01*
X97522920Y-49934383D01*
X97623903Y-49833400D01*
X97673790Y-49758739D01*
X100345468Y-49758739D01*
X100325109Y-63725000D01*
X92275000Y-63725000D01*
X92275000Y-46322489D01*
X96770759Y-46322489D01*
X96770759Y-46838249D01*
X96783249Y-46901038D01*
X96807748Y-46960184D01*
X96843315Y-47013415D01*
X96888584Y-47058683D01*
X96941814Y-47094250D01*
X97000960Y-47118750D01*
X97063750Y-47131239D01*
X97679509Y-47131239D01*
X97760759Y-47049989D01*
X97760759Y-46241239D01*
X98310759Y-46241239D01*
X98310759Y-47049989D01*
X98392009Y-47131239D01*
X99007768Y-47131239D01*
X99070558Y-47118750D01*
X99129704Y-47094250D01*
X99182934Y-47058683D01*
X99228203Y-47013415D01*
X99263770Y-46960184D01*
X99288269Y-46901038D01*
X99300759Y-46838249D01*
X99300759Y-46322489D01*
X99219509Y-46241239D01*
X98310759Y-46241239D01*
X97760759Y-46241239D01*
X96852009Y-46241239D01*
X96770759Y-46322489D01*
X92275000Y-46322489D01*
X92275000Y-45094229D01*
X96770759Y-45094229D01*
X96770759Y-45609989D01*
X96852009Y-45691239D01*
X97760759Y-45691239D01*
X97760759Y-44882489D01*
X98310759Y-44882489D01*
X98310759Y-45691239D01*
X99219509Y-45691239D01*
X99300759Y-45609989D01*
X99300759Y-45094229D01*
X99288269Y-45031440D01*
X99263770Y-44972294D01*
X99228203Y-44919063D01*
X99182934Y-44873795D01*
X99129704Y-44838228D01*
X99070558Y-44813728D01*
X99007768Y-44801239D01*
X98392009Y-44801239D01*
X98310759Y-44882489D01*
X97760759Y-44882489D01*
X97679509Y-44801239D01*
X97063750Y-44801239D01*
X97000960Y-44813728D01*
X96941814Y-44838228D01*
X96888584Y-44873795D01*
X96843315Y-44919063D01*
X96807748Y-44972294D01*
X96783249Y-45031440D01*
X96770759Y-45094229D01*
X92275000Y-45094229D01*
X92275000Y-41475000D01*
X96325000Y-41475000D01*
X96325000Y-43200000D01*
X96325000Y-43200000D01*
G37*
X96325000Y-43200000D02*
X96326441Y-43214632D01*
X96330709Y-43228701D01*
X96337640Y-43241668D01*
X96346967Y-43253033D01*
X96358332Y-43262360D01*
X96371299Y-43269291D01*
X96385368Y-43273559D01*
X96400000Y-43275000D01*
X97377291Y-43275000D01*
X97388397Y-43282404D01*
X97401371Y-43289321D01*
X97415445Y-43293574D01*
X97430000Y-43295000D01*
X100354891Y-43295000D01*
X100350539Y-46280065D01*
X99946510Y-46684094D01*
X99932165Y-46681241D01*
X99789353Y-46681241D01*
X99649284Y-46709102D01*
X99517343Y-46763754D01*
X99398598Y-46843097D01*
X99297615Y-46944080D01*
X99218272Y-47062825D01*
X99163620Y-47194766D01*
X99135759Y-47334835D01*
X99135759Y-47477647D01*
X99163620Y-47617716D01*
X99218272Y-47749657D01*
X99297615Y-47868402D01*
X99398598Y-47969385D01*
X99517343Y-48048728D01*
X99649284Y-48103380D01*
X99789353Y-48131241D01*
X99932165Y-48131241D01*
X100072234Y-48103380D01*
X100204175Y-48048728D01*
X100322920Y-47969385D01*
X100348114Y-47944191D01*
X100346598Y-48983739D01*
X97673790Y-48983739D01*
X97623903Y-48909078D01*
X97522920Y-48808095D01*
X97404175Y-48728752D01*
X97272234Y-48674100D01*
X97132165Y-48646239D01*
X96989353Y-48646239D01*
X96849284Y-48674100D01*
X96717343Y-48728752D01*
X96598598Y-48808095D01*
X96497615Y-48909078D01*
X96418272Y-49027823D01*
X96363620Y-49159764D01*
X96335759Y-49299833D01*
X96335759Y-49442645D01*
X96363620Y-49582714D01*
X96418272Y-49714655D01*
X96497615Y-49833400D01*
X96598598Y-49934383D01*
X96717343Y-50013726D01*
X96849284Y-50068378D01*
X96989353Y-50096239D01*
X97132165Y-50096239D01*
X97272234Y-50068378D01*
X97404175Y-50013726D01*
X97522920Y-49934383D01*
X97623903Y-49833400D01*
X97673790Y-49758739D01*
X100345468Y-49758739D01*
X100325109Y-63725000D01*
X92275000Y-63725000D01*
X92275000Y-46322489D01*
X96770759Y-46322489D01*
X96770759Y-46838249D01*
X96783249Y-46901038D01*
X96807748Y-46960184D01*
X96843315Y-47013415D01*
X96888584Y-47058683D01*
X96941814Y-47094250D01*
X97000960Y-47118750D01*
X97063750Y-47131239D01*
X97679509Y-47131239D01*
X97760759Y-47049989D01*
X97760759Y-46241239D01*
X98310759Y-46241239D01*
X98310759Y-47049989D01*
X98392009Y-47131239D01*
X99007768Y-47131239D01*
X99070558Y-47118750D01*
X99129704Y-47094250D01*
X99182934Y-47058683D01*
X99228203Y-47013415D01*
X99263770Y-46960184D01*
X99288269Y-46901038D01*
X99300759Y-46838249D01*
X99300759Y-46322489D01*
X99219509Y-46241239D01*
X98310759Y-46241239D01*
X97760759Y-46241239D01*
X96852009Y-46241239D01*
X96770759Y-46322489D01*
X92275000Y-46322489D01*
X92275000Y-45094229D01*
X96770759Y-45094229D01*
X96770759Y-45609989D01*
X96852009Y-45691239D01*
X97760759Y-45691239D01*
X97760759Y-44882489D01*
X98310759Y-44882489D01*
X98310759Y-45691239D01*
X99219509Y-45691239D01*
X99300759Y-45609989D01*
X99300759Y-45094229D01*
X99288269Y-45031440D01*
X99263770Y-44972294D01*
X99228203Y-44919063D01*
X99182934Y-44873795D01*
X99129704Y-44838228D01*
X99070558Y-44813728D01*
X99007768Y-44801239D01*
X98392009Y-44801239D01*
X98310759Y-44882489D01*
X97760759Y-44882489D01*
X97679509Y-44801239D01*
X97063750Y-44801239D01*
X97000960Y-44813728D01*
X96941814Y-44838228D01*
X96888584Y-44873795D01*
X96843315Y-44919063D01*
X96807748Y-44972294D01*
X96783249Y-45031440D01*
X96770759Y-45094229D01*
X92275000Y-45094229D01*
X92275000Y-41475000D01*
X96325000Y-41475000D01*
X96325000Y-43200000D01*
G04 #@! TO.N,+12V*
G36*
X124643845Y-93059928D02*
X124745685Y-93101834D01*
X124833314Y-93168532D01*
X124900830Y-93255536D01*
X124943684Y-93356977D01*
X124959678Y-93470913D01*
X125024956Y-100455685D01*
X124913758Y-100289265D01*
X124624735Y-100000242D01*
X124284881Y-99773159D01*
X123907255Y-99616741D01*
X123506370Y-99537000D01*
X123097630Y-99537000D01*
X122696745Y-99616741D01*
X122319119Y-99773159D01*
X121979265Y-100000242D01*
X121690242Y-100289265D01*
X121463159Y-100629119D01*
X121306741Y-101006745D01*
X121227000Y-101407630D01*
X121227000Y-101816370D01*
X121306741Y-102217255D01*
X121463159Y-102594881D01*
X121690242Y-102934735D01*
X121979265Y-103223758D01*
X122319119Y-103450841D01*
X122667149Y-103595000D01*
X114334912Y-103595000D01*
X114220170Y-103579894D01*
X114117822Y-103537500D01*
X114029937Y-103470063D01*
X113962500Y-103382178D01*
X113920106Y-103279830D01*
X113905000Y-103165088D01*
X113905000Y-93474912D01*
X113920106Y-93360170D01*
X113962500Y-93257822D01*
X114029937Y-93169937D01*
X114117822Y-93102500D01*
X114220170Y-93060106D01*
X114334912Y-93045000D01*
X124529765Y-93045000D01*
X124643845Y-93059928D01*
X124643845Y-93059928D01*
G37*
X124643845Y-93059928D02*
X124745685Y-93101834D01*
X124833314Y-93168532D01*
X124900830Y-93255536D01*
X124943684Y-93356977D01*
X124959678Y-93470913D01*
X125024956Y-100455685D01*
X124913758Y-100289265D01*
X124624735Y-100000242D01*
X124284881Y-99773159D01*
X123907255Y-99616741D01*
X123506370Y-99537000D01*
X123097630Y-99537000D01*
X122696745Y-99616741D01*
X122319119Y-99773159D01*
X121979265Y-100000242D01*
X121690242Y-100289265D01*
X121463159Y-100629119D01*
X121306741Y-101006745D01*
X121227000Y-101407630D01*
X121227000Y-101816370D01*
X121306741Y-102217255D01*
X121463159Y-102594881D01*
X121690242Y-102934735D01*
X121979265Y-103223758D01*
X122319119Y-103450841D01*
X122667149Y-103595000D01*
X114334912Y-103595000D01*
X114220170Y-103579894D01*
X114117822Y-103537500D01*
X114029937Y-103470063D01*
X113962500Y-103382178D01*
X113920106Y-103279830D01*
X113905000Y-103165088D01*
X113905000Y-93474912D01*
X113920106Y-93360170D01*
X113962500Y-93257822D01*
X114029937Y-93169937D01*
X114117822Y-93102500D01*
X114220170Y-93060106D01*
X114334912Y-93045000D01*
X124529765Y-93045000D01*
X124643845Y-93059928D01*
D24*
G04 #@! TO.N,+5V*
G36*
X77056257Y-93510769D02*
X77145955Y-93547923D01*
X77222976Y-93607024D01*
X77282077Y-93684045D01*
X77319231Y-93773743D01*
X77333000Y-93878328D01*
X77333000Y-97888900D01*
X77315277Y-98011973D01*
X76358478Y-101265086D01*
X76354614Y-101282819D01*
X76334297Y-101423903D01*
X76333000Y-101442005D01*
X76333000Y-105461672D01*
X76319231Y-105566257D01*
X76282077Y-105655955D01*
X76222976Y-105732976D01*
X76145955Y-105792077D01*
X76056257Y-105829231D01*
X75951672Y-105843000D01*
X74168328Y-105843000D01*
X74063743Y-105829231D01*
X73974045Y-105792077D01*
X73897024Y-105732976D01*
X73837923Y-105655955D01*
X73800769Y-105566257D01*
X73787000Y-105461672D01*
X73787000Y-101935415D01*
X73807000Y-101834868D01*
X73807000Y-101465132D01*
X73787000Y-101364585D01*
X73787000Y-100860667D01*
X73784962Y-100838007D01*
X73753127Y-100662446D01*
X73747079Y-100640513D01*
X72614759Y-97620994D01*
X72587000Y-97467912D01*
X72587000Y-93878328D01*
X72600769Y-93773743D01*
X72637923Y-93684045D01*
X72697024Y-93607024D01*
X72774045Y-93547923D01*
X72863743Y-93510769D01*
X72968328Y-93497000D01*
X76951672Y-93497000D01*
X77056257Y-93510769D01*
X77056257Y-93510769D01*
G37*
X77056257Y-93510769D02*
X77145955Y-93547923D01*
X77222976Y-93607024D01*
X77282077Y-93684045D01*
X77319231Y-93773743D01*
X77333000Y-93878328D01*
X77333000Y-97888900D01*
X77315277Y-98011973D01*
X76358478Y-101265086D01*
X76354614Y-101282819D01*
X76334297Y-101423903D01*
X76333000Y-101442005D01*
X76333000Y-105461672D01*
X76319231Y-105566257D01*
X76282077Y-105655955D01*
X76222976Y-105732976D01*
X76145955Y-105792077D01*
X76056257Y-105829231D01*
X75951672Y-105843000D01*
X74168328Y-105843000D01*
X74063743Y-105829231D01*
X73974045Y-105792077D01*
X73897024Y-105732976D01*
X73837923Y-105655955D01*
X73800769Y-105566257D01*
X73787000Y-105461672D01*
X73787000Y-101935415D01*
X73807000Y-101834868D01*
X73807000Y-101465132D01*
X73787000Y-101364585D01*
X73787000Y-100860667D01*
X73784962Y-100838007D01*
X73753127Y-100662446D01*
X73747079Y-100640513D01*
X72614759Y-97620994D01*
X72587000Y-97467912D01*
X72587000Y-93878328D01*
X72600769Y-93773743D01*
X72637923Y-93684045D01*
X72697024Y-93607024D01*
X72774045Y-93547923D01*
X72863743Y-93510769D01*
X72968328Y-93497000D01*
X76951672Y-93497000D01*
X77056257Y-93510769D01*
G04 #@! TD*
M02*
