G04 #@! TF.GenerationSoftware,KiCad,Pcbnew,(5.1.2)-2*
G04 #@! TF.CreationDate,2019-06-29T18:25:01+02:00*
G04 #@! TF.ProjectId,Milwaukee_USB_charger,4d696c77-6175-46b6-9565-5f5553425f63,rev?*
G04 #@! TF.SameCoordinates,Original*
G04 #@! TF.FileFunction,Legend,Top*
G04 #@! TF.FilePolarity,Positive*
%FSLAX46Y46*%
G04 Gerber Fmt 4.6, Leading zero omitted, Abs format (unit mm)*
G04 Created by KiCad (PCBNEW (5.1.2)-2) date 2019-06-29 18:25:01*
%MOMM*%
%LPD*%
G04 APERTURE LIST*
%ADD10C,0.120000*%
%ADD11C,0.100000*%
%ADD12C,0.500000*%
%ADD13C,0.150000*%
%ADD14C,0.125000*%
G04 APERTURE END LIST*
D10*
X81310000Y-83550000D02*
X81310000Y-84050000D01*
X81310000Y-84050000D02*
X74950000Y-84050000D01*
X74950000Y-84050000D02*
X74950000Y-83490000D01*
X74950000Y-77990000D02*
X74950000Y-77490000D01*
X74950000Y-77490000D02*
X81310000Y-77490000D01*
X81310000Y-77490000D02*
X81310000Y-78050000D01*
D11*
X73335000Y-93085000D02*
X83065000Y-93085000D01*
X83065000Y-93085000D02*
X83065000Y-98115000D01*
X73335000Y-98115000D02*
X83065000Y-98115000D01*
X73335000Y-93085000D02*
X73335000Y-98115000D01*
X116665000Y-87555000D02*
X126395000Y-87555000D01*
X126395000Y-87555000D02*
X126395000Y-92585000D01*
X116665000Y-92585000D02*
X126395000Y-92585000D01*
X116665000Y-87555000D02*
X116665000Y-92585000D01*
X116665000Y-93055000D02*
X126395000Y-93055000D01*
X126395000Y-93055000D02*
X126395000Y-98085000D01*
X116665000Y-98085000D02*
X126395000Y-98085000D01*
X116665000Y-93055000D02*
X116665000Y-98085000D01*
D12*
X127930000Y-78970000D02*
X129530000Y-78970000D01*
X128730000Y-78170000D02*
X128730000Y-79770000D01*
D13*
X128580000Y-73520000D02*
X128580000Y-77670000D01*
X123280000Y-77670000D02*
X124430000Y-78820000D01*
X128580000Y-77670000D02*
X127430000Y-78820000D01*
X124430000Y-78820000D02*
X127430000Y-78820000D01*
X123280000Y-73520000D02*
X123280000Y-77670000D01*
X123280000Y-73520000D02*
X128580000Y-73520000D01*
D12*
X95630000Y-53270000D02*
X94030000Y-53270000D01*
X94830000Y-54070000D02*
X94830000Y-52470000D01*
D13*
X94980000Y-58720000D02*
X94980000Y-54570000D01*
X100280000Y-54570000D02*
X99130000Y-53420000D01*
X94980000Y-54570000D02*
X96130000Y-53420000D01*
X99130000Y-53420000D02*
X96130000Y-53420000D01*
X100280000Y-58720000D02*
X100280000Y-54570000D01*
X100280000Y-58720000D02*
X94980000Y-58720000D01*
D12*
X94030000Y-53470000D02*
X95630000Y-53470000D01*
X94830000Y-52670000D02*
X94830000Y-54270000D01*
D13*
X94680000Y-48020000D02*
X94680000Y-52170000D01*
X89380000Y-52170000D02*
X90530000Y-53320000D01*
X94680000Y-52170000D02*
X93530000Y-53320000D01*
X90530000Y-53320000D02*
X93530000Y-53320000D01*
X89380000Y-48020000D02*
X89380000Y-52170000D01*
X89380000Y-48020000D02*
X94680000Y-48020000D01*
D12*
X80630000Y-86670000D02*
X80630000Y-85070000D01*
X79830000Y-85870000D02*
X81430000Y-85870000D01*
D13*
X75180000Y-86020000D02*
X79330000Y-86020000D01*
X79330000Y-91320000D02*
X80480000Y-90170000D01*
X79330000Y-86020000D02*
X80480000Y-87170000D01*
X80480000Y-90170000D02*
X80480000Y-87170000D01*
X75180000Y-91320000D02*
X79330000Y-91320000D01*
X75180000Y-91320000D02*
X75180000Y-86020000D01*
X93580000Y-66870000D02*
X93580000Y-86670000D01*
X121480000Y-66870000D02*
X93580000Y-66870000D01*
X121480000Y-86670000D02*
X121480000Y-66870000D01*
X121480000Y-86670000D02*
X93580000Y-86670000D01*
X82125000Y-49275000D02*
X82000000Y-49275000D01*
X82125000Y-52525000D02*
X81910000Y-52525000D01*
X78875000Y-52525000D02*
X79090000Y-52525000D01*
X78875000Y-49275000D02*
X79090000Y-49275000D01*
X82125000Y-49275000D02*
X82125000Y-52525000D01*
X78875000Y-49275000D02*
X78875000Y-52525000D01*
X82000000Y-49275000D02*
X82000000Y-48350000D01*
X99660759Y-44341239D02*
X99535759Y-44341239D01*
X99660759Y-47591239D02*
X99445759Y-47591239D01*
X96410759Y-47591239D02*
X96625759Y-47591239D01*
X96410759Y-44341239D02*
X96625759Y-44341239D01*
X99660759Y-44341239D02*
X99660759Y-47591239D01*
X96410759Y-44341239D02*
X96410759Y-47591239D01*
X99535759Y-44341239D02*
X99535759Y-43416239D01*
D10*
X85210000Y-52261252D02*
X85210000Y-51738748D01*
X83790000Y-52261252D02*
X83790000Y-51738748D01*
X81632026Y-54090000D02*
X81289492Y-54090000D01*
X81632026Y-55110000D02*
X81289492Y-55110000D01*
X82410000Y-46471267D02*
X82410000Y-46128733D01*
X81390000Y-46471267D02*
X81390000Y-46128733D01*
X78728733Y-44610000D02*
X79071267Y-44610000D01*
X78728733Y-43590000D02*
X79071267Y-43590000D01*
X99807026Y-49156239D02*
X99464492Y-49156239D01*
X99807026Y-50176239D02*
X99464492Y-50176239D01*
X98925759Y-41194972D02*
X98925759Y-41537506D01*
X99945759Y-41194972D02*
X99945759Y-41537506D01*
X96264492Y-39476239D02*
X96607026Y-39476239D01*
X96264492Y-38456239D02*
X96607026Y-38456239D01*
X70850000Y-51700000D02*
X70850000Y-50600000D01*
X70580000Y-51700000D02*
X70850000Y-51700000D01*
X70580000Y-53200000D02*
X70580000Y-51700000D01*
X77210000Y-51700000D02*
X77210000Y-48870000D01*
X77480000Y-51700000D02*
X77210000Y-51700000D01*
X77480000Y-53200000D02*
X77480000Y-51700000D01*
X125300000Y-53890000D02*
X126400000Y-53890000D01*
X125300000Y-53620000D02*
X125300000Y-53890000D01*
X123800000Y-53620000D02*
X125300000Y-53620000D01*
X125300000Y-60250000D02*
X128130000Y-60250000D01*
X125300000Y-60520000D02*
X125300000Y-60250000D01*
X123800000Y-60520000D02*
X125300000Y-60520000D01*
X84810000Y-105580000D02*
X84810000Y-103400000D01*
X72190000Y-105580000D02*
X72190000Y-103400000D01*
X84810000Y-109080000D02*
X84810000Y-117050000D01*
X84810000Y-117050000D02*
X85810000Y-117050000D01*
X85810000Y-117050000D02*
X85810000Y-117670000D01*
X85810000Y-117670000D02*
X71190000Y-117670000D01*
X71190000Y-117670000D02*
X71190000Y-117050000D01*
X71190000Y-117050000D02*
X72190000Y-117050000D01*
X72190000Y-117050000D02*
X72190000Y-109080000D01*
X73310000Y-100550000D02*
X83690000Y-100550000D01*
X75400000Y-100400000D02*
X74600000Y-100400000D01*
D13*
X123968750Y-121043000D02*
X123968750Y-115643000D01*
X116031250Y-121043000D02*
X123968750Y-121043000D01*
X116031250Y-121043000D02*
X116031250Y-115643000D01*
X114488200Y-115582000D02*
X125511800Y-115582000D01*
X125511800Y-115582000D02*
X125511800Y-99082000D01*
X114488200Y-99082000D02*
X125511800Y-99082000D01*
X114488200Y-115582000D02*
X114488200Y-99082000D01*
D10*
X81610759Y-65780000D02*
X82710759Y-65780000D01*
X81610759Y-63970000D02*
X81610759Y-65780000D01*
X80110759Y-63970000D02*
X81610759Y-63970000D01*
X81610759Y-72560000D02*
X86735759Y-72560000D01*
X81610759Y-74370000D02*
X81610759Y-72560000D01*
X80110759Y-74370000D02*
X81610759Y-74370000D01*
X110050000Y-49390000D02*
X108950000Y-49390000D01*
X110050000Y-51200000D02*
X110050000Y-49390000D01*
X111550000Y-51200000D02*
X110050000Y-51200000D01*
X110050000Y-42610000D02*
X104925000Y-42610000D01*
X110050000Y-40800000D02*
X110050000Y-42610000D01*
X111550000Y-40800000D02*
X110050000Y-40800000D01*
X82471267Y-43290000D02*
X82128733Y-43290000D01*
X82471267Y-44310000D02*
X82128733Y-44310000D01*
X82990000Y-46128733D02*
X82990000Y-46471267D01*
X84010000Y-46128733D02*
X84010000Y-46471267D01*
X79071267Y-45190000D02*
X78728733Y-45190000D01*
X79071267Y-46210000D02*
X78728733Y-46210000D01*
X78728733Y-47810000D02*
X79071267Y-47810000D01*
X78728733Y-46790000D02*
X79071267Y-46790000D01*
X100107026Y-38356239D02*
X99764492Y-38356239D01*
X100107026Y-39376239D02*
X99764492Y-39376239D01*
X101545759Y-41537506D02*
X101545759Y-41194972D01*
X100525759Y-41537506D02*
X100525759Y-41194972D01*
X96607026Y-40156239D02*
X96264492Y-40156239D01*
X96607026Y-41176239D02*
X96264492Y-41176239D01*
X96264492Y-42876239D02*
X96607026Y-42876239D01*
X96264492Y-41856239D02*
X96607026Y-41856239D01*
X104920000Y-51517936D02*
X104920000Y-55622064D01*
X108340000Y-51517936D02*
X108340000Y-55622064D01*
X84777936Y-59380000D02*
X88882064Y-59380000D01*
X84777936Y-55960000D02*
X88882064Y-55960000D01*
D14*
X78030000Y-76811428D02*
X77744285Y-76811428D01*
X77744285Y-76211428D01*
X78544285Y-76811428D02*
X78201428Y-76811428D01*
X78372857Y-76811428D02*
X78372857Y-76211428D01*
X78315714Y-76297142D01*
X78258571Y-76354285D01*
X78201428Y-76382857D01*
X78000000Y-92427142D02*
X77800000Y-92427142D01*
X77800000Y-92741428D02*
X77800000Y-92141428D01*
X78085714Y-92141428D01*
X78628571Y-92741428D02*
X78285714Y-92741428D01*
X78457142Y-92741428D02*
X78457142Y-92141428D01*
X78400000Y-92227142D01*
X78342857Y-92284285D01*
X78285714Y-92312857D01*
X122230000Y-86927142D02*
X122030000Y-86927142D01*
X122030000Y-87241428D02*
X122030000Y-86641428D01*
X122315714Y-86641428D01*
X122515714Y-86698571D02*
X122544285Y-86670000D01*
X122601428Y-86641428D01*
X122744285Y-86641428D01*
X122801428Y-86670000D01*
X122830000Y-86698571D01*
X122858571Y-86755714D01*
X122858571Y-86812857D01*
X122830000Y-86898571D01*
X122487142Y-87241428D01*
X122858571Y-87241428D01*
X121730000Y-98527142D02*
X121530000Y-98527142D01*
X121530000Y-98841428D02*
X121530000Y-98241428D01*
X121815714Y-98241428D01*
X121987142Y-98241428D02*
X122358571Y-98241428D01*
X122158571Y-98470000D01*
X122244285Y-98470000D01*
X122301428Y-98498571D01*
X122330000Y-98527142D01*
X122358571Y-98584285D01*
X122358571Y-98727142D01*
X122330000Y-98784285D01*
X122301428Y-98812857D01*
X122244285Y-98841428D01*
X122072857Y-98841428D01*
X122015714Y-98812857D01*
X121987142Y-98784285D01*
X122813526Y-76354475D02*
X122842098Y-76383046D01*
X122870669Y-76468761D01*
X122870669Y-76525903D01*
X122842098Y-76611618D01*
X122784955Y-76668761D01*
X122727812Y-76697332D01*
X122613526Y-76725903D01*
X122527812Y-76725903D01*
X122413526Y-76697332D01*
X122356383Y-76668761D01*
X122299241Y-76611618D01*
X122270669Y-76525903D01*
X122270669Y-76468761D01*
X122299241Y-76383046D01*
X122327812Y-76354475D01*
X122870669Y-75783046D02*
X122870669Y-76125903D01*
X122870669Y-75954475D02*
X122270669Y-75954475D01*
X122356383Y-76011618D01*
X122413526Y-76068761D01*
X122442098Y-76125903D01*
X122270669Y-75411618D02*
X122270669Y-75354475D01*
X122299241Y-75297332D01*
X122327812Y-75268761D01*
X122384955Y-75240189D01*
X122499241Y-75211618D01*
X122642098Y-75211618D01*
X122756383Y-75240189D01*
X122813526Y-75268761D01*
X122842098Y-75297332D01*
X122870669Y-75354475D01*
X122870669Y-75411618D01*
X122842098Y-75468761D01*
X122813526Y-75497332D01*
X122756383Y-75525903D01*
X122642098Y-75554475D01*
X122499241Y-75554475D01*
X122384955Y-75525903D01*
X122327812Y-75497332D01*
X122299241Y-75468761D01*
X122270669Y-75411618D01*
X101044285Y-56455714D02*
X101072857Y-56484285D01*
X101101428Y-56570000D01*
X101101428Y-56627142D01*
X101072857Y-56712857D01*
X101015714Y-56770000D01*
X100958571Y-56798571D01*
X100844285Y-56827142D01*
X100758571Y-56827142D01*
X100644285Y-56798571D01*
X100587142Y-56770000D01*
X100530000Y-56712857D01*
X100501428Y-56627142D01*
X100501428Y-56570000D01*
X100530000Y-56484285D01*
X100558571Y-56455714D01*
X101101428Y-55884285D02*
X101101428Y-56227142D01*
X101101428Y-56055714D02*
X100501428Y-56055714D01*
X100587142Y-56112857D01*
X100644285Y-56170000D01*
X100672857Y-56227142D01*
X101101428Y-55312857D02*
X101101428Y-55655714D01*
X101101428Y-55484285D02*
X100501428Y-55484285D01*
X100587142Y-55541428D01*
X100644285Y-55598571D01*
X100672857Y-55655714D01*
X95444285Y-50600000D02*
X95472857Y-50628571D01*
X95501428Y-50714285D01*
X95501428Y-50771428D01*
X95472857Y-50857142D01*
X95415714Y-50914285D01*
X95358571Y-50942857D01*
X95244285Y-50971428D01*
X95158571Y-50971428D01*
X95044285Y-50942857D01*
X94987142Y-50914285D01*
X94930000Y-50857142D01*
X94901428Y-50771428D01*
X94901428Y-50714285D01*
X94930000Y-50628571D01*
X94958571Y-50600000D01*
X94901428Y-50085714D02*
X94901428Y-50200000D01*
X94930000Y-50257142D01*
X94958571Y-50285714D01*
X95044285Y-50342857D01*
X95158571Y-50371428D01*
X95387142Y-50371428D01*
X95444285Y-50342857D01*
X95472857Y-50314285D01*
X95501428Y-50257142D01*
X95501428Y-50142857D01*
X95472857Y-50085714D01*
X95444285Y-50057142D01*
X95387142Y-50028571D01*
X95244285Y-50028571D01*
X95187142Y-50057142D01*
X95158571Y-50085714D01*
X95130000Y-50142857D01*
X95130000Y-50257142D01*
X95158571Y-50314285D01*
X95187142Y-50342857D01*
X95244285Y-50371428D01*
X77828761Y-85415044D02*
X77800189Y-85443616D01*
X77714475Y-85472187D01*
X77657332Y-85472187D01*
X77571618Y-85443616D01*
X77514475Y-85386473D01*
X77485903Y-85329330D01*
X77457332Y-85215044D01*
X77457332Y-85129330D01*
X77485903Y-85015044D01*
X77514475Y-84957901D01*
X77571618Y-84900759D01*
X77657332Y-84872187D01*
X77714475Y-84872187D01*
X77800189Y-84900759D01*
X77828761Y-84929330D01*
X78371618Y-84872187D02*
X78085903Y-84872187D01*
X78057332Y-85157901D01*
X78085903Y-85129330D01*
X78143046Y-85100759D01*
X78285903Y-85100759D01*
X78343046Y-85129330D01*
X78371618Y-85157901D01*
X78400189Y-85215044D01*
X78400189Y-85357901D01*
X78371618Y-85415044D01*
X78343046Y-85443616D01*
X78285903Y-85472187D01*
X78143046Y-85472187D01*
X78085903Y-85443616D01*
X78057332Y-85415044D01*
X107180000Y-77448571D02*
X106465714Y-77448571D01*
X106465714Y-75948571D01*
X107608571Y-76091428D02*
X107680000Y-76020000D01*
X107822857Y-75948571D01*
X108180000Y-75948571D01*
X108322857Y-76020000D01*
X108394285Y-76091428D01*
X108465714Y-76234285D01*
X108465714Y-76377142D01*
X108394285Y-76591428D01*
X107537142Y-77448571D01*
X108465714Y-77448571D01*
X82472857Y-48741428D02*
X82472857Y-49227142D01*
X82501428Y-49284285D01*
X82530000Y-49312857D01*
X82587142Y-49341428D01*
X82701428Y-49341428D01*
X82758571Y-49312857D01*
X82787142Y-49284285D01*
X82815714Y-49227142D01*
X82815714Y-48741428D01*
X83415714Y-49341428D02*
X83072857Y-49341428D01*
X83244285Y-49341428D02*
X83244285Y-48741428D01*
X83187142Y-48827142D01*
X83130000Y-48884285D01*
X83072857Y-48912857D01*
X99972857Y-43941428D02*
X99972857Y-44427142D01*
X100001428Y-44484285D01*
X100030000Y-44512857D01*
X100087142Y-44541428D01*
X100201428Y-44541428D01*
X100258571Y-44512857D01*
X100287142Y-44484285D01*
X100315714Y-44427142D01*
X100315714Y-43941428D01*
X100572857Y-43998571D02*
X100601428Y-43970000D01*
X100658571Y-43941428D01*
X100801428Y-43941428D01*
X100858571Y-43970000D01*
X100887142Y-43998571D01*
X100915714Y-44055714D01*
X100915714Y-44112857D01*
X100887142Y-44198571D01*
X100544285Y-44541428D01*
X100915714Y-44541428D01*
X86144285Y-52070000D02*
X86172857Y-52098571D01*
X86201428Y-52184285D01*
X86201428Y-52241428D01*
X86172857Y-52327142D01*
X86115714Y-52384285D01*
X86058571Y-52412857D01*
X85944285Y-52441428D01*
X85858571Y-52441428D01*
X85744285Y-52412857D01*
X85687142Y-52384285D01*
X85630000Y-52327142D01*
X85601428Y-52241428D01*
X85601428Y-52184285D01*
X85630000Y-52098571D01*
X85658571Y-52070000D01*
X86201428Y-51498571D02*
X86201428Y-51841428D01*
X86201428Y-51670000D02*
X85601428Y-51670000D01*
X85687142Y-51727142D01*
X85744285Y-51784285D01*
X85772857Y-51841428D01*
X81330000Y-56084285D02*
X81301428Y-56112857D01*
X81215714Y-56141428D01*
X81158571Y-56141428D01*
X81072857Y-56112857D01*
X81015714Y-56055714D01*
X80987142Y-55998571D01*
X80958571Y-55884285D01*
X80958571Y-55798571D01*
X80987142Y-55684285D01*
X81015714Y-55627142D01*
X81072857Y-55570000D01*
X81158571Y-55541428D01*
X81215714Y-55541428D01*
X81301428Y-55570000D01*
X81330000Y-55598571D01*
X81558571Y-55598571D02*
X81587142Y-55570000D01*
X81644285Y-55541428D01*
X81787142Y-55541428D01*
X81844285Y-55570000D01*
X81872857Y-55598571D01*
X81901428Y-55655714D01*
X81901428Y-55712857D01*
X81872857Y-55798571D01*
X81530000Y-56141428D01*
X81901428Y-56141428D01*
X81144285Y-46370000D02*
X81172857Y-46398571D01*
X81201428Y-46484285D01*
X81201428Y-46541428D01*
X81172857Y-46627142D01*
X81115714Y-46684285D01*
X81058571Y-46712857D01*
X80944285Y-46741428D01*
X80858571Y-46741428D01*
X80744285Y-46712857D01*
X80687142Y-46684285D01*
X80630000Y-46627142D01*
X80601428Y-46541428D01*
X80601428Y-46484285D01*
X80630000Y-46398571D01*
X80658571Y-46370000D01*
X80601428Y-46170000D02*
X80601428Y-45798571D01*
X80830000Y-45998571D01*
X80830000Y-45912857D01*
X80858571Y-45855714D01*
X80887142Y-45827142D01*
X80944285Y-45798571D01*
X81087142Y-45798571D01*
X81144285Y-45827142D01*
X81172857Y-45855714D01*
X81201428Y-45912857D01*
X81201428Y-46084285D01*
X81172857Y-46141428D01*
X81144285Y-46170000D01*
X76530000Y-44284285D02*
X76501428Y-44312857D01*
X76415714Y-44341428D01*
X76358571Y-44341428D01*
X76272857Y-44312857D01*
X76215714Y-44255714D01*
X76187142Y-44198571D01*
X76158571Y-44084285D01*
X76158571Y-43998571D01*
X76187142Y-43884285D01*
X76215714Y-43827142D01*
X76272857Y-43770000D01*
X76358571Y-43741428D01*
X76415714Y-43741428D01*
X76501428Y-43770000D01*
X76530000Y-43798571D01*
X77044285Y-43941428D02*
X77044285Y-44341428D01*
X76901428Y-43712857D02*
X76758571Y-44141428D01*
X77130000Y-44141428D01*
X101730000Y-49984285D02*
X101701428Y-50012857D01*
X101615714Y-50041428D01*
X101558571Y-50041428D01*
X101472857Y-50012857D01*
X101415714Y-49955714D01*
X101387142Y-49898571D01*
X101358571Y-49784285D01*
X101358571Y-49698571D01*
X101387142Y-49584285D01*
X101415714Y-49527142D01*
X101472857Y-49470000D01*
X101558571Y-49441428D01*
X101615714Y-49441428D01*
X101701428Y-49470000D01*
X101730000Y-49498571D01*
X101930000Y-49441428D02*
X102330000Y-49441428D01*
X102072857Y-50041428D01*
X98644285Y-41466239D02*
X98672857Y-41494810D01*
X98701428Y-41580524D01*
X98701428Y-41637667D01*
X98672857Y-41723381D01*
X98615714Y-41780524D01*
X98558571Y-41809096D01*
X98444285Y-41837667D01*
X98358571Y-41837667D01*
X98244285Y-41809096D01*
X98187142Y-41780524D01*
X98130000Y-41723381D01*
X98101428Y-41637667D01*
X98101428Y-41580524D01*
X98130000Y-41494810D01*
X98158571Y-41466239D01*
X98358571Y-41123381D02*
X98330000Y-41180524D01*
X98301428Y-41209096D01*
X98244285Y-41237667D01*
X98215714Y-41237667D01*
X98158571Y-41209096D01*
X98130000Y-41180524D01*
X98101428Y-41123381D01*
X98101428Y-41009096D01*
X98130000Y-40951953D01*
X98158571Y-40923381D01*
X98215714Y-40894810D01*
X98244285Y-40894810D01*
X98301428Y-40923381D01*
X98330000Y-40951953D01*
X98358571Y-41009096D01*
X98358571Y-41123381D01*
X98387142Y-41180524D01*
X98415714Y-41209096D01*
X98472857Y-41237667D01*
X98587142Y-41237667D01*
X98644285Y-41209096D01*
X98672857Y-41180524D01*
X98701428Y-41123381D01*
X98701428Y-41009096D01*
X98672857Y-40951953D01*
X98644285Y-40923381D01*
X98587142Y-40894810D01*
X98472857Y-40894810D01*
X98415714Y-40923381D01*
X98387142Y-40951953D01*
X98358571Y-41009096D01*
X94130000Y-39184285D02*
X94101428Y-39212857D01*
X94015714Y-39241428D01*
X93958571Y-39241428D01*
X93872857Y-39212857D01*
X93815714Y-39155714D01*
X93787142Y-39098571D01*
X93758571Y-38984285D01*
X93758571Y-38898571D01*
X93787142Y-38784285D01*
X93815714Y-38727142D01*
X93872857Y-38670000D01*
X93958571Y-38641428D01*
X94015714Y-38641428D01*
X94101428Y-38670000D01*
X94130000Y-38698571D01*
X94415714Y-39241428D02*
X94530000Y-39241428D01*
X94587142Y-39212857D01*
X94615714Y-39184285D01*
X94672857Y-39098571D01*
X94701428Y-38984285D01*
X94701428Y-38755714D01*
X94672857Y-38698571D01*
X94644285Y-38670000D01*
X94587142Y-38641428D01*
X94472857Y-38641428D01*
X94415714Y-38670000D01*
X94387142Y-38698571D01*
X94358571Y-38755714D01*
X94358571Y-38898571D01*
X94387142Y-38955714D01*
X94415714Y-38984285D01*
X94472857Y-39012857D01*
X94587142Y-39012857D01*
X94644285Y-38984285D01*
X94672857Y-38955714D01*
X94701428Y-38898571D01*
X73757142Y-51371428D02*
X73757142Y-50771428D01*
X73900000Y-50771428D01*
X73985714Y-50800000D01*
X74042857Y-50857142D01*
X74071428Y-50914285D01*
X74100000Y-51028571D01*
X74100000Y-51114285D01*
X74071428Y-51228571D01*
X74042857Y-51285714D01*
X73985714Y-51342857D01*
X73900000Y-51371428D01*
X73757142Y-51371428D01*
X74671428Y-51371428D02*
X74328571Y-51371428D01*
X74500000Y-51371428D02*
X74500000Y-50771428D01*
X74442857Y-50857142D01*
X74385714Y-50914285D01*
X74328571Y-50942857D01*
X125587142Y-61271428D02*
X125587142Y-60671428D01*
X125730000Y-60671428D01*
X125815714Y-60700000D01*
X125872857Y-60757142D01*
X125901428Y-60814285D01*
X125930000Y-60928571D01*
X125930000Y-61014285D01*
X125901428Y-61128571D01*
X125872857Y-61185714D01*
X125815714Y-61242857D01*
X125730000Y-61271428D01*
X125587142Y-61271428D01*
X126158571Y-60728571D02*
X126187142Y-60700000D01*
X126244285Y-60671428D01*
X126387142Y-60671428D01*
X126444285Y-60700000D01*
X126472857Y-60728571D01*
X126501428Y-60785714D01*
X126501428Y-60842857D01*
X126472857Y-60928571D01*
X126130000Y-61271428D01*
X126501428Y-61271428D01*
X84758571Y-69097142D02*
X84730000Y-69154285D01*
X84672857Y-69211428D01*
X84587142Y-69297142D01*
X84558571Y-69354285D01*
X84558571Y-69411428D01*
X84701428Y-69382857D02*
X84672857Y-69440000D01*
X84615714Y-69497142D01*
X84501428Y-69525714D01*
X84301428Y-69525714D01*
X84187142Y-69497142D01*
X84130000Y-69440000D01*
X84101428Y-69382857D01*
X84101428Y-69268571D01*
X84130000Y-69211428D01*
X84187142Y-69154285D01*
X84301428Y-69125714D01*
X84501428Y-69125714D01*
X84615714Y-69154285D01*
X84672857Y-69211428D01*
X84701428Y-69268571D01*
X84701428Y-69382857D01*
X84701428Y-68554285D02*
X84701428Y-68897142D01*
X84701428Y-68725714D02*
X84101428Y-68725714D01*
X84187142Y-68782857D01*
X84244285Y-68840000D01*
X84272857Y-68897142D01*
X107372857Y-42398571D02*
X107315714Y-42370000D01*
X107258571Y-42312857D01*
X107172857Y-42227142D01*
X107115714Y-42198571D01*
X107058571Y-42198571D01*
X107087142Y-42341428D02*
X107030000Y-42312857D01*
X106972857Y-42255714D01*
X106944285Y-42141428D01*
X106944285Y-41941428D01*
X106972857Y-41827142D01*
X107030000Y-41770000D01*
X107087142Y-41741428D01*
X107201428Y-41741428D01*
X107258571Y-41770000D01*
X107315714Y-41827142D01*
X107344285Y-41941428D01*
X107344285Y-42141428D01*
X107315714Y-42255714D01*
X107258571Y-42312857D01*
X107201428Y-42341428D01*
X107087142Y-42341428D01*
X107572857Y-41798571D02*
X107601428Y-41770000D01*
X107658571Y-41741428D01*
X107801428Y-41741428D01*
X107858571Y-41770000D01*
X107887142Y-41798571D01*
X107915714Y-41855714D01*
X107915714Y-41912857D01*
X107887142Y-41998571D01*
X107544285Y-42341428D01*
X107915714Y-42341428D01*
X82230000Y-42941428D02*
X82030000Y-42655714D01*
X81887142Y-42941428D02*
X81887142Y-42341428D01*
X82115714Y-42341428D01*
X82172857Y-42370000D01*
X82201428Y-42398571D01*
X82230000Y-42455714D01*
X82230000Y-42541428D01*
X82201428Y-42598571D01*
X82172857Y-42627142D01*
X82115714Y-42655714D01*
X81887142Y-42655714D01*
X82801428Y-42941428D02*
X82458571Y-42941428D01*
X82630000Y-42941428D02*
X82630000Y-42341428D01*
X82572857Y-42427142D01*
X82515714Y-42484285D01*
X82458571Y-42512857D01*
X84901428Y-46370000D02*
X84615714Y-46570000D01*
X84901428Y-46712857D02*
X84301428Y-46712857D01*
X84301428Y-46484285D01*
X84330000Y-46427142D01*
X84358571Y-46398571D01*
X84415714Y-46370000D01*
X84501428Y-46370000D01*
X84558571Y-46398571D01*
X84587142Y-46427142D01*
X84615714Y-46484285D01*
X84615714Y-46712857D01*
X84358571Y-46141428D02*
X84330000Y-46112857D01*
X84301428Y-46055714D01*
X84301428Y-45912857D01*
X84330000Y-45855714D01*
X84358571Y-45827142D01*
X84415714Y-45798571D01*
X84472857Y-45798571D01*
X84558571Y-45827142D01*
X84901428Y-46170000D01*
X84901428Y-45798571D01*
X76630000Y-45941428D02*
X76430000Y-45655714D01*
X76287142Y-45941428D02*
X76287142Y-45341428D01*
X76515714Y-45341428D01*
X76572857Y-45370000D01*
X76601428Y-45398571D01*
X76630000Y-45455714D01*
X76630000Y-45541428D01*
X76601428Y-45598571D01*
X76572857Y-45627142D01*
X76515714Y-45655714D01*
X76287142Y-45655714D01*
X77144285Y-45541428D02*
X77144285Y-45941428D01*
X77001428Y-45312857D02*
X76858571Y-45741428D01*
X77230000Y-45741428D01*
X76730000Y-47541428D02*
X76530000Y-47255714D01*
X76387142Y-47541428D02*
X76387142Y-46941428D01*
X76615714Y-46941428D01*
X76672857Y-46970000D01*
X76701428Y-46998571D01*
X76730000Y-47055714D01*
X76730000Y-47141428D01*
X76701428Y-47198571D01*
X76672857Y-47227142D01*
X76615714Y-47255714D01*
X76387142Y-47255714D01*
X77272857Y-46941428D02*
X76987142Y-46941428D01*
X76958571Y-47227142D01*
X76987142Y-47198571D01*
X77044285Y-47170000D01*
X77187142Y-47170000D01*
X77244285Y-47198571D01*
X77272857Y-47227142D01*
X77301428Y-47284285D01*
X77301428Y-47427142D01*
X77272857Y-47484285D01*
X77244285Y-47512857D01*
X77187142Y-47541428D01*
X77044285Y-47541428D01*
X76987142Y-47512857D01*
X76958571Y-47484285D01*
X102130000Y-39141428D02*
X101930000Y-38855714D01*
X101787142Y-39141428D02*
X101787142Y-38541428D01*
X102015714Y-38541428D01*
X102072857Y-38570000D01*
X102101428Y-38598571D01*
X102130000Y-38655714D01*
X102130000Y-38741428D01*
X102101428Y-38798571D01*
X102072857Y-38827142D01*
X102015714Y-38855714D01*
X101787142Y-38855714D01*
X102644285Y-38541428D02*
X102530000Y-38541428D01*
X102472857Y-38570000D01*
X102444285Y-38598571D01*
X102387142Y-38684285D01*
X102358571Y-38798571D01*
X102358571Y-39027142D01*
X102387142Y-39084285D01*
X102415714Y-39112857D01*
X102472857Y-39141428D01*
X102587142Y-39141428D01*
X102644285Y-39112857D01*
X102672857Y-39084285D01*
X102701428Y-39027142D01*
X102701428Y-38884285D01*
X102672857Y-38827142D01*
X102644285Y-38798571D01*
X102587142Y-38770000D01*
X102472857Y-38770000D01*
X102415714Y-38798571D01*
X102387142Y-38827142D01*
X102358571Y-38884285D01*
X102501428Y-41466239D02*
X102215714Y-41666239D01*
X102501428Y-41809096D02*
X101901428Y-41809096D01*
X101901428Y-41580524D01*
X101930000Y-41523381D01*
X101958571Y-41494810D01*
X102015714Y-41466239D01*
X102101428Y-41466239D01*
X102158571Y-41494810D01*
X102187142Y-41523381D01*
X102215714Y-41580524D01*
X102215714Y-41809096D01*
X101901428Y-41266239D02*
X101901428Y-40866239D01*
X102501428Y-41123381D01*
X94030000Y-40941428D02*
X93830000Y-40655714D01*
X93687142Y-40941428D02*
X93687142Y-40341428D01*
X93915714Y-40341428D01*
X93972857Y-40370000D01*
X94001428Y-40398571D01*
X94030000Y-40455714D01*
X94030000Y-40541428D01*
X94001428Y-40598571D01*
X93972857Y-40627142D01*
X93915714Y-40655714D01*
X93687142Y-40655714D01*
X94315714Y-40941428D02*
X94430000Y-40941428D01*
X94487142Y-40912857D01*
X94515714Y-40884285D01*
X94572857Y-40798571D01*
X94601428Y-40684285D01*
X94601428Y-40455714D01*
X94572857Y-40398571D01*
X94544285Y-40370000D01*
X94487142Y-40341428D01*
X94372857Y-40341428D01*
X94315714Y-40370000D01*
X94287142Y-40398571D01*
X94258571Y-40455714D01*
X94258571Y-40598571D01*
X94287142Y-40655714D01*
X94315714Y-40684285D01*
X94372857Y-40712857D01*
X94487142Y-40712857D01*
X94544285Y-40684285D01*
X94572857Y-40655714D01*
X94601428Y-40598571D01*
X93444285Y-42741428D02*
X93244285Y-42455714D01*
X93101428Y-42741428D02*
X93101428Y-42141428D01*
X93330000Y-42141428D01*
X93387142Y-42170000D01*
X93415714Y-42198571D01*
X93444285Y-42255714D01*
X93444285Y-42341428D01*
X93415714Y-42398571D01*
X93387142Y-42427142D01*
X93330000Y-42455714D01*
X93101428Y-42455714D01*
X94015714Y-42741428D02*
X93672857Y-42741428D01*
X93844285Y-42741428D02*
X93844285Y-42141428D01*
X93787142Y-42227142D01*
X93730000Y-42284285D01*
X93672857Y-42312857D01*
X94387142Y-42141428D02*
X94444285Y-42141428D01*
X94501428Y-42170000D01*
X94530000Y-42198571D01*
X94558571Y-42255714D01*
X94587142Y-42370000D01*
X94587142Y-42512857D01*
X94558571Y-42627142D01*
X94530000Y-42684285D01*
X94501428Y-42712857D01*
X94444285Y-42741428D01*
X94387142Y-42741428D01*
X94330000Y-42712857D01*
X94301428Y-42684285D01*
X94272857Y-42627142D01*
X94244285Y-42512857D01*
X94244285Y-42370000D01*
X94272857Y-42255714D01*
X94301428Y-42198571D01*
X94330000Y-42170000D01*
X94387142Y-42141428D01*
X109201428Y-53770000D02*
X108915714Y-53970000D01*
X109201428Y-54112857D02*
X108601428Y-54112857D01*
X108601428Y-53884285D01*
X108630000Y-53827142D01*
X108658571Y-53798571D01*
X108715714Y-53770000D01*
X108801428Y-53770000D01*
X108858571Y-53798571D01*
X108887142Y-53827142D01*
X108915714Y-53884285D01*
X108915714Y-54112857D01*
X108858571Y-53427142D02*
X108830000Y-53484285D01*
X108801428Y-53512857D01*
X108744285Y-53541428D01*
X108715714Y-53541428D01*
X108658571Y-53512857D01*
X108630000Y-53484285D01*
X108601428Y-53427142D01*
X108601428Y-53312857D01*
X108630000Y-53255714D01*
X108658571Y-53227142D01*
X108715714Y-53198571D01*
X108744285Y-53198571D01*
X108801428Y-53227142D01*
X108830000Y-53255714D01*
X108858571Y-53312857D01*
X108858571Y-53427142D01*
X108887142Y-53484285D01*
X108915714Y-53512857D01*
X108972857Y-53541428D01*
X109087142Y-53541428D01*
X109144285Y-53512857D01*
X109172857Y-53484285D01*
X109201428Y-53427142D01*
X109201428Y-53312857D01*
X109172857Y-53255714D01*
X109144285Y-53227142D01*
X109087142Y-53198571D01*
X108972857Y-53198571D01*
X108915714Y-53227142D01*
X108887142Y-53255714D01*
X108858571Y-53312857D01*
D13*
X86663333Y-55502380D02*
X86330000Y-55026190D01*
X86091904Y-55502380D02*
X86091904Y-54502380D01*
X86472857Y-54502380D01*
X86568095Y-54550000D01*
X86615714Y-54597619D01*
X86663333Y-54692857D01*
X86663333Y-54835714D01*
X86615714Y-54930952D01*
X86568095Y-54978571D01*
X86472857Y-55026190D01*
X86091904Y-55026190D01*
X86996666Y-54502380D02*
X87615714Y-54502380D01*
X87282380Y-54883333D01*
X87425238Y-54883333D01*
X87520476Y-54930952D01*
X87568095Y-54978571D01*
X87615714Y-55073809D01*
X87615714Y-55311904D01*
X87568095Y-55407142D01*
X87520476Y-55454761D01*
X87425238Y-55502380D01*
X87139523Y-55502380D01*
X87044285Y-55454761D01*
X86996666Y-55407142D01*
M02*
