M48
; DRILL file {KiCad (5.1.2)-2} date 29-Jun-19 18:25:42
; FORMAT={-:-/ absolute / metric / decimal}
; #@! TF.CreationDate,2019-06-29T18:25:42+02:00
; #@! TF.GenerationSoftware,Kicad,Pcbnew,(5.1.2)-2
FMAT,2
METRIC
T1C0.400
T2C0.500
T3C0.800
T4C0.920
T5C1.400
T6C1.700
T7C2.200
T8C2.300
%
G90
G05
T1
X69.93Y-44.17
X69.93Y-83.17
X69.93Y-88.17
X69.93Y-93.17
X69.93Y-98.17
X69.93Y-103.17
X71.061Y-47.071
X71.061Y-48.071
X71.93Y-86.17
X71.93Y-91.17
X72.061Y-47.071
X72.061Y-48.071
X73.061Y-47.071
X73.061Y-48.071
X73.061Y-49.071
X73.061Y-50.071
X73.46Y-98.37
X73.93Y-51.67
X74.061Y-47.071
X74.061Y-48.071
X74.061Y-49.071
X74.061Y-50.071
X74.26Y-99.77
X74.93Y-41.17
X74.93Y-44.17
X74.93Y-108.17
X74.951Y-38.17
X75.06Y-98.37
X75.061Y-47.071
X75.061Y-48.071
X75.061Y-49.071
X75.061Y-50.071
X75.86Y-99.77
X75.93Y-86.17
X75.93Y-91.17
X76.061Y-47.071
X76.061Y-48.071
X76.66Y-98.37
X77.061Y-48.071
X78.061Y-49.071
X78.061Y-50.071
X79.93Y-38.17
X79.93Y-41.17
X79.93Y-57.17
X79.93Y-61.17
X79.93Y-108.17
X81.93Y-69.17
X81.93Y-75.17
X84.93Y-38.17
X84.93Y-41.17
X84.93Y-44.17
X84.93Y-69.17
X84.93Y-73.17
X84.93Y-78.17
X84.93Y-83.17
X84.93Y-88.17
X84.93Y-99.17
X85.83Y-93.07
X89.93Y-38.17
X89.93Y-41.17
X89.93Y-103.17
X89.93Y-108.17
X90.0Y-44.0
X90.0Y-45.0
X90.0Y-46.0
X90.0Y-47.0
X90.0Y-48.0
X90.0Y-49.0
X90.0Y-50.4
X91.0Y-44.0
X91.0Y-45.0
X92.0Y-44.0
X92.0Y-45.0
X93.0Y-44.0
X93.0Y-45.0
X93.93Y-56.57
X93.93Y-58.07
X93.93Y-59.57
X93.93Y-61.07
X93.93Y-62.57
X94.0Y-44.0
X94.0Y-45.0
X94.0Y-46.0
X94.0Y-47.0
X94.0Y-48.0
X94.0Y-49.0
X94.0Y-50.4
X94.93Y-68.17
X94.93Y-73.17
X94.93Y-78.17
X94.93Y-83.17
X94.93Y-88.17
X94.93Y-93.17
X94.93Y-98.17
X94.93Y-103.17
X94.93Y-108.17
X95.0Y-44.0
X95.0Y-45.0
X95.0Y-46.0
X95.0Y-47.0
X95.0Y-48.0
X95.0Y-49.0
X95.43Y-56.57
X95.43Y-58.07
X95.43Y-59.57
X95.43Y-61.07
X95.43Y-62.57
X95.6Y-50.4
X96.93Y-62.57
X97.061Y-49.371
X97.43Y-75.67
X97.43Y-80.67
X97.43Y-85.67
X99.43Y-56.57
X99.43Y-58.07
X99.861Y-47.406
X99.93Y-78.17
X99.93Y-83.17
X99.93Y-88.17
X99.93Y-103.17
X99.93Y-108.17
X101.4Y-58.57
X102.43Y-80.67
X102.43Y-85.67
X102.93Y-43.17
X102.93Y-46.17
X102.93Y-48.17
X103.0Y-51.0
X103.8Y-58.6
X103.93Y-41.17
X104.93Y-39.17
X104.93Y-93.17
X104.93Y-98.17
X104.93Y-103.17
X104.93Y-108.17
X105.93Y-41.17
X105.93Y-46.17
X107.161Y-44.771
X108.0Y-53.5
X108.13Y-61.07
X108.93Y-46.17
X108.93Y-50.07
X109.93Y-38.17
X109.93Y-103.17
X109.93Y-108.17
X110.93Y-68.17
X113.93Y-68.17
X114.43Y-94.07
X114.43Y-95.57
X114.43Y-97.07
X114.43Y-98.57
X114.43Y-100.07
X114.43Y-101.57
X114.43Y-103.07
X114.66Y-92.82
X114.93Y-38.17
X114.93Y-83.17
X114.93Y-108.17
X116.13Y-98.57
X116.16Y-92.82
X116.93Y-68.17
X116.93Y-71.17
X117.63Y-98.57
X117.66Y-92.82
X119.13Y-98.57
X119.13Y-100.07
X119.13Y-101.57
X119.13Y-103.07
X119.16Y-92.82
X119.93Y-38.17
X119.93Y-65.17
X119.93Y-68.17
X119.93Y-71.17
X122.83Y-40.67
X122.83Y-45.67
X122.83Y-50.67
X122.93Y-65.17
X122.93Y-68.17
X122.93Y-71.17
X122.93Y-74.17
X124.93Y-38.17
X124.93Y-43.17
X124.93Y-48.17
X124.93Y-52.57
X124.93Y-105.67
X125.93Y-62.17
X125.93Y-65.17
X125.93Y-68.17
X127.43Y-43.17
X127.43Y-48.17
X127.43Y-52.57
X127.43Y-57.07
X127.43Y-100.07
X127.43Y-103.17
X127.43Y-108.17
X128.93Y-62.17
X128.93Y-65.17
X128.93Y-68.17
X128.93Y-71.17
X128.93Y-75.17
X129.35Y-39.0
X129.833Y-37.833
X129.833Y-40.167
X131.0Y-37.35
X131.0Y-40.65
X132.167Y-37.833
X132.167Y-40.167
X132.65Y-39.0
X67.35Y-39.0
X67.833Y-37.833
X67.833Y-40.167
X69.0Y-37.35
X69.0Y-40.65
X70.167Y-37.833
X70.167Y-40.167
X70.65Y-39.0
X98.35Y-96.0
X98.833Y-94.833
X98.833Y-97.167
X100.0Y-94.35
X100.0Y-97.65
X101.167Y-94.833
X101.167Y-97.167
X101.65Y-96.0
T2
X80.03Y-50.48
X80.97Y-51.32
X97.566Y-45.546
X98.506Y-46.386
T3
X80.0Y-51.3
X81.0Y-50.5
X97.536Y-46.366
X98.536Y-45.566
T4
X75.0Y-102.0
X75.0Y-104.62
X77.5Y-102.0
X77.5Y-104.62
X79.5Y-102.0
X79.5Y-104.62
X82.0Y-102.0
X82.0Y-104.62
T5
X111.0Y-93.96
X111.0Y-99.04
X89.0Y-93.96
X89.0Y-99.04
T6
X116.698Y-101.612
X120.0Y-107.2
X123.302Y-101.612
T7
X131.0Y-39.0
X69.0Y-39.0
X100.0Y-96.0
T8
X71.93Y-101.65
X71.93Y-107.33
X85.07Y-101.65
X85.07Y-107.33
T0
M30
